<svg width="150" height="227" viewBox="0 0 150 227" fill="none" xmlns="http://www.w3.org/2000/svg">
<path d="M42.7811 157.415C42.9354 158.71 43.8355 159.462 45.5525 160.241C47.0763 160.928 48.9476 160.921 50.6128 160.964C50.5359 160.392 50.4649 159.827 50.3944 159.261C47.8029 158.904 45.2695 158.288 42.7811 157.415Z" fill="#659951"/>
<path d="M42.9936 155.354C42.897 155.733 42.8328 156.077 42.7944 156.392C45.238 157.286 47.7329 157.923 50.2855 158.295C49.758 153.437 49.6747 148.592 50.8129 143.77C51.578 140.507 52.8898 137.294 54.5614 134.232C51.4045 137.809 48.5685 141.587 46.3822 146.096C44.9546 149.036 43.8164 152.141 42.9936 155.354Z" fill="#659951"/>
<path d="M87.6827 222.951L87.7729 223.717C90.4478 223.309 93.1098 222.779 95.759 222.157C98.3052 221.57 101.681 221.292 104.015 220.011C105.43 219.238 105.082 218.522 104.78 217.063C99.54 220.039 93.7077 222.007 87.6827 222.951Z" fill="#659951"/>
<path d="M51.9635 215.724C51.6934 217.656 51.6806 217.778 52.941 218.872C55.0564 220.704 58.5032 221.541 61.0686 222.343C66.5666 224.06 72.2954 224.704 77.9989 224.597C81.2718 224.533 84.5317 224.218 87.7725 223.717L87.6823 222.951C75.5938 224.833 62.759 222.579 52.4709 216.011C52.2264 215.853 52.1623 215.617 52.2007 215.395L52.0272 215.359C52.002 215.481 51.9828 215.602 51.9635 215.724Z" fill="#659951"/>
<path d="M109.738 158.388C109.603 159.813 109.461 161.25 109.288 162.696C114.689 158.86 118.38 154.424 122.058 148.743C122 148.707 121.949 148.665 121.897 148.6C121.325 147.82 120.759 147.04 120.2 146.274C117.872 151.269 113.969 155.383 109.738 158.388Z" fill="#659951"/>
<path d="M110.053 154.646C109.995 155.361 109.931 156.092 109.867 156.821C113.86 153.802 116.882 150.031 119.724 145.637C119.724 145.63 119.73 145.63 119.73 145.63C117.004 141.895 114.265 138.432 110.272 136.114C110.657 142.296 110.516 148.535 110.053 154.646Z" fill="#659951"/>
<path d="M75.7032 134.69C75.2916 135.176 74.8864 135.67 74.4816 136.164C74.488 136.178 74.5009 136.192 74.5073 136.207C77.7031 144.263 85.8499 146.532 92.8332 143.541C92.7815 142.804 92.7302 142.067 92.6661 141.322C89.6181 143.398 85.876 143.841 82.4873 142.382C80.1078 141.351 75.8768 137.995 75.7032 134.69Z" fill="#659951"/>
<path d="M52.0276 215.359L52.2012 215.395C52.2717 215.03 52.6384 214.722 53.0436 214.93C61.4734 219.259 69.9291 222.006 79.2915 222.164C88.1264 222.307 96.5433 220.11 104.652 216.361C104.472 215.295 104.305 214.235 104.189 213.155C102.562 212.447 101.051 211.366 99.8614 210.078C95.6175 205.47 92.8653 198.844 91.3864 192.54C91.3608 192.418 91.3672 192.318 91.3864 192.225C91.0778 191.86 90.8397 191.417 90.7175 190.923C90.5247 190.136 90.5375 188.934 91.1547 188.376C91.1612 188.369 91.1676 188.369 91.1676 188.369C91.1676 188.311 91.1611 188.261 91.174 188.204C93.206 178.859 93.2701 169.743 93.2572 160.198C93.2572 154.874 93.2188 149.687 92.8974 144.506C85.9337 148.205 76.8287 145.236 73.6584 137.186C70.3985 141.329 67.627 145.823 66.3024 151.533C64.9907 157.2 65.1898 163.275 65.0355 169.085C64.8876 174.516 64.7782 179.947 64.579 185.378C64.9133 185.6 65.2155 185.85 65.4856 186.165C66.6367 187.517 66.3858 189.321 66.373 191.052C66.3665 192.405 66.688 194.83 65.3121 195.632C65.0227 195.803 64.7462 195.853 64.4696 195.825C64.4696 195.839 64.476 195.853 64.4696 195.875C63.2544 201.692 58.5476 208.039 53.2364 210.715C53.2364 210.772 53.2364 210.823 53.2236 210.887C52.8637 212.332 52.285 213.871 52.0276 215.359Z" fill="#659951"/>
<path d="M101.134 187.353C100.723 187.625 100.806 188.448 100.806 188.884C100.819 189.829 100.935 190.752 101.115 191.668C101.816 190.73 102.928 190.086 104.098 190.058C104.484 190.044 105.269 190.251 106.105 190.594C106.111 190.58 106.105 190.573 106.105 190.559C106.253 189.593 106.381 188.641 106.452 187.675C105.005 187.589 103.558 187.503 102.105 187.41C101.913 187.403 101.295 187.246 101.134 187.353Z" fill="#D4F4BD"/>
<path d="M100.401 192.77C98.3628 193.564 96.0611 193.922 93.8812 193.65C96.1769 196.226 97.752 199.374 99.6297 202.401C99.9772 202.952 100.376 203.517 100.819 204.082C100.883 203.996 100.98 203.939 101.115 203.953C101.212 203.961 101.276 204.011 101.314 204.082C101.333 204.047 101.346 204.018 101.372 203.989C101.906 203.402 102.51 202.859 103.147 202.372C103.115 201.728 103.231 201.156 103.449 200.669C102.973 200.175 102.767 199.574 102.761 198.951C101.584 198.443 101.147 197.184 101.282 195.91C101.179 195.896 101.076 195.839 100.999 195.717C100.356 194.758 100.26 193.757 100.517 192.863C100.472 192.841 100.44 192.805 100.401 192.77Z" fill="#D4F4BD"/>
<path d="M0.76033 32.9612C0.792387 31.9809 1.71862 31.0292 2.5286 31.2513C2.54142 31.0796 2.56065 30.9079 2.61237 30.7362C2.87609 29.8344 3.88568 29.3335 4.54135 29.6626C4.53494 29.0543 4.71488 28.4821 5.26156 28.0383C5.44151 27.888 5.67959 27.9813 5.83389 28.1168C7.97487 30.0845 9.51189 32.9322 9.75638 36.0452C10.6181 34.5641 12.4958 31.1723 13.9362 33.3474C14.367 33.9986 14.3799 34.7643 14.1546 35.5225C13.7558 36.8605 12.6052 38.1556 11.6854 38.6708C13.4023 41.9907 15.2347 45.275 17.209 48.4095C24.5009 59.9727 33.7987 69.5178 47.0703 71.8004C47.2567 70.813 47.5589 69.8184 48.144 69.3818C48.8835 68.8239 50.3047 69.1169 51.5134 69.4317C49.9512 67.6714 48.4783 65.8183 47.0767 63.8863C45.8098 64.5231 43.9582 63.3497 43.1029 62.3694C42.6529 61.8472 42.3186 61.246 42.087 60.5948C41.9006 60.5306 41.7271 60.4517 41.5659 60.3513C41.3796 60.4084 41.1735 60.3727 40.9872 60.1867C36.8591 55.9578 33.9846 50.3696 32.8015 44.3161C31.5799 44.4664 29.7151 43.7363 29.1684 43.2069C29.1556 43.2355 29.1556 43.2711 29.1363 43.3001C28.0109 45.4039 27.1364 47.5719 26.4936 49.912C26.3777 50.3482 25.8764 50.5132 25.5742 50.1841C24.1919 48.6387 23.4135 46.9711 23.1113 44.9178C21.523 45.6978 20.1535 46.6425 18.7841 47.9015C18.5203 48.145 18.154 48.1089 17.9673 47.823C17.9352 47.7659 17.9031 47.7084 17.8839 47.637C16.7072 43.6302 16.8102 39.7091 18.122 35.845C17.1188 35.9668 16.3088 36.2027 15.2993 36.6322C14.9586 36.7753 14.5534 36.3244 14.6821 35.9454C14.7013 35.8954 14.7205 35.845 14.7398 35.795C15.9165 32.4894 18.1092 30.2139 21.1054 29.1765C20.578 28.5753 20.0445 28.0245 19.4402 27.4666C19.0995 27.1589 19.3953 26.5867 19.7744 26.5719C22.2116 26.4573 24.3975 26.9943 26.494 28.2966C26.4876 27.8742 26.5645 27.4809 26.7898 27.1589C27.4908 26.1715 29.1239 26.4293 30.069 26.6152C31.503 26.9016 32.8468 27.6241 33.9398 28.6904C36.0102 23.6458 39.8361 19.9254 44.9738 17.385C48.6646 15.5604 52.7607 14.6948 56.8246 14.7447C56.278 12.2191 56.4647 8.29792 59.6217 8.5267C59.9239 8.54811 60.2133 8.60566 60.4962 8.69841C59.4418 6.93807 58.9532 5.09212 58.8823 2.90989C58.8694 2.49466 59.3003 2.25161 59.6025 2.44472C61.5443 3.67567 61.2293 2.85995 61.808 0.935041C62.0268 0.190668 62.2966 -0.553231 62.5923 -1.26146C63.4668 -3.33667 64.6564 -5.15408 66.0519 -6.83546C66.3605 -7.20741 66.8559 -6.89254 66.888 -6.44924C66.9653 -5.36146 67.4539 -0.303047 68.6755 -0.195552C69.2927 -0.138475 70.9131 -1.70523 71.4597 -2.02723C73.6007 -3.27959 75.9221 -3.81611 78.3208 -3.88032C78.758 -3.88746 79.0154 -3.23631 78.6875 -2.90003C76.8487 -1.02554 75.6652 1.12863 75.0223 3.74749C78.2759 3.79743 81.2145 4.80626 83.9474 6.88147C84.3847 7.21061 84.2304 7.99066 83.6709 8.01206C81.4397 8.07627 79.4718 8.50578 77.4788 9.37144C78.2951 9.84375 78.9512 10.445 79.6394 11.3896C79.9416 11.7972 79.7424 12.3485 79.2667 12.3913C77.1189 12.5986 75.0676 13.0424 73.0164 13.7078C74.8296 15.3464 74.238 18.6521 73.222 20.7416C77.4275 24.3479 80.4622 29.5428 81.2726 36.2402C81.2918 36.3977 81.2277 36.5266 81.1375 36.6051C82.3271 37.163 83.3495 38.2579 83.7803 39.5816C84.3847 41.4276 83.8577 43.8105 82.224 44.7404C82.687 45.9856 83.1498 47.2232 83.6132 48.4542C84.3847 50.5294 85.0921 52.6112 85.4845 54.7293C85.973 54.0995 86.4812 53.4845 87.0275 52.8904C87.2459 52.6545 87.6255 52.6327 87.8443 52.8904C88.5901 53.7704 89.3424 54.7007 90.037 55.6667C90.0562 55.6525 90.069 55.6311 90.0883 55.6097C100.441 47.4596 106.189 35.9896 105.868 21.7647C103.99 22.0724 101.199 22.0439 100.37 19.8759C99.3797 17.2785 103.945 17.9153 105.707 18.4875C105.758 18.459 105.816 18.4376 105.893 18.4519C106.009 18.4661 106.086 18.5451 106.125 18.645C106.144 18.6521 106.163 18.6592 106.183 18.6735C106.202 18.6664 106.221 18.6521 106.234 18.6521C106.285 18.6307 106.33 18.6164 106.375 18.6022C105.591 16.878 102.903 9.55075 106.369 10.3879C106.414 10.3237 106.478 10.2804 106.549 10.2661C106.536 10.2518 106.517 10.2304 106.51 10.209C105.822 8.45583 108.317 8.4273 109.108 9.36478C109.166 9.42899 109.211 9.50081 109.256 9.56502C110.581 8.78498 111.963 9.68679 112.567 11.1251C112.774 11.6188 112.902 12.1696 112.998 12.7423C114.998 12.6923 115.48 15.2969 115.307 17.1286C115.082 19.4469 114.034 21.6938 112.394 23.1535C113.03 38.0795 107.108 55.3956 95.8299 64.0323C102.273 63.7745 109.037 68.9908 114.619 72.0891C115.114 72.3683 114.915 73.1193 114.477 73.3058C113.41 73.742 112.381 74.014 111.313 74.1643C117.178 78.6077 123.961 83.9102 131.131 83.6809C131.665 83.6666 131.896 84.411 131.556 84.8186C129.016 87.8237 126.206 90.3498 123.048 92.475C124.405 93.4767 125.82 94.0132 127.453 94.3856C127.665 94.4356 127.762 94.6363 127.768 94.8437C128.07 95.0943 128.18 95.6522 127.749 95.9243C124.424 98.0281 121.113 98.1284 117.949 97.1191C114.168 95.91 110.587 93.1266 107.429 90.3142C107.603 90.7722 107.815 91.2084 108.079 91.6307C108.374 92.1815 107.802 92.7109 107.333 92.4607C103.436 90.3855 99.6554 88.0815 95.9645 85.6058C96.1381 86.2855 96.2667 86.9799 96.3505 87.7595C96.3954 88.2033 95.8684 88.4825 95.5593 88.2603C92.608 86.1637 90.0165 83.5663 88.1969 80.2249C88.1136 80.0817 88.0362 79.9386 87.9593 79.7883C87.7921 79.4663 88.2166 79.0653 88.4478 79.373C90.4217 82.049 92.4665 84.4248 94.9742 86.4139C94.8199 85.7913 94.672 85.1758 94.5177 84.5537C94.3249 84.0528 94.7494 83.4088 95.2443 83.7451C98.8775 86.2208 102.607 88.482 106.413 90.5929C106.208 90.0278 106.047 89.448 105.905 88.7969C105.77 88.1957 106.394 87.8522 106.793 88.2171C112.155 93.2117 119.229 99.0431 126.372 95.2651C124.643 94.9787 123.17 94.213 121.717 92.9753C121.382 92.6962 121.311 92.1382 121.717 91.8662C124.668 89.9413 127.33 87.6587 129.742 84.9827C122.231 84.5389 115.28 78.7005 109.275 74.2209C108.792 73.8632 108.96 72.9971 109.57 72.99C110.689 72.9686 111.725 72.804 112.753 72.5105C105.757 68.3535 96.736 61.2622 89.4441 68.1527C89.0005 68.5751 88.4025 68.1313 88.4025 67.6447C88.3769 67.6019 88.3576 67.5515 88.3512 67.4944C88.2097 66.4642 88.0683 65.4335 87.9268 64.3961C87.0202 65.1976 86.4671 66.2421 86.2615 67.5373C86.2034 67.7951 85.9721 67.9882 85.7405 67.981C83.5863 67.9596 81.6509 68.4747 79.8762 69.5554C79.7992 69.6771 79.677 69.7485 79.5483 69.7485C79.259 69.9416 78.9696 70.1419 78.6867 70.364C79.5163 70.6432 80.275 71.008 81.0785 71.5231C81.3679 71.7091 81.4645 72.2313 81.1944 72.4963C78.0113 75.5085 75.3621 78.9721 73.2019 82.9218C74.0187 82.8647 74.8415 82.8072 75.6583 82.7501C76.1469 82.7144 76.4619 83.5016 76.0764 83.8593C72.739 86.9362 70.3792 90.7356 68.9969 95.2437C69.6466 95.0149 70.2638 94.7071 70.8485 94.299C71.2409 94.0555 71.7487 94.3561 71.7487 94.8712C71.7102 101.175 72.2889 107.386 73.4592 113.532C73.4977 113.411 73.5298 113.296 73.5686 113.175C73.6588 112.316 74.8804 112.302 74.7902 113.175C74.7902 113.21 74.7838 113.239 74.7774 113.275C74.9894 113.304 75.1826 113.44 75.2339 113.705C75.9028 117.311 75.8447 122.055 78.3717 124.781C78.9632 124.008 79.5996 123.336 80.3844 122.771C80.5259 122.663 80.6802 122.707 80.7896 122.806C81.1174 122.764 81.4581 122.971 81.4325 123.436C81.291 126.477 81.4068 129.475 84.757 130.148C86.7377 130.548 89.0265 129.89 90.9235 129.297C91.2966 129.182 91.6437 129.504 91.6565 129.919C91.695 130.993 91.7403 131.071 91.6052 131.515C95.7589 131.164 99.5464 129.755 103.109 127.25C103.379 127.057 103.726 127.193 103.886 127.472C104.266 128.137 104.529 128.731 104.729 129.404C106.555 127.35 107.725 125.018 108.375 122.134C108.42 121.934 108.542 121.841 108.671 121.812C108.728 121.512 108.973 121.233 109.275 121.354C110.066 121.676 110.645 122.048 111.166 122.578C111.223 120.403 110.78 118.507 108.459 117.591C108.041 117.433 107.906 116.775 108.33 116.51C108.542 116.374 108.761 116.231 108.979 116.095C107.07 115.537 105.16 115.136 103.173 114.929C102.774 114.886 102.395 114.271 102.794 113.927C103.462 113.347 104.144 112.789 104.832 112.239C102.691 111.602 100.575 111.43 98.3248 111.48C96.4086 112.224 94.0937 111.215 93.0328 109.019C92.917 108.768 92.949 108.539 93.0585 108.353C91.9719 107.173 90.8273 106.178 89.5091 105.384C89.6185 106.314 89.6634 107.237 89.6378 108.203C89.6249 108.697 89.1167 108.897 88.7953 108.589C87.4835 107.33 86.1012 106.213 84.5834 105.276C83.7153 104.74 80.5066 102.507 79.5231 103.144C79.1115 103.416 78.7516 102.994 78.7837 102.593C78.6422 102.436 78.5845 102.207 78.7324 101.963C79.8899 100.103 80.5712 98.2283 80.8349 95.9528C80.8798 95.5738 81.2337 95.2085 81.5872 95.4734C82.0629 95.8239 82.4168 96.1674 82.7447 96.5755C83.6769 93.3411 83.4585 89.8994 83.9149 86.5438C83.9662 86.1932 84.4035 86.0358 84.6544 86.2146C85.3618 86.7155 85.8375 87.1878 86.2555 87.8318C87.2715 85.3561 87.5801 82.9517 88.1012 80.2544C88.1012 80.2187 88.146 80.2259 88.1525 80.2544C88.9175 83.367 88.0366 86.451 86.7313 89.2345C86.5577 89.5921 86.0559 89.5779 85.8824 89.2345C85.4772 89.1341 85.072 89.0342 84.6608 88.9338C84.6223 89.4989 84.5967 90.0644 84.571 90.6371C84.5198 91.5746 84.4937 92.5187 84.3975 93.4562C84.2432 95.0016 83.9282 96.4399 83.3879 97.8782C83.2208 98.3149 82.719 98.4509 82.4685 98.0143C82.1984 97.7137 81.9347 97.4059 81.665 97.1053C81.3564 98.8371 80.8225 100.382 79.9608 101.914C80.9768 101.95 82.1792 102.723 82.9507 103.095C85.034 104.096 86.918 105.442 88.6607 107.03C88.6543 106.229 88.5901 105.456 88.4615 104.583C88.391 104.125 88.7637 103.796 89.1432 103.996C90.9628 104.97 92.4609 106.229 93.6445 108.011C93.818 108.025 93.9787 108.118 94.0817 108.34C95.0657 110.387 97.5281 111.259 99.0651 109.356C100.853 107.152 99.0523 104.87 96.9946 104.369C96.6796 104.29 96.6151 103.839 96.7955 103.603C96.7442 103.488 96.7309 103.359 96.7826 103.217C97.4255 101.342 98.2231 99.5315 98.9817 97.7141C99.7212 95.9467 100.364 94.0146 101.464 92.4835C101.631 92.2476 101.907 92.5121 101.869 92.7485C101.573 94.5516 100.731 96.2687 100.069 97.9363C99.3421 99.7608 98.6475 101.614 97.8183 103.381C100.467 103.482 101.766 107.474 100.255 109.85C100.094 110.101 99.9144 110.322 99.7276 110.523C101.901 110.329 104.03 110.687 106.158 111.453C106.608 111.618 106.659 112.24 106.28 112.526C105.688 112.984 105.11 113.457 104.531 113.929C106.557 114.223 108.543 114.673 110.511 115.331C110.942 115.474 111.051 116.161 110.64 116.419C110.35 116.605 110.061 116.784 109.778 116.963C110.17 117.206 110.505 117.478 110.788 117.778C113.765 113.636 113.829 109.521 114.491 104.405C114.851 101.593 115.584 99.1601 117.565 97.278C117.687 97.1633 117.822 97.1491 117.931 97.1995C118.118 97.2922 118.227 97.5714 118.047 97.815C115.153 101.686 115.745 106.33 114.98 110.952C114.491 113.893 113.315 116.533 111.469 118.687C112.241 120.061 112.331 121.842 112.125 123.967C112.073 124.569 111.475 124.733 111.154 124.261C110.627 123.438 109.964 122.858 109.173 122.493C109.064 123.066 108.929 123.617 108.781 124.153C108.8 124.182 108.813 124.211 108.819 124.254C108.89 124.619 108.954 124.984 109.019 125.349L108.343 125.499C107.565 127.574 106.421 129.385 104.839 131.009C104.543 131.309 104.009 131.209 103.913 130.737C103.302 127.839 102.531 129.256 100.769 130.193C99.8815 130.665 98.9685 131.073 98.0427 131.431C96.1586 132.139 94.2488 132.548 92.2942 132.748C95.1687 141.27 94.4292 151.294 94.442 160.203C94.4613 168.968 94.6673 177.726 92.8024 186.263C95.458 184.288 100.152 183.959 103.026 183.672C103.412 183.637 103.856 183.644 104.293 183.708C105.798 183.93 107.302 184.803 106.679 186.599C106.782 186.606 106.878 186.613 106.981 186.62C107.219 186.635 107.502 186.856 107.47 187.164C107.341 188.388 107.161 189.604 106.82 190.778C106.807 190.827 106.781 190.856 106.762 190.892C108.292 191.644 109.72 192.796 109.051 193.962C109.926 194.62 110.698 195.529 110.222 196.609C110.222 196.624 110.209 196.624 110.209 196.631C110.974 197.347 111.559 198.298 111.829 199.421C111.836 199.45 111.829 199.471 111.829 199.5C112.299 199.901 112.717 200.394 113.045 200.996C113.212 201.311 112.89 201.568 112.652 201.439C112.607 201.418 112.568 201.382 112.536 201.325C110.935 198.871 106.145 197.954 104.525 200.588C104.608 200.831 104.473 201.117 104.248 201.16C104.178 201.346 104.113 201.532 104.075 201.74C106.743 200.087 109.945 199.586 112.626 201.489C112.813 201.625 112.999 201.769 113.18 201.926C116.401 204.702 116.363 209.704 113.051 212.38C110.627 214.341 107.611 214.426 104.859 213.425C105.502 215.572 105.971 217.769 106.48 219.958C106.557 220.287 106.383 220.645 106.081 220.738C94.2946 224.387 81.9167 227.121 69.6415 225.597C64.3687 224.945 59.1733 223.543 54.3186 221.153C53.0842 220.545 51.5151 220.073 50.7111 218.899C50.4602 218.935 50.2162 218.971 49.9653 219.007C49.5601 219.057 49.3545 218.599 49.4058 218.219C48.6407 217.79 47.8303 217.568 46.9173 217.54C46.5574 217.526 46.3001 217.161 46.3899 216.767C46.7498 215.164 46.8592 213.554 46.9622 211.915C44.5831 211.551 42.3131 210.148 40.3905 207.307C37.8182 203.501 37.8892 198.191 42.4738 196.345C42.7054 196.253 42.9303 196.181 43.1619 196.109C43.1876 196.038 43.2196 195.973 43.2906 195.909C44.0172 195.186 44.834 194.714 45.6825 194.449C45.5987 194.349 45.541 194.22 45.541 194.048C45.4769 183.187 42.8533 172.117 44.1326 161.291C43.0333 160.962 41.6121 160.433 41.2261 159.688C40.1135 157.513 42.5315 152.197 43.2709 150.172C46.0039 142.687 50.5372 135.425 56.6007 130.831C59.2691 126.767 62.5034 123.096 65.828 120.155C65.4873 120.048 65.1398 119.941 64.7991 119.819C64.5546 119.733 64.4328 119.54 64.3875 119.325C64.1559 119.418 63.8665 119.282 63.8537 118.918C63.6092 113.423 63.725 107.934 63.3844 102.439C63.0758 97.4012 62.8826 92.2424 61.1724 87.5483C60.0598 87.7628 58.4074 87.076 57.5846 86.9975C55.0059 86.754 52.4533 86.9186 49.8747 87.0047C49.6045 87.1835 49.2382 87.1692 49.0322 86.783C48.312 85.4089 47.7461 83.971 47.3281 82.4828C36.7441 83.327 27.3561 73.8675 21.2473 65.3098C17.4791 60.0222 14.3029 54.2693 10.7472 48.8166C9.49309 46.8988 8.34245 45.3107 6.49041 44.094C5.52571 43.4642 4.47125 43.0281 3.56468 42.2908C1.93148 40.9671 0.934721 39.2068 0.574827 37.0317C0.111924 36.2659 0.709894 35.064 1.51346 35.0569C1.10099 34.4352 0.734684 33.7555 0.76033 32.9612ZM1.26213 37.1116C2.65084 40.4387 4.69565 41.5122 7.44144 43.3154C9.09387 44.3955 10.2193 45.9556 11.3511 47.6442C14.6949 52.617 17.6527 57.9051 21.0541 62.8351C27.5228 72.2085 35.9141 80.702 47.0062 81.16C46.4916 78.7414 46.4018 76.2158 46.7874 73.6896C46.8194 73.4537 46.8579 73.1603 46.9032 72.8525C29.8121 71.4427 18.2442 54.5775 10.6373 39.1649C10.4056 38.6855 10.7596 38.2565 11.1259 38.2346C11.1451 38.1989 11.1707 38.1561 11.2096 38.1271C12.0841 37.29 13.0809 36.245 13.2801 34.8999C13.3959 34.0984 12.7723 33.6119 12.1615 34.1774C11.8657 34.4495 11.6341 34.9432 11.4028 35.2795C11.0105 35.8521 10.6313 36.4315 10.2197 36.9822C10.0013 37.2828 9.62174 37.0826 9.51232 36.7891C9.33237 36.8319 9.11994 36.7535 9.06865 36.5099C8.48992 33.6475 7.41622 31.1932 5.48724 29.2041C4.52895 30.7067 7.64788 35.3793 8.29715 36.3882C8.54163 36.7673 7.97572 37.261 7.69918 36.8962C6.49041 35.2718 5.55777 33.3826 4.89568 31.4078C4.83157 31.2147 4.77344 31.0144 4.72215 30.8213C4.71574 30.8142 4.70933 30.807 4.70292 30.7928C3.59032 30.4279 3.12742 30.7428 3.33344 31.7302C3.41721 32.0879 3.54544 32.4099 3.72582 32.7105C3.925 33.0968 4.18872 33.4473 4.42038 33.8126C5.07606 34.8143 5.78986 35.8017 6.33654 36.8824C6.54854 37.3047 6.02153 37.7908 5.72575 37.4117C4.79353 36.2312 3.96389 34.8428 3.21162 33.512C2.98637 33.1115 2.76795 32.6677 2.6393 32.2097C1.85497 32.038 1.53312 32.4242 1.6746 33.3831C1.77761 33.7051 1.92549 34.0057 2.10544 34.2778C2.38199 34.7215 2.72264 35.1292 3.03125 35.5444C3.69376 36.4315 4.34302 37.3261 4.99912 38.2132C5.37825 38.7354 4.70975 39.487 4.3302 38.9571C3.52664 37.855 2.70982 36.7606 1.92549 35.6443C1.8742 35.6942 1.81607 35.7304 1.73914 35.7375C1.53996 35.766 1.37924 35.9092 1.30188 36.1094C1.22451 36.3168 1.28906 36.4814 1.35317 36.6745C1.40361 36.8467 1.3583 36.997 1.26213 37.1116ZM19.3372 35.4944C17.9549 39.1079 17.7681 42.7503 18.7007 46.4565C20.1476 45.1899 21.6906 44.1882 23.4204 43.4081C23.7867 43.2364 24.1017 43.6512 24.1342 44.0093C24.2821 45.841 24.777 47.2365 25.7481 48.5602C26.385 46.4993 27.1629 44.5891 28.1853 42.6856C28.2819 42.4925 28.4298 42.4136 28.5841 42.3993C27.4587 40.2385 28.5264 36.9109 29.9343 35.2942C30.0438 35.1724 30.1852 35.1653 30.3011 35.23C30.2883 35.1154 30.2754 35.0079 30.2818 34.9008C29.0342 33.9063 27.999 32.6325 27.3176 31.0943C27.118 30.6363 26.8355 30.0065 26.6615 29.3554C26.6487 29.3483 26.6359 29.3482 26.6231 29.3411C24.7971 28.2533 22.9964 27.6811 21.0353 27.6093C21.4854 28.0674 21.9098 28.5397 22.3343 29.0619C22.5724 29.3554 22.495 29.8705 22.1218 29.9637C19.3893 30.6934 17.3184 32.4537 16.0904 35.1586C16.997 34.8652 17.904 34.6935 18.8875 34.6293C19.3239 34.6069 19.4786 35.1296 19.3372 35.4944ZM30.5832 33.9848C30.7695 33.7127 31.014 33.5196 31.2842 33.3907C30.6862 32.2316 30.1716 30.7362 30.2874 29.4553C30.3259 29.0258 30.8597 28.9045 30.9884 29.3549C31.1747 30.0132 31.2004 30.7214 31.3679 31.3868C31.5287 32.0237 31.7407 32.6392 31.9787 33.2399C32.1912 33.2399 32.3968 33.2685 32.6023 33.3545C32.8276 32.0308 33.1619 30.7856 33.5863 29.6051C32.7759 28.825 31.9146 28.2172 30.8661 27.8733C30.0365 27.6012 27.6318 26.9287 27.5677 28.6034C27.5356 29.5766 28.2558 30.836 28.6867 31.6085C29.2073 32.5322 29.8501 33.2903 30.5832 33.9848ZM30.7764 42.9572C31.0012 43.0357 32.0108 43.3149 32.6023 43.2364C32.2745 41.1897 32.1394 39.0936 32.2164 36.9899C31.9334 37.0541 31.6569 37.0113 31.4064 36.8971C31.4769 38.2422 31.5479 39.5588 31.6958 40.911C31.7535 41.4333 30.9563 41.555 30.8661 41.0328C30.6152 39.5944 30.5768 37.9131 30.8469 36.4605C30.6798 36.2674 30.5319 36.0381 30.4353 35.7879C29.5928 37.2691 28.9179 38.9794 29.162 40.7826C29.3035 41.8628 29.8181 42.6209 30.7764 42.9572ZM32.2873 35.9235C32.3322 35.3584 32.3903 34.8 32.4673 34.2564C32.0621 34.0775 31.509 34.1993 31.3226 34.6859C31.2068 34.9865 31.3098 35.3299 31.4898 35.5587C31.7086 35.845 31.9787 35.8664 32.2873 35.9235ZM33.9013 43.0576C33.9077 43.1289 33.8949 43.1865 33.8949 43.2435C34.9109 49.2685 37.6823 54.8211 41.7399 59.0428C41.6822 58.4416 41.695 57.8261 41.7912 57.2183C41.8553 56.8249 42.1639 56.7317 42.4212 56.8392C40.6658 53.9768 38.9941 51.0431 37.3417 48.1093C36.9813 47.4725 37.8879 46.8855 38.2482 47.5224C43.6945 57.2463 49.4173 67.1853 57.8214 73.976C54.2913 68.6664 50.774 63.3502 47.2631 58.0193C44.1254 53.261 39.8558 48.2378 40.1516 41.9412C40.1836 41.3762 40.859 41.1327 41.1291 41.6478C41.9844 43.2364 42.7943 44.846 43.6047 46.4636C43.656 46.4279 43.7142 46.3918 43.7911 46.3847C53.5779 44.6029 62.0786 40.5533 70.2189 34.6426C71.0614 34.0342 71.9034 33.405 72.7394 32.7533C71.7876 31.1219 70.772 29.5766 69.582 28.1382C69.2542 27.7377 69.6658 27.215 70.0838 27.4153C74.4564 29.5618 76.1922 34.5779 77.7549 39.2577C80.0634 46.1839 82.3527 53.1249 84.6352 60.0726C85.349 55.1497 83.2529 50.4057 81.5167 45.9047C79.9412 41.819 78.2887 37.7547 76.8227 33.619C76.6171 33.0463 77.4847 32.6316 77.7228 33.1966C78.1408 34.2055 78.546 35.2214 78.9572 36.245C78.9893 36.2307 79.0277 36.2165 79.0731 36.2093C79.6005 36.1523 80.1403 36.2379 80.6614 36.4096C77.0026 21.1111 63.5121 13.3478 50.4077 16.818C48.9352 17.2114 47.4691 17.7412 46.0223 18.4209C38.3128 22.0344 33.5093 28.4812 33.4645 38.0125C33.4516 39.6439 33.5867 41.254 33.8312 42.8426C33.8624 42.9073 33.8949 42.972 33.9013 43.0576ZM60.8625 201.929C58.5929 205.227 55.6283 207.61 51.4296 208.311C46.8515 209.07 40.6273 207.453 39.9968 201.771C39.5596 206.029 44.2215 210.787 48.0282 210.702C53.262 210.587 57.8535 206.737 60.8625 201.929ZM41.0641 200.276C40.8649 207.231 48.2466 208.025 53.05 206.63C52.9021 206.58 52.7735 206.466 52.7094 206.251C52.0148 203.904 51.1146 201.486 49.475 199.732C47.4883 197.607 43.8424 196.234 41.521 198.595C41.3667 198.752 41.2253 198.91 41.0966 199.081C41.0321 199.332 40.9679 199.582 40.891 199.826C41 199.925 41.071 200.068 41.0641 200.276ZM49.6614 59.6008C50.9022 61.4752 52.137 63.3502 53.3714 65.2247C53.4745 65.1676 53.5899 65.1386 53.7313 65.1605C59.8722 66.2554 66.2507 67.1353 72.0316 63.8225C77.0535 60.9459 79.5099 56.1091 80.3391 50.127C79.6061 47.8872 78.873 45.6474 78.1464 43.4081C76.629 38.7069 75.3365 32.8466 71.7098 29.6127C72.4043 30.6643 73.0215 31.7664 73.5486 32.9973C73.6516 33.219 73.5101 33.4268 73.343 33.4625C65.2988 41.3619 54.5221 46.1992 43.951 47.7302C43.7774 47.7517 43.6424 47.6874 43.5393 47.5728C43.3915 47.6013 43.2307 47.5514 43.1277 47.3654C42.5169 46.3209 41.919 45.2688 41.3274 44.2172C42.1382 49.97 46.7036 55.1359 49.6614 59.6008ZM45.8227 62.9711C46.0736 63.0644 46.3309 63.1143 46.5813 63.1785C45.2632 61.3254 44.0091 59.4076 42.8003 57.4542C42.8003 57.4756 42.8067 57.497 42.8003 57.5255C42.5815 59.107 42.9867 60.7242 44.0476 61.8334C44.5558 62.3628 45.1666 62.7347 45.8227 62.9711ZM50.285 158.295C49.7576 153.437 49.6742 148.592 50.8124 143.77C51.5775 140.507 52.8893 137.294 54.561 134.232C51.404 137.809 48.568 141.587 46.3817 146.096C44.9541 149.036 43.8159 152.142 42.9931 155.355C42.8965 155.734 42.8324 156.078 42.7939 156.392C45.2375 157.286 47.7324 157.923 50.285 158.295ZM50.6128 160.964C50.5359 160.392 50.4649 159.826 50.3944 159.261C47.8029 158.903 45.2696 158.288 42.7811 157.415C42.9354 158.71 43.8356 159.462 45.5525 160.241C47.0763 160.928 48.9476 160.921 50.6128 160.964ZM47.3982 192.291C47.4366 191.01 48.144 190.215 49.0955 189.808C49.0955 189.786 49.0891 189.765 49.0891 189.736C49.2177 188.577 49.7511 187.848 50.4778 187.439C49.8345 184.663 50.4906 181.293 53.1975 180.735C53.1526 180.642 53.1137 180.535 53.1137 180.399C52.953 174.324 51.6669 168.206 50.7731 162.088C48.889 162.253 47.0566 162.117 45.2174 161.594C45.1144 161.566 44.9858 161.53 44.8443 161.494C44.8379 171.948 46.9276 182.344 46.6899 192.778C46.9028 192.57 47.1408 192.405 47.3982 192.291ZM53.5775 198.78C53.931 198.294 54.0853 197.771 54.0853 197.256C54.0853 194.752 50.4714 192.247 48.221 193.056C48.1372 193.249 47.9508 193.314 47.7709 193.27C47.4366 193.485 47.1473 193.785 46.9284 194.201C48.6518 194.079 50.4265 194.759 51.8733 196.082C52.6128 196.755 53.2556 197.75 53.5775 198.78ZM52.2268 201.8C54.175 199.832 51.7186 196.985 50.0341 196.011C48.3881 195.067 46.5749 194.966 45.0187 195.868C48.1376 195.975 50.6389 198.659 52.2268 201.8ZM47.52 216.333C48.4719 216.404 49.372 216.697 50.2076 217.198C50.2012 215.495 51.23 213.048 51.8344 211.331C50.4649 211.839 49.0694 212.082 47.6999 211.989C47.7837 213.442 47.6807 214.894 47.52 216.333ZM51.5002 85.7609C49.0566 81.2675 48.2979 76.0222 49.1404 70.8848C48.8959 71.028 48.671 71.2353 48.4778 71.5074C47.7192 72.5876 47.7961 75.2141 47.7769 76.4731C47.7187 79.8791 48.5612 83.0488 50.0529 85.9968C50.5359 85.8969 51.018 85.8184 51.5002 85.7609ZM54.7734 196.104C57.4867 191.582 49.3912 188.391 48.3688 192.033C49.7063 191.89 51.2882 192.405 52.317 193.077C53.3073 193.722 54.349 194.866 54.7734 196.104ZM52.349 85.6681C53.3458 85.5749 54.349 85.5392 55.3453 85.5606C56.3934 85.5749 57.4354 85.6396 58.4766 85.7609C58.8626 85.8037 59.9555 86.1328 60.6629 86.2189C60.4505 85.5249 61.2673 85.0312 61.6661 85.6681C64.09 89.5607 64.1161 95.149 64.4632 99.6999C64.9325 105.889 65.28 112.301 64.7013 118.504C64.8171 118.433 64.9586 118.412 65.1321 118.469C65.8006 118.697 66.4759 118.898 67.1513 119.07C67.209 119.063 67.2607 119.077 67.3056 119.113C69.8197 119.757 72.3727 120.05 74.9766 120.064C74.6423 118.519 74.4624 116.902 74.2949 115.385C74.179 115.707 74.0375 116.029 73.8576 116.372C73.6003 116.866 72.8608 116.787 72.7322 116.207C71.2725 109.538 70.5651 102.777 70.5587 95.9291C69.8257 96.301 69.099 96.5802 68.2566 96.8019C67.8257 96.9165 67.3949 96.487 67.53 95.9933C68.7516 91.3924 70.9314 87.4142 74.0179 84.1584C73.3943 84.2012 72.7638 84.2369 72.1338 84.2802C71.6901 84.3087 71.4264 83.7151 71.6388 83.3142C72.7771 81.1105 74.0628 79.0567 75.4904 77.139C73.9986 78.1121 72.2432 78.5916 70.3655 78.4056C66.5973 78.0408 63.1894 75.05 62.8873 70.8211C61.0288 71.1431 59.1255 71.2073 57.2542 71.1074C58.354 72.7745 59.4533 74.4345 60.5462 76.1021C60.8677 76.5958 60.2505 77.2255 59.8132 76.9178C57.2217 75.1075 54.8815 73.018 52.7145 70.7354C52.0007 70.6641 51.1711 70.4924 50.3931 70.5352C50.3931 70.5709 50.3996 70.5923 50.3931 70.6208C49.5379 75.8586 50.2517 80.8171 52.3349 85.5972C52.3426 85.6177 52.3426 85.6396 52.349 85.6681ZM55.9629 193.457C57.9432 191.997 55.397 189.435 54.0917 188.656C52.5679 187.747 51.1275 188.084 50.1628 189.5C51.2882 189.343 52.529 189.557 53.3907 190.044C54.5289 190.68 55.5834 192.033 55.9629 193.457ZM51.8669 187.046C51.7254 186.166 51.5775 185.257 51.5391 184.384C51.5327 184.334 51.5327 184.284 51.5327 184.241C51.2818 185.042 51.2497 186.015 51.4814 187.096C51.6096 187.074 51.7383 187.053 51.8669 187.046ZM54.3297 180.67C56.2395 180.821 57.744 182.245 59.3644 183.246C60.5219 183.962 62.0136 184.227 63.351 184.756C63.4668 178.624 63.6724 172.492 63.8396 166.36C63.9939 160.729 63.9554 154.961 65.5117 149.537C67.8779 141.294 73.5169 133.681 79.7992 128.522C79.8377 128.472 79.8698 128.414 79.9151 128.371C79.9664 128.321 80.0309 128.3 80.0886 128.285C80.2173 128.178 80.3459 128.071 80.4746 127.97C80.2173 126.682 80.1852 125.266 80.2109 124.106C79.7223 124.665 79.2786 125.258 78.8991 125.952C78.7576 126.217 78.3913 126.368 78.1532 126.174C76.6166 124.922 75.7485 123.068 75.2083 121.022C72.3663 121.394 69.5756 121.158 66.8298 120.435C60.9078 128.514 53.5839 134.989 51.687 145.858C49.6678 157.379 54.0788 168.899 54.3682 180.397C54.3746 180.506 54.3554 180.591 54.3297 180.67ZM61.0686 222.343C66.5665 224.061 72.2953 224.705 77.9989 224.597C81.2717 224.533 84.5317 224.218 87.7725 223.717C90.4473 223.31 93.1093 222.78 95.7585 222.158C98.3047 221.571 101.681 221.292 104.015 220.011C105.429 219.238 105.082 218.523 104.78 217.063C99.5395 220.04 93.7073 222.007 87.6823 222.952C75.5938 224.834 62.759 222.58 52.4709 216.012C52.2264 215.854 52.1623 215.618 52.2007 215.396C52.2713 215.031 52.638 214.724 53.0432 214.931C61.4729 219.26 69.9287 222.007 79.291 222.165C88.126 222.308 96.5428 220.111 104.652 216.362C104.472 215.296 104.304 214.236 104.189 213.156C102.562 212.448 101.051 211.367 99.861 210.079C95.617 205.471 92.8648 198.845 91.3859 192.541C91.3603 192.419 91.3667 192.32 91.3859 192.226C91.0773 191.862 90.8393 191.418 90.717 190.924C90.5242 190.137 90.5371 188.935 91.1543 188.377C91.1607 188.37 91.1671 188.37 91.1671 188.37C91.1671 188.312 91.1607 188.262 91.1735 188.205C93.2055 178.86 93.2696 169.744 93.2568 160.199C93.2568 154.875 93.2183 149.688 92.8969 144.507C85.9333 148.206 76.8282 145.237 73.658 137.187C70.398 141.33 67.6266 145.824 66.302 151.534C64.9902 157.201 65.1894 163.276 65.0351 169.086C64.8872 174.517 64.7778 179.948 64.5786 185.379C64.9128 185.601 65.215 185.851 65.4852 186.166C66.6362 187.518 66.3853 189.322 66.3725 191.053C66.3661 192.406 66.6875 194.831 65.3116 195.633C65.0223 195.805 64.7457 195.854 64.4692 195.826C64.4692 195.84 64.4756 195.854 64.4692 195.876C63.254 201.693 58.5472 208.04 53.236 210.716C53.236 210.773 53.236 210.824 53.2231 210.888C52.8632 212.333 52.2845 213.872 52.0272 215.36C52.0015 215.482 51.9823 215.603 51.9631 215.725C51.6929 217.657 51.6801 217.779 52.9406 218.873C55.0564 220.704 58.5027 221.542 61.0686 222.343ZM55.4099 188.155C55.9176 188.57 56.4771 189.114 56.9336 189.743C57.3388 188.52 57.6987 187.289 57.8081 185.98C57.8466 185.522 58.0073 184.541 57.821 184.12C57.8017 183.647 57.5957 183.511 57.1973 183.719C56.9657 183.748 56.7344 183.769 56.4964 183.798C55.9561 183.855 55.4163 183.912 54.8696 183.969C54.355 184.019 53.4745 183.926 53.0111 184.162C52.2909 184.527 52.6512 186.066 52.8312 187.075C53.7831 187.203 54.7285 187.604 55.4099 188.155ZM53.6544 206.436C53.8925 206.358 54.1237 206.272 54.349 206.179C58.9143 204.261 61.1391 199.782 63.4156 195.338C63.2933 195.245 63.1839 195.145 63.0745 195.038C61.2421 193.292 59.8337 191.067 57.9885 189.263C57.8599 189.578 57.7248 189.886 57.5641 190.179C57.5064 190.287 57.4162 190.337 57.3196 190.358C57.5897 190.859 57.7697 191.403 57.7825 191.968C57.8081 193.084 57.1328 194.208 56.0916 194.143C56.1946 195.181 55.8988 196.19 54.9534 196.941C55.0307 197.771 54.7606 198.608 53.9438 199.31C53.8604 199.374 53.7831 199.381 53.7189 199.359C53.9438 200.561 53.6805 201.75 52.5807 202.536C53.0889 203.667 53.4809 204.826 53.7446 205.935C53.7895 206.143 53.7446 206.315 53.6544 206.436ZM56.3938 182.631C54.5097 181.665 52.9603 182.022 52.0857 183.153C52.6196 182.881 53.3847 182.946 53.9378 182.889C54.7606 182.802 55.577 182.716 56.3938 182.631ZM57.0366 69.826C59.043 69.9264 61.0168 69.8046 62.9975 69.6115C63.2159 69.318 63.6468 69.2824 63.8913 69.5259C64.4187 69.4688 64.9393 69.4184 65.4668 69.3613C65.3381 68.7173 65.2548 68.0662 65.2031 67.4364C61.5635 67.9016 57.7761 67.5078 54.2977 66.6278C55.0564 67.7798 55.8151 68.9318 56.5806 70.0838C56.6639 69.9335 56.8118 69.8189 57.0366 69.826ZM62.6116 15.4449C62.6953 15.3302 62.7915 15.2161 62.8881 15.1086C62.5475 14.6434 62.1743 14.2215 61.737 13.8634C61.216 13.4415 60.6313 13.198 60.0718 12.8617C59.6991 12.64 59.9624 12.0531 60.3419 12.1392C61.5763 12.4184 62.6505 13.52 63.3574 14.6867C63.5181 14.5649 63.6917 14.4436 63.8656 14.3576C63.2612 12.6258 62.3354 11.0015 60.8112 10.1073C59.5892 9.39189 58.2971 9.65635 57.6927 11.1161C57.217 12.2609 57.5384 13.6132 57.7957 14.7794C59.4157 14.8584 61.0361 15.0729 62.6116 15.4449ZM58.2518 188.555C59.885 189.543 61.2806 190.831 62.4893 192.412C63.2416 193.393 63.8524 195.31 65.2607 192.92C65.9357 191.768 65.0936 188.785 64.6243 187.797C63.6276 185.708 62.4124 186.03 60.6185 185.286C59.9884 185.028 59.4354 184.692 58.8502 184.32C58.8566 184.413 58.8566 184.491 58.8566 184.585C58.8694 185.929 58.6698 187.289 58.2518 188.555ZM61.525 8.89057C61.5956 9.01233 61.5956 9.13409 61.5635 9.23398C63.0877 10.2642 64.1935 12.2462 64.4957 14.1283C64.9906 14.0208 65.5052 14.0926 65.9617 14.4574C66.0904 14.5578 66.1998 14.6791 66.3088 14.8151C67.8134 13.4986 69.8582 12.3537 71.723 12.9549C71.7679 12.9192 71.8196 12.8836 71.8837 12.8545C73.9734 12.1102 76.0695 11.6241 78.2302 11.3449C77.6194 10.6866 76.8671 10.2143 75.9605 9.94934C75.5682 9.80617 75.3946 9.09795 75.8383 8.86869C77.819 7.83846 79.8185 7.20871 81.9274 6.93665C79.5932 5.51972 77.1048 4.84003 74.3397 4.90472C73.9863 4.91185 73.761 4.52563 73.8384 4.16748C74.3786 1.50581 75.4139 -0.705436 77.0086 -2.64461C73.9478 -2.3012 71.2409 -0.977501 68.8811 1.36977C68.643 1.60569 68.2767 1.57715 68.1096 1.25515C67.0166 -0.776781 66.3477 -2.8734 66.0455 -5.16312C63.9558 -2.35828 62.6312 0.82612 62.0268 4.45381C61.9691 4.80436 61.5704 4.93326 61.3195 4.77582C60.8437 4.47522 60.3676 4.16748 59.8918 3.85974C60.0526 5.70665 60.5732 7.23059 61.525 8.89057ZM65.981 16.468C65.9489 15.9957 65.7685 15.559 65.3441 15.3088C64.7718 14.9797 64.2384 15.3374 63.7494 15.7312C64.5085 15.9457 65.2543 16.1892 65.981 16.468ZM72.2761 77.0814C75.266 76.6662 77.433 74.62 78.8089 71.7148C78.3268 71.5217 77.8314 71.3642 77.3044 71.2496C77.2723 71.2425 77.2402 71.2211 77.2078 71.2068C76.8026 72.9529 75.5682 74.0259 73.8965 74.5196C71.8773 75.128 69.4919 75.235 67.7364 73.7829C66.6435 72.8811 66.013 71.5578 65.6403 70.1338C65.1257 70.3126 64.6051 70.4486 64.084 70.5775C64.3285 75.0566 68.5336 77.5894 72.2761 77.0814ZM70.9195 15.9314C71.4661 16.1602 71.2537 17.1048 70.675 16.926C69.3504 16.5184 68.1737 16.468 66.8298 16.7044C66.8234 16.74 66.8234 16.7686 66.817 16.8047C68.8362 17.6561 70.7395 18.7796 72.4689 20.1389C73.1378 18.2212 73.7678 15.345 71.8837 14.2572C70.1219 13.2412 68.2442 14.6434 66.6943 15.5024C66.7264 15.5956 66.7525 15.6955 66.7781 15.7888C68.1027 15.3378 69.6269 15.4092 70.9195 15.9314ZM76.1469 68.9456C75.8062 67.2 74.597 65.7398 73.6135 64.3876C73.5687 64.4233 73.5169 64.4594 73.4721 64.4879C71.2858 65.9334 68.8486 66.8133 66.3216 67.2642C66.8491 71.164 68.2959 74.1833 72.3851 73.5679C74.6231 73.2321 76.7128 71.8151 76.1469 68.9456ZM74.5073 136.207C77.7032 144.263 85.8499 146.532 92.8332 143.541C92.7815 142.804 92.7302 142.067 92.6661 141.323C89.6181 143.398 85.876 143.841 82.4873 142.382C80.1083 141.352 75.8772 137.995 75.7036 134.69C75.292 135.176 74.8868 135.67 74.4821 136.164C74.488 136.178 74.5009 136.192 74.5073 136.207ZM78.8478 62.2054C80.1339 60.8098 81.1499 59.2359 82.1462 57.5831C82.2877 57.3543 82.4805 57.2825 82.6673 57.2968C82.1334 55.6439 81.5936 53.9911 81.0533 52.3382C80.7896 57.0466 77.7416 61.3468 74.2504 63.9443C74.6941 64.3809 75.1313 64.8528 75.5301 65.3541C76.6359 64.2948 77.7993 63.3359 78.8478 62.2054ZM77.3557 69.9692C77.8703 69.5183 78.3845 69.1249 78.9055 68.7815C78.7704 68.3235 78.6418 67.8654 78.4105 67.4221C78.0507 66.7639 77.5809 66.2273 77.0214 65.7764C76.9312 65.7051 76.8863 65.6119 76.8671 65.5186C76.5842 65.6903 76.3012 65.8549 76.0118 65.9981C76.803 67.1496 77.3621 68.4667 77.3557 69.9692ZM79.2915 138.496C80.3716 139.692 81.6256 140.557 83.0276 141.165C86.2876 142.582 89.5604 142.002 92.5763 140.321C92.3318 137.824 92.0168 135.326 91.5732 132.808C91.2966 132.829 91.0265 132.85 90.7499 132.858C90.3964 132.879 90.0682 132.436 90.1968 132.049L90.3768 130.797C87.8691 131.533 83.7089 132.485 81.8505 130.818C81.3363 130.36 80.976 129.695 80.7319 128.936C80.5968 129.093 80.4554 129.251 80.3203 129.401C80.2818 129.967 80.4169 130.675 80.3588 131.14C80.2558 131.892 80.0053 132.593 79.5419 133.158C78.944 133.873 77.8767 134.367 76.9958 134.081C77.015 134.317 76.9381 134.568 76.7641 134.711C76.7641 134.811 79.0406 138.224 79.2915 138.496ZM79.3748 130.997C79.4197 130.811 79.4389 130.611 79.4453 130.41C78.7187 131.233 77.9985 132.049 77.2783 132.872C78.346 132.937 79.0855 132.271 79.3748 130.997ZM83.6636 66.8495C85.8563 66.3415 86.1649 64.2592 88.0426 62.8998C88.4025 62.642 88.7949 62.9859 88.8269 63.4006C88.9107 64.5312 88.9812 65.6689 89.0518 66.8067C89.6305 66.3058 90.2157 65.8906 90.8008 65.5401C90.7298 65.4901 90.6657 65.4183 90.6401 65.3184C89.56 61.7192 88.1003 58.8426 85.6952 56.2023C85.9136 58.1558 85.8238 60.1449 85.2323 62.1697C85.0716 62.7205 84.4223 62.6919 84.2548 62.1697C83.8431 60.9245 83.4448 59.6797 83.0396 58.4274C81.7663 60.9387 79.7732 63.5148 77.4582 65.1248C78.4614 65.7546 79.4582 66.9422 79.8052 68.2517C80.9888 67.6148 82.2429 67.1858 83.6636 66.8495ZM79.8313 72.1871C79.7091 72.1158 79.5868 72.0582 79.465 72.0011C79.4586 72.0083 79.4586 72.0154 79.4586 72.0225C79.3363 72.3517 79.1949 72.6737 79.0406 72.9814C79.3043 72.7165 79.5612 72.4449 79.8313 72.1871ZM82.6284 39.7947C81.9663 38.2779 80.7122 37.7123 79.3684 37.2833C80.2429 39.5012 81.0918 41.7267 81.9274 43.9594C82.8472 42.8145 83.2653 41.2687 82.6284 39.7947ZM91.3864 65.2038C91.3864 65.2109 91.3864 65.2109 91.3864 65.2109C91.5924 65.1034 91.798 65.0035 92.01 64.9103C92.1963 60.4954 89.8878 57.3329 87.3801 54.2346C87.0266 54.5566 86.6663 54.8643 86.3 55.165C88.962 57.6259 90.9555 61.3825 91.3864 65.2038ZM92.1643 191.804C92.2673 191.847 92.3506 191.926 92.4088 192.047C92.4729 192.097 92.531 192.155 92.6015 192.205C92.6657 192.241 92.7046 192.298 92.7366 192.348C95.2956 192.584 97.617 192.534 100.138 191.883C99.9319 190.809 99.8097 189.722 99.8161 188.613C99.8225 187.955 99.7392 186.917 100.298 186.466C100.974 185.916 102.324 186.33 103.082 186.38C103.963 186.43 104.844 186.488 105.732 186.538C106.175 183.697 99.1728 185.543 98.2534 185.736C96.4078 186.122 94.2155 186.345 92.5434 187.389C92.4468 187.775 92.3571 188.155 92.2605 188.534C92.1959 188.77 92.0549 188.892 91.8937 188.942C91.7587 189.536 91.5274 189.987 91.6364 190.638C91.7142 191.088 91.8942 191.482 92.1643 191.804ZM94.6848 64.1374C94.5818 63.8943 94.6015 63.5866 94.8584 63.393C100.632 59.0571 104.832 52.8029 107.423 45.6403C110.059 38.3702 110.432 30.9288 111.641 23.3438C111.506 23.1792 111.467 22.9219 111.628 22.7426C113.274 20.9466 116.637 15.1148 113.075 13.3977C113.255 15.2798 113.004 17.3688 112.869 19.0145C112.824 19.5725 112.059 19.5943 112.072 19.0145C112.129 16.8965 112.965 9.69107 109.68 10.2205C110.895 12.4888 110.837 16.0161 110.509 18.3562C110.438 18.8642 109.635 18.7496 109.693 18.2345C109.879 16.6244 109.879 15.0144 109.583 13.4191C109.377 12.3456 108.503 8.33169 106.812 10.2495C106.793 10.278 106.767 10.2923 106.735 10.2994C106.767 10.3208 106.799 10.3422 106.825 10.385C108.31 12.7033 108.568 15.7231 108.413 18.4994C108.381 19.1006 107.61 19.1006 107.577 18.4994C107.417 15.8377 107.5 13.276 106.413 10.8217C106.401 10.8288 106.394 10.8431 106.375 10.8502C104.26 11.4871 106.651 17.297 107.05 18.5351C107.134 18.7857 106.928 18.9717 106.729 18.9717C106.69 19.0217 106.639 19.0649 106.562 19.0721C106.51 19.0721 106.465 19.0935 106.427 19.1149C106.375 19.3365 106.176 19.5296 105.938 19.4868C104.961 19.3223 104.035 19.0502 103.038 19.0502C102.774 19.0502 101.643 18.9789 101.488 19.2148C101.218 19.6224 101.925 20.1665 102.144 20.3097C103.398 21.104 104.941 20.8895 106.317 20.8533C106.472 20.8462 106.581 20.9466 106.639 21.0821C106.793 21.1682 106.928 21.3328 106.947 21.5758C108.285 34.9208 101.463 50.2763 90.5631 56.4225C92.1451 58.7907 93.3153 61.4458 93.1675 64.4722C93.6752 64.3234 94.177 64.2163 94.6848 64.1374ZM99.6297 202.401C99.9772 202.952 100.376 203.517 100.819 204.083C100.883 203.996 100.98 203.939 101.115 203.954C101.212 203.961 101.276 204.011 101.314 204.083C101.333 204.047 101.346 204.018 101.372 203.989C101.906 203.402 102.51 202.859 103.147 202.372C103.115 201.728 103.231 201.156 103.449 200.669C102.973 200.175 102.767 199.574 102.761 198.951C101.584 198.443 101.147 197.184 101.282 195.911C101.179 195.896 101.076 195.839 100.999 195.718C100.356 194.759 100.26 193.757 100.517 192.863C100.472 192.841 100.44 192.806 100.401 192.77C98.3628 193.564 96.0611 193.921 93.8813 193.649C96.177 196.226 97.752 199.374 99.6297 202.401ZM110.362 212.325C112.561 211.603 114.046 209.721 114.22 207.56C112.065 210.995 107.738 211.324 104.401 209.27C99.1279 206.021 97.1605 199.131 93.1093 194.451C95.0127 200.905 98.2534 208.525 103.713 211.523C105.674 212.597 108.24 213.02 110.362 212.325ZM101.115 191.668C101.816 190.73 102.928 190.086 104.098 190.058C104.484 190.044 105.269 190.251 106.105 190.594C106.111 190.58 106.105 190.573 106.105 190.559C106.253 189.593 106.381 188.641 106.452 187.675C105.005 187.589 103.558 187.503 102.105 187.41C101.912 187.403 101.295 187.245 101.134 187.353C100.722 187.625 100.806 188.448 100.806 188.884C100.819 189.829 100.935 190.752 101.115 191.668ZM103.269 192.784C104.813 192.004 106.51 192.369 107.957 193.235C108.137 193.343 108.356 193.471 108.574 193.621C108.51 192.097 105.198 190.938 104.311 190.931C102.382 190.903 100.536 192.835 101.52 194.895C101.842 194 102.44 193.206 103.269 192.784ZM114.175 206.3C114.072 205.635 113.847 204.962 113.48 204.297C110.748 199.403 105.037 202.279 101.784 204.591C101.739 204.626 101.693 204.64 101.648 204.64C101.597 204.719 101.552 204.784 101.507 204.826C101.488 204.834 101.469 204.848 101.449 204.855C105.031 209.013 110.78 212.44 114.175 206.3ZM105.173 195.446C106.787 194.888 108.529 195.281 109.854 196.326C109.777 194.251 105.957 193.034 104.594 193.292C103.52 193.492 102.543 194.115 102.202 195.309C101.906 196.333 102.228 197.291 102.935 197.857C103.295 196.777 104.15 195.796 105.173 195.446ZM103.655 199.16C103.706 199.41 103.796 199.646 103.944 199.868C104.767 198.86 106.118 198.315 107.436 198.179C108.716 198.043 110.008 198.308 111.095 198.959C110.362 197.349 108.928 196.298 107.294 196.083C106.33 195.954 105.275 196.104 104.491 196.784C104.054 197.163 103.751 197.693 103.642 198.244C103.648 198.244 103.655 198.244 103.661 198.251C104.066 198.38 104.041 199.095 103.655 199.16Z" fill="#222221"/>
<path d="M1.30062 36.1099C1.22325 36.3173 1.28779 36.4818 1.35191 36.675C1.4032 36.8467 1.35832 36.997 1.26172 37.1116C2.65043 40.4387 4.69524 41.5122 7.44103 43.3153C9.09346 44.3955 10.2189 45.9556 11.3507 47.6441C14.6945 52.6169 17.6523 57.9051 21.0537 62.8351C27.5224 72.2085 35.9137 80.7019 47.0058 81.16C46.4912 78.7414 46.4014 76.2157 46.787 73.6896C46.819 73.4537 46.8575 73.1602 46.9028 72.8525C29.8117 71.4427 18.2438 54.5775 10.6369 39.1649C10.4052 38.6855 10.7591 38.2565 11.1254 38.2346C11.1447 38.1989 11.1703 38.1561 11.2092 38.1271C12.0837 37.29 13.0805 36.245 13.2797 34.8999C13.3955 34.0984 12.7719 33.6118 12.1611 34.1774C11.8653 34.4494 11.6337 34.9432 11.4024 35.2794C11.01 35.8521 10.6309 36.4314 10.2193 36.9822C10.0009 37.2828 9.62134 37.0826 9.51191 36.7891C9.33197 36.8319 9.11954 36.7534 9.06824 36.5099C8.48951 33.6475 7.41581 31.1932 5.48684 29.2041C4.52854 30.7066 7.64748 35.3793 8.29674 36.3881C8.54123 36.7672 7.97532 37.2609 7.69877 36.8961C6.49001 35.2718 5.55736 33.3826 4.89527 31.4077C4.83116 31.2146 4.77303 31.0144 4.72174 30.8213C4.71533 30.8141 4.70892 30.807 4.70251 30.7927C3.58991 30.4279 3.12701 30.7428 3.33303 31.7302C3.41681 32.0879 3.54503 32.4099 3.72541 32.7105C3.92459 33.0967 4.18831 33.4473 4.41998 33.8126C5.07565 34.8143 5.78945 35.8017 6.33613 36.8823C6.54814 37.3047 6.02112 37.7908 5.72534 37.4117C4.79312 36.2312 3.96349 34.8428 3.21122 33.512C2.98596 33.1115 2.76754 32.6677 2.63889 32.2097C1.85456 32.038 1.53271 32.4242 1.67419 33.3831C1.7772 33.7051 1.92509 34.0057 2.10503 34.2777C2.38158 34.7215 2.72224 35.1291 3.03084 35.5444C3.69335 36.4314 4.34261 37.3261 4.99871 38.2132C5.37784 38.7354 4.70935 39.4869 4.32979 38.9571C3.52623 37.855 2.70941 36.7606 1.92509 35.6442C1.87379 35.6942 1.81567 35.7303 1.73873 35.7375C1.53827 35.7665 1.37755 35.9092 1.30062 36.1099Z" fill="#ECD8BE"/>
<path d="M16.0895 35.1582C16.9961 34.8648 17.9031 34.6931 18.8866 34.6288C19.3239 34.6074 19.4782 35.1297 19.3367 35.4945C17.9544 39.1079 17.7676 42.7504 18.7003 46.4565C20.1471 45.1899 21.6901 44.1882 23.4199 43.4082C23.7862 43.2365 24.1012 43.6512 24.1337 44.0094C24.2816 45.8411 24.7766 47.2366 25.7477 48.5603C26.3845 46.4994 27.1625 44.5892 28.1849 42.6857C28.2815 42.4926 28.4293 42.4136 28.5836 42.3994C27.4582 40.2385 28.526 36.911 29.9339 35.2943C30.0433 35.1725 30.1848 35.1654 30.3006 35.2301C30.2878 35.1154 30.275 35.0079 30.2814 34.9009C29.0337 33.9064 27.9985 32.6326 27.3172 31.0944C27.1176 30.6363 26.835 30.0066 26.6611 29.3554C26.6483 29.3483 26.6354 29.3483 26.6226 29.3412C24.7966 28.2534 22.9959 27.6812 21.0349 27.6094C21.4849 28.0674 21.9094 28.5397 22.3338 29.062C22.5719 29.3554 22.4945 29.8706 22.1214 29.9638C19.3884 30.6934 17.318 32.4533 16.0895 35.1582Z" fill="#9A743C"/>
<path d="M27.5677 28.6038C27.5356 29.577 28.2558 30.8365 28.6867 31.6089C29.2073 32.5321 29.8506 33.2903 30.5836 33.9842C30.77 33.7122 31.0145 33.5191 31.2846 33.3902C30.6866 32.231 30.172 30.7356 30.2878 29.4547C30.3263 29.0252 30.8602 28.9039 30.9888 29.3544C31.1752 30.0127 31.2008 30.7209 31.3684 31.3863C31.5291 32.0232 31.7411 32.6387 31.9792 33.2394C32.1916 33.2394 32.3972 33.2679 32.6028 33.354C32.828 32.0303 33.1623 30.7851 33.5867 29.6046C32.7763 28.8245 31.915 28.2166 30.8666 27.8728C30.0365 27.6021 27.6318 26.9296 27.5677 28.6038Z" fill="#EF7C8A"/>
<path d="M30.4353 35.7878C29.5928 37.269 28.9179 38.9794 29.162 40.7825C29.3035 41.8627 29.8181 42.6213 30.7759 42.9576C31.0008 43.0361 32.0104 43.3153 32.6019 43.2368C32.2741 41.1901 32.139 39.094 32.2159 36.9903C31.933 37.0545 31.6564 37.0117 31.406 36.8975C31.4765 38.2426 31.5474 39.5592 31.6953 40.9114C31.753 41.4337 30.9559 41.5554 30.8657 41.0332C30.6148 39.5949 30.5763 37.9135 30.8465 36.4609C30.6798 36.2673 30.5319 36.038 30.4353 35.7878Z" fill="#EF7C8A"/>
<path d="M31.3226 34.6859C31.2068 34.9865 31.3098 35.3299 31.4898 35.5587C31.7082 35.845 31.9783 35.8664 32.2869 35.9235C32.3318 35.3585 32.3899 34.8001 32.4669 34.2564C32.0621 34.0776 31.509 34.1993 31.3226 34.6859Z" fill="#EF7C8A"/>
<path d="M46.0218 18.4217C47.4687 17.7421 48.9347 17.2127 50.4072 16.8188L50.6453 17.8995C50.4072 18.0355 50.3752 18.5364 50.7094 18.6724C57.8727 21.7065 63.6917 26.7654 68.251 33.6056C68.3344 33.7345 68.4955 33.6845 68.5468 33.5842L70.2185 34.6434C62.0781 40.5537 53.5775 44.6037 43.7907 46.3855C43.7137 46.3926 43.6556 46.4283 43.6043 46.4644C42.7943 44.8473 41.9839 43.2372 41.1287 41.6486C40.8585 41.1335 40.1832 41.3765 40.1511 41.9421C39.8553 48.239 44.1249 53.2618 47.2627 58.0201C50.7735 63.351 54.2908 68.6672 57.821 73.9768C49.4169 67.1861 43.6941 57.2476 38.2478 47.5232C37.8879 46.8863 36.9809 47.4733 37.3412 48.1101C38.9937 51.0439 40.6653 53.9776 42.4208 56.84C42.1635 56.7325 41.8548 56.8257 41.7907 57.2191C41.6941 57.8274 41.6813 58.4424 41.7394 59.0436C37.6819 54.8219 34.9104 49.2693 33.8945 43.2444C33.8945 43.1873 33.9073 43.1297 33.9009 43.0584C33.8944 42.9723 33.8624 42.9081 33.8303 42.8439C33.5859 41.2552 33.4508 39.6457 33.4636 38.0138C33.5089 28.482 38.3123 22.0352 46.0218 18.4217ZM48.7933 42.9214C49.0053 43.1792 49.3143 42.8073 49.1275 42.5495C45.7581 37.9486 43.8612 32.7465 43.4111 26.8363C43.3662 26.2855 42.6007 26.2783 42.6332 26.8363C42.9546 32.8754 45.096 38.4994 48.7933 42.9214Z" fill="#9A743C"/>
<path d="M39.9969 201.771C39.5596 206.029 44.2216 210.787 48.0282 210.702C53.2621 210.587 57.8535 206.738 60.8626 201.929C58.5929 205.227 55.6283 207.61 51.4297 208.312C46.8515 209.07 40.6273 207.453 39.9969 201.771Z" fill="white"/>
<path d="M41.0966 199.081C41.0321 199.332 40.968 199.582 40.8911 199.825C41.0005 199.926 41.071 200.068 41.0646 200.276C40.8654 207.231 48.2471 208.025 53.0505 206.63C52.9026 206.58 52.7739 206.466 52.7098 206.251C52.0153 203.904 51.1151 201.486 49.4755 199.732C47.4888 197.607 43.8429 196.234 41.5215 198.595C41.3664 198.752 41.2253 198.909 41.0966 199.081Z" fill="white"/>
<path d="M43.5398 47.5727C43.6428 47.6873 43.7779 47.7515 43.9514 47.7301C54.5226 46.199 65.2993 41.3618 73.3434 33.4624C73.5106 33.4267 73.6521 33.2188 73.549 32.9972C73.0216 31.7662 72.4044 30.6647 71.7102 29.6125C75.337 32.8469 76.6291 38.7072 78.1469 43.408C78.8735 45.6477 79.6065 47.8871 80.3396 50.1268C79.5104 56.1085 77.0539 60.9457 72.0321 63.8224C66.2516 67.1352 59.8727 66.2553 53.7318 65.1603C53.5903 65.1389 53.4745 65.1675 53.3719 65.2245C52.1371 63.3501 50.9027 61.4751 49.6619 59.6006C46.7041 55.1358 42.1387 49.9694 41.3283 44.2166C41.9199 45.2682 42.5178 46.3203 43.1286 47.3648C43.2312 47.5513 43.3919 47.6012 43.5398 47.5727ZM53.3907 58.1841C52.9406 56.5456 52.9983 53.2756 55.1975 53.4972C56.5349 53.6332 57.4803 54.6349 58.7019 55.0497C58.9139 55.1215 59.0426 54.8566 58.9657 54.6635C58.2647 52.9678 55.3714 51.6941 53.8152 52.4313C51.8734 53.3474 51.6737 56.6317 52.2589 58.5276C52.5034 59.3219 53.616 58.9927 53.3907 58.1841ZM76.5714 54.585C76.6551 54.0699 76.0183 53.8692 75.8704 54.3705C73.5555 62.091 66.3926 63.6226 59.9624 62.1771C59.1781 62.0054 58.8434 63.3363 59.6282 63.5151C66.264 64.9815 75.0796 63.3358 76.5714 54.585ZM65.351 55.6509C65.4796 56.1589 65.9874 56.216 66.3157 55.9301C67.1064 55.2504 68.1417 55.3075 68.6627 56.2236C69.2094 57.1753 68.4182 58.0909 67.5569 58.1271C67.0103 58.1485 66.8496 59.1074 67.4219 59.222C69.1517 59.5725 70.5276 57.7266 69.8526 55.8806C69.203 54.1274 67.5698 53.8701 66.2323 54.5427C65.7246 52.9973 64.9719 51.6018 63.8982 50.4355C63.6024 50.1206 63.0749 50.543 63.313 50.9364C64.2192 52.4094 64.9266 53.9196 65.351 55.6509ZM70.9836 48.8321C70.3147 47.3082 70.3408 45.2116 71.9676 44.4744C73.3755 43.8303 74.7582 45.3115 75.8447 46.1201C76.1598 46.3488 76.6098 45.8765 76.3786 45.526C75.2083 43.7442 72.9126 42.256 71.0157 43.5654C69.1572 44.8606 69.0093 47.4937 69.9676 49.49C70.328 50.2415 71.3115 49.5832 70.9836 48.8321Z" fill="#ECD8BE"/>
<path d="M43.4111 26.8364C43.3662 26.2856 42.6007 26.2785 42.6332 26.8364C42.9546 32.8756 45.096 38.4996 48.7933 42.9216C49.0053 43.1794 49.3143 42.8074 49.1275 42.5496C45.7581 37.9488 43.8612 32.7467 43.4111 26.8364Z" fill="#222221"/>
<path d="M42.8003 57.5259C42.5815 59.1074 42.9867 60.7246 44.0475 61.8338C44.5553 62.3632 45.1665 62.7351 45.8222 62.9715C46.0731 63.0647 46.3304 63.1147 46.5809 63.1789C45.2627 61.3258 44.0086 59.408 42.7999 57.4546C42.8003 57.4755 42.8067 57.4974 42.8003 57.5259Z" fill="#ECD8BE"/>
<path d="M44.8451 161.493C44.8387 171.947 46.9284 182.344 46.6907 192.777C46.9027 192.57 47.1408 192.405 47.3981 192.291C47.4366 191.01 48.144 190.215 49.0954 189.808C49.0954 189.786 49.089 189.765 49.089 189.736C49.2177 188.577 49.7511 187.848 50.4777 187.439C49.8345 184.663 50.4906 181.293 53.1975 180.735C53.1526 180.642 53.1137 180.535 53.1137 180.399C52.953 174.324 51.6668 168.206 50.7731 162.088C48.889 162.253 47.0566 162.116 45.2174 161.594C45.1152 161.565 44.9866 161.53 44.8451 161.493Z" fill="#ECD8BE"/>
<path d="M46.9285 194.201C48.6519 194.08 50.4265 194.759 51.8734 196.083C52.6128 196.756 53.2561 197.75 53.5775 198.781C53.931 198.294 54.0853 197.772 54.0853 197.257C54.0853 194.753 50.4714 192.248 48.221 193.057C48.1372 193.25 47.9509 193.314 47.7709 193.271C47.4367 193.486 47.1473 193.786 46.9285 194.201Z" fill="white"/>
<path d="M50.0342 196.011C48.3881 195.067 46.575 194.966 45.0187 195.868C48.1372 195.976 50.6385 198.659 52.2269 201.8C54.1755 199.832 51.7191 196.984 50.0342 196.011Z" fill="white"/>
<path d="M51.8348 211.331C50.4654 211.839 49.0698 212.082 47.7003 211.989C47.7841 213.442 47.6811 214.894 47.5204 216.333C48.4723 216.404 49.3724 216.697 50.2081 217.198C50.2016 215.495 51.2305 213.048 51.8348 211.331Z" fill="#ECD8BE"/>
<path d="M47.7773 76.4735C47.7192 79.8796 48.5616 83.0492 50.0534 85.9972C50.5355 85.8969 51.0181 85.8184 51.5002 85.7613C49.0566 81.268 48.2979 76.0226 49.1404 70.8853C48.8959 71.0284 48.6711 71.2358 48.4779 71.5079C47.7196 72.588 47.7965 75.214 47.7773 76.4735Z" fill="#D4F4BD"/>
<path d="M48.3688 192.033C49.7063 191.89 51.2882 192.405 52.317 193.077C53.3073 193.721 54.349 194.866 54.7734 196.104C57.4867 191.582 49.3912 188.391 48.3688 192.033Z" fill="white"/>
<path d="M50.3944 70.6205C49.5392 75.8582 50.253 80.8167 52.3362 85.5969C52.3427 85.6183 52.3427 85.6397 52.3491 85.6682C53.3458 85.575 54.349 85.5393 55.3453 85.5607C56.3934 85.575 57.4355 85.6397 58.4767 85.761C58.8626 85.8038 59.9556 86.1329 60.663 86.219C60.4505 85.5251 61.2673 85.0314 61.6661 85.6682C64.0901 89.5609 64.1161 95.1491 64.4632 99.7C64.9325 105.89 65.28 112.301 64.7013 118.504C64.8171 118.433 64.9586 118.412 65.1321 118.469C65.8006 118.698 66.476 118.898 67.1513 119.07C67.209 119.063 67.2607 119.077 67.3056 119.113C69.8197 119.757 72.3727 120.05 74.9766 120.065C74.6424 118.519 74.4624 116.902 74.2949 115.385C74.1791 115.707 74.0376 116.029 73.8576 116.372C73.6003 116.866 72.8609 116.787 72.7322 116.208C71.2725 109.539 70.5652 102.777 70.5587 95.9292C69.8257 96.3011 69.0991 96.5803 68.2566 96.802C67.8258 96.9166 67.3949 96.4871 67.53 95.9934C68.7516 91.3925 70.9315 87.4143 74.0179 84.1586C73.3943 84.2014 72.7638 84.237 72.1338 84.2803C71.6901 84.3089 71.4264 83.7153 71.6389 83.3143C72.7771 81.1107 74.0628 79.0569 75.4904 77.1391C73.9987 78.1122 72.2432 78.5917 70.3656 78.4057C66.5974 78.0409 63.1895 75.0501 62.8873 70.8212C61.0288 71.1432 59.1255 71.2074 57.2542 71.1075C58.354 72.7746 59.4533 74.4346 60.5463 76.1022C60.8677 76.5959 60.2505 77.2256 59.8132 76.9179C57.2217 75.1076 54.8816 73.0182 52.7145 70.7356C52.0007 70.6642 51.1711 70.4925 50.3932 70.5353C50.3945 70.57 50.4009 70.5919 50.3944 70.6205Z" fill="#D4F4BD"/>
<path d="M50.4073 16.8191L50.6454 17.8997C50.7159 17.8641 50.7997 17.8498 50.9027 17.8926C58.1236 20.7907 64.3931 26.2001 68.534 33.4198C68.5661 33.4769 68.5661 33.5344 68.5469 33.5844L70.2185 34.6436C71.061 34.0353 71.903 33.406 72.7391 32.7544C71.7872 31.123 70.7716 29.5776 69.5817 28.1393C69.2538 27.7388 69.6654 27.2161 70.0835 27.4163C74.456 29.5629 76.1918 34.5789 77.7545 39.2588C80.063 46.185 82.3523 53.126 84.6348 60.0736C85.3486 55.1508 83.2525 50.4068 81.5163 45.9058C79.9408 41.8201 78.2883 37.7557 76.8223 33.6201C76.6167 33.0474 77.4844 32.6326 77.7224 33.1977C78.1405 34.2065 78.5457 35.2225 78.9569 36.2461C78.9889 36.2318 79.0274 36.2175 79.0727 36.2104C79.6001 36.1533 80.14 36.2389 80.661 36.4106C77.0022 21.1122 63.5118 13.3484 50.4073 16.8191Z" fill="#9A743C"/>
<path d="M50.1628 189.5C51.2882 189.343 52.529 189.557 53.3907 190.044C54.5289 190.681 55.5834 192.033 55.963 193.457C57.9432 191.997 55.3971 189.435 54.0917 188.656C52.5679 187.747 51.1275 188.083 50.1628 189.5Z" fill="white"/>
<path d="M50.6453 17.899C50.4072 18.035 50.3752 18.5359 50.7094 18.6719C57.8727 21.706 63.6917 26.7649 68.251 33.6051C68.3344 33.734 68.4955 33.684 68.5468 33.5837C68.566 33.5337 68.5661 33.4762 68.534 33.4191C64.3931 26.1994 58.1236 20.7899 50.9026 17.8919C50.7996 17.8491 50.7158 17.8633 50.6453 17.899Z" fill="#222221"/>
<path d="M51.5327 184.241C51.2818 185.042 51.2497 186.016 51.4814 187.096C51.61 187.074 51.7387 187.053 51.8673 187.046C51.7259 186.166 51.578 185.257 51.5395 184.384C51.5327 184.334 51.5327 184.284 51.5327 184.241Z" fill="#90A3D2"/>
<path d="M52.0084 150.732C51.7964 148.607 52.2336 146.246 53.2171 144.436C53.153 144.349 53.0757 144.271 53.018 144.178C52.7478 143.727 53.365 143.205 53.6933 143.598C53.7061 143.612 53.7125 143.619 53.7189 143.626C54.6836 142.267 56.0142 141.372 57.6607 141.423C57.7056 141.423 57.7509 141.444 57.7893 141.459C57.8278 141.437 57.8667 141.43 57.9116 141.43C58.0659 141.437 58.2009 141.451 58.3424 141.473C58.3937 140.836 58.5352 140.206 58.7925 139.641C58.9917 139.204 59.6414 139.505 59.5127 139.977C59.352 140.557 59.2169 141.101 59.1396 141.659C59.7504 141.873 60.2714 142.246 60.7022 142.732C60.9852 142.46 61.2746 142.189 61.6216 142.081C61.9174 141.995 62.1747 142.36 62.0204 142.653C61.8405 142.99 61.5383 143.226 61.2361 143.455C62.5286 145.559 62.6445 148.936 61.7118 151.669C61.8725 151.712 62.0333 151.769 62.1811 151.848C62.6376 152.077 62.2906 152.764 61.8661 152.685C61.699 152.649 61.5319 152.592 61.3648 152.528C61.0562 153.222 60.6574 153.837 60.1945 154.366C60.3424 154.638 60.4774 154.91 60.5804 155.182C60.7796 155.712 60.053 155.962 59.7961 155.554C59.6931 155.39 59.6033 155.211 59.5131 155.039C58.716 155.683 57.7513 156.069 56.6323 156.055C54.8127 156.034 53.5651 155.067 52.8192 153.643C52.6457 153.801 52.4657 153.944 52.2725 154.052C51.8994 154.252 51.4818 153.737 51.8096 153.379C52.0024 153.172 52.2341 153.007 52.4717 152.85C52.3174 152.421 52.1952 151.97 52.1118 151.49C52.0216 151.533 51.9255 151.576 51.8353 151.619C51.3531 151.876 51.0638 151.025 51.5587 150.889C51.7126 150.846 51.8605 150.782 52.0084 150.732ZM53.2945 150.245C53.6805 150.102 53.8284 150.753 53.4616 150.911C53.4168 150.932 53.3783 150.947 53.333 150.968C53.3843 151.355 53.4552 151.741 53.5578 152.099C53.8087 151.913 54.0656 151.727 54.3165 151.54C54.6443 151.297 54.9273 151.862 54.6187 152.113C54.3485 152.327 54.0784 152.549 53.8151 152.771C54.278 153.787 55.0884 154.524 56.3998 154.646C57.3773 154.732 58.2069 154.445 58.8882 153.915C58.6245 153.493 58.3416 153.1 58.065 152.692C57.8402 152.363 58.2967 152.041 58.5472 152.277C58.8686 152.578 59.1964 152.943 59.4986 153.337C59.8136 152.972 60.0902 152.557 60.3218 152.091C60.1098 151.999 59.891 151.905 59.6918 151.791C59.4606 151.648 59.5503 151.175 59.8333 151.204C60.1034 151.232 60.3671 151.304 60.6245 151.376C61.4605 149.093 61.3895 146.116 60.3223 144.156C60.0714 144.349 59.8145 144.542 59.5508 144.721C59.255 144.921 58.9207 144.449 59.178 144.184C59.4097 143.941 59.6474 143.712 59.8918 143.483C59.6474 143.168 59.3712 142.896 59.0622 142.675C59.0622 142.933 59.0622 143.19 59.0879 143.455C59.1327 143.848 58.554 143.927 58.4771 143.548C58.3937 143.147 58.3484 142.725 58.3292 142.295C58.2715 142.274 58.2197 142.245 58.162 142.231C58.1236 142.403 58.0077 142.553 57.8022 142.596C56.4711 142.889 55.4616 143.562 54.7349 144.535C54.8764 144.613 55.0307 144.685 55.2043 144.735C55.6736 144.893 55.468 145.623 55.0051 145.537C54.7542 145.494 54.5037 145.393 54.2592 145.279C53.854 146.03 53.5775 146.903 53.4232 147.891C53.3009 148.627 53.2432 149.45 53.2817 150.252C53.2817 150.253 53.2881 150.245 53.2945 150.245Z" fill="#222221"/>
<path d="M66.8298 120.436C69.5756 121.159 72.3663 121.395 75.2083 121.023C75.7485 123.069 76.6162 124.922 78.1532 126.174C78.3913 126.367 78.7576 126.217 78.8991 125.953C79.2786 125.259 79.7223 124.665 80.2109 124.107C80.1852 125.266 80.2173 126.683 80.4746 127.971C80.3459 128.071 80.2173 128.178 80.0886 128.286C80.0309 128.3 79.9664 128.321 79.9151 128.372C79.8702 128.415 79.8381 128.472 79.7992 128.522C73.5169 133.681 67.8779 141.294 65.5116 149.538C63.9554 154.961 63.9943 160.729 63.8396 166.36C63.6724 172.493 63.4668 178.624 63.351 184.756C62.0136 184.227 60.5219 183.962 59.3644 183.247C57.744 182.245 56.2395 180.821 54.3297 180.671C54.3554 180.592 54.3746 180.506 54.3682 180.399C54.0788 168.9 49.6678 157.38 51.687 145.86C53.5839 134.99 60.9078 128.515 66.8298 120.436ZM52.1114 151.49C52.1952 151.97 52.317 152.421 52.4713 152.85C52.2332 153.007 52.002 153.172 51.8092 153.379C51.4814 153.737 51.8994 154.252 52.2721 154.052C52.4649 153.944 52.6448 153.801 52.8188 153.643C53.5646 155.068 54.8123 156.034 56.6319 156.055C57.7509 156.069 58.7151 155.683 59.5127 155.039C59.6029 155.211 59.6927 155.39 59.7957 155.554C60.053 155.962 60.7796 155.712 60.58 155.182C60.477 154.91 60.3419 154.638 60.194 154.366C60.6569 153.837 61.0557 153.222 61.3643 152.528C61.5315 152.592 61.6986 152.649 61.8657 152.685C62.2901 152.764 62.6372 152.077 62.1807 151.848C62.0328 151.769 61.8721 151.712 61.7114 151.669C62.644 148.936 62.5282 145.558 61.2357 143.455C61.5379 143.226 61.8401 142.99 62.02 142.653C62.1743 142.36 61.917 141.995 61.6212 142.081C61.2741 142.189 60.9848 142.46 60.7018 142.732C60.271 142.246 59.7504 141.874 59.1391 141.659C59.2161 141.101 59.3511 140.557 59.5123 139.977C59.6409 139.505 58.9913 139.204 58.7921 139.641C58.5348 140.207 58.3933 140.836 58.342 141.473C58.2005 141.451 58.0654 141.437 57.9111 141.43C57.8663 141.43 57.8274 141.437 57.7889 141.459C57.7504 141.444 57.7051 141.423 57.6602 141.423C56.0142 141.373 54.6832 142.267 53.7185 143.626C53.7121 143.619 53.7057 143.612 53.6929 143.598C53.365 143.205 52.7478 143.727 53.0175 144.178C53.0752 144.271 53.1526 144.349 53.2167 144.436C52.2328 146.246 51.7955 148.607 52.008 150.732C51.8601 150.782 51.7122 150.847 51.5579 150.889C51.0629 151.026 51.3523 151.877 51.8344 151.62C51.9246 151.576 52.0212 151.534 52.1114 151.49Z" fill="#4470B3"/>
<path d="M53.8151 52.4315C51.8733 53.3476 51.6737 56.6319 52.2589 58.5278C52.5034 59.3221 53.6155 58.9929 53.3907 58.1844C52.9406 56.5458 52.9983 53.2758 55.1974 53.4974C56.5348 53.6335 57.4803 54.6352 58.7019 55.0499C58.9139 55.1217 59.0426 54.8568 58.9656 54.6637C58.2646 52.968 55.3714 51.6943 53.8151 52.4315Z" fill="#222221"/>
<path d="M53.0116 184.162C52.2914 184.527 52.6517 186.065 52.8316 187.074C53.7835 187.203 54.7286 187.603 55.4103 188.155C55.9181 188.57 56.4776 189.114 56.9341 189.743C57.3393 188.52 57.6992 187.289 57.8086 185.98C57.8471 185.522 58.0078 184.541 57.8214 184.119C57.8022 183.647 57.5962 183.511 57.1978 183.719C56.9661 183.747 56.7349 183.769 56.4968 183.797C55.9566 183.855 55.4167 183.912 54.87 183.969C54.3554 184.019 53.4745 183.926 53.0116 184.162Z" fill="#D4F4BD"/>
<path d="M53.4231 147.891C53.3009 148.628 53.2432 149.451 53.2816 150.252C53.2816 150.252 53.2881 150.245 53.2945 150.245C53.6804 150.102 53.8283 150.753 53.4616 150.91C53.4167 150.932 53.3782 150.946 53.3329 150.967C53.3842 151.354 53.4552 151.74 53.5578 152.098C53.8087 151.912 54.0655 151.726 54.3164 151.54C54.6443 151.297 54.9272 151.862 54.6186 152.112C54.3485 152.327 54.0784 152.549 53.8151 152.771C54.278 153.787 55.0884 154.524 56.3997 154.645C57.3772 154.731 58.2069 154.445 58.8882 153.915C58.6245 153.493 58.3415 153.099 58.065 152.692C57.8401 152.363 58.2966 152.04 58.5471 152.277C58.8685 152.577 59.1964 152.942 59.4986 153.336C59.8136 152.971 60.0901 152.556 60.3218 152.091C60.1098 151.998 59.8909 151.905 59.6918 151.79C59.4605 151.647 59.5503 151.175 59.8332 151.203C60.1034 151.232 60.3671 151.304 60.6244 151.375C61.4605 149.092 61.3895 146.116 60.3222 144.155C60.0713 144.348 59.8144 144.542 59.5507 144.72C59.2549 144.921 58.9207 144.448 59.178 144.184C59.4097 143.941 59.6473 143.712 59.8918 143.483C59.6473 143.168 59.3712 142.896 59.0622 142.674C59.0622 142.932 59.0622 143.189 59.0878 143.454C59.1327 143.848 58.554 143.927 58.477 143.547C58.3937 143.147 58.3484 142.724 58.3291 142.295C58.2714 142.273 58.2197 142.245 58.162 142.23C58.1235 142.402 58.0077 142.552 57.8021 142.595C56.4711 142.889 55.4615 143.561 54.7349 144.534C54.8764 144.613 55.0307 144.685 55.2042 144.735C55.6735 144.892 55.4679 145.622 55.005 145.536C54.7541 145.493 54.5037 145.393 54.2592 145.278C53.854 146.031 53.5774 146.904 53.4231 147.891Z" fill="#90A3D2"/>
<path d="M52.5807 202.537C53.0889 203.667 53.4809 204.827 53.7446 205.936C53.7895 206.143 53.7446 206.315 53.6544 206.437C53.8925 206.358 54.1237 206.272 54.349 206.179C58.9143 204.261 61.1391 199.782 63.4155 195.339C63.2933 195.245 63.1839 195.145 63.0744 195.038C61.2421 193.292 59.8337 191.067 57.9885 189.263C57.8598 189.578 57.7248 189.886 57.5641 190.179C57.5064 190.287 57.4162 190.337 57.3196 190.358C57.5897 190.859 57.7696 191.403 57.7825 191.968C57.8081 193.084 57.1328 194.208 56.0916 194.143C56.1946 195.181 55.8988 196.19 54.9533 196.941C55.0307 197.771 54.7606 198.608 53.9438 199.31C53.8604 199.374 53.783 199.381 53.7189 199.36C53.9438 200.562 53.68 201.75 52.5807 202.537Z" fill="#D4F4BD"/>
<path d="M52.0853 183.153C52.6192 182.881 53.3843 182.946 53.9374 182.889C54.7606 182.803 55.577 182.717 56.3938 182.631C54.5097 181.665 52.9598 182.023 52.0853 183.153Z" fill="#90A3D2"/>
<path d="M57.6927 11.1162C57.217 12.2611 57.5384 13.6133 57.7957 14.7796C59.4161 14.858 61.0365 15.073 62.612 15.445C62.6958 15.3304 62.7919 15.2162 62.8885 15.1087C62.5479 14.6435 62.1747 14.2216 61.7375 13.8635C61.2164 13.4416 60.6317 13.1981 60.0722 12.8618C59.6995 12.6401 59.9628 12.0532 60.3424 12.1393C61.5768 12.4185 62.6509 13.5201 63.3579 14.6868C63.5186 14.565 63.6921 14.4438 63.8661 14.3577C63.2617 12.6259 62.3359 11.0016 60.8117 10.1074C59.5892 9.39153 58.2971 9.65646 57.6927 11.1162Z" fill="#EF7C8A"/>
<path d="M58.8502 184.319C58.8566 184.413 58.8566 184.491 58.8566 184.584C58.8695 185.929 58.6703 187.289 58.2523 188.555C59.8855 189.543 61.281 190.831 62.4898 192.412C63.242 193.393 63.8528 195.31 65.2612 192.92C65.9361 191.768 65.0941 188.785 64.6248 187.797C63.628 185.708 62.4128 186.03 60.6189 185.286C59.988 185.028 59.4349 184.691 58.8502 184.319Z" fill="#90A3D2"/>
<path d="M59.9624 62.1769C59.1781 62.0052 58.8434 63.336 59.6282 63.5149C66.264 64.9817 75.0796 63.336 76.5714 54.5847C76.6551 54.0696 76.0183 53.8689 75.8704 54.3702C73.5559 62.0908 66.3926 63.6223 59.9624 62.1769Z" fill="#222221"/>
<path d="M61.319 4.77633C60.8433 4.47573 60.3671 4.16799 59.8914 3.86025C60.0521 5.7062 60.5732 7.23062 61.5246 8.8906C61.5951 9.01236 61.5951 9.13413 61.5631 9.23401C63.0873 10.2642 64.193 12.2462 64.4952 14.1283C64.9902 14.0208 65.5048 14.0927 65.9613 14.4575C66.09 14.5578 66.1994 14.6791 66.3084 14.8152C67.8129 13.4986 69.8577 12.3537 71.7226 12.9549C71.7675 12.9193 71.8192 12.8836 71.8833 12.8546C73.973 12.1102 76.0691 11.6241 78.2297 11.3449C77.6189 10.6866 76.8667 10.2143 75.9601 9.94937C75.5677 9.8062 75.3942 9.09798 75.8379 8.86872C77.8186 7.83849 79.8181 7.20874 81.927 6.93668C79.5928 5.51975 77.1043 4.84007 74.3393 4.90475C73.9858 4.91189 73.7606 4.52567 73.8379 4.16751C74.3782 1.50584 75.4134 -0.705403 77.0082 -2.64458C73.9473 -2.30117 71.2405 -0.977469 68.8806 1.36981C68.6426 1.60572 68.2762 1.57719 68.1091 1.25518C67.0162 -0.776748 66.3473 -2.87336 66.0451 -5.16309C63.9554 -2.35825 62.6308 0.826152 62.0264 4.45385C61.9687 4.80487 61.5699 4.93377 61.319 4.77633Z" fill="#9A743C"/>
<path d="M63.8977 50.4346C63.6019 50.1198 63.0744 50.5421 63.3125 50.9355C64.2191 52.4095 64.9265 53.9192 65.3509 55.651C65.4796 56.159 65.9873 56.216 66.3156 55.9302C67.1063 55.2505 68.1416 55.3076 68.6626 56.2236C69.2093 57.1754 68.4181 58.091 67.5569 58.1271C67.0102 58.1486 66.8495 59.1074 67.4218 59.2221C69.1516 59.5726 70.5275 57.7267 69.8526 55.8807C69.2029 54.1275 67.5697 53.8702 66.2323 54.5427C65.7236 52.9964 64.9714 51.6009 63.8977 50.4346Z" fill="#222221"/>
<path d="M65.3446 15.3092C64.7723 14.98 64.2389 15.3377 63.7499 15.7316C64.5086 15.9461 65.2544 16.1896 65.9811 16.4683C65.949 15.996 65.769 15.5594 65.3446 15.3092Z" fill="#EF7C8A"/>
<path d="M65.6404 70.1338C65.1257 70.3126 64.6051 70.4487 64.0841 70.5776C64.3286 75.0571 68.5336 77.5899 72.2762 77.0819C75.266 76.6667 77.4331 74.6205 78.809 71.7153C78.3268 71.5222 77.8314 71.3647 77.3044 71.2501C77.2724 71.243 77.2403 71.2216 77.2078 71.2073C76.8026 72.9534 75.5682 74.0264 73.8965 74.5201C71.8774 75.1285 69.4919 75.2355 67.7365 73.7834C66.6431 72.8816 66.0131 71.5579 65.6404 70.1338Z" fill="#D4F4BD"/>
<path d="M66.6948 15.5025C66.7268 15.5957 66.7529 15.6956 66.7785 15.7888C68.1031 15.3379 69.6269 15.4097 70.9195 15.932C71.4661 16.1608 71.2537 17.1054 70.675 16.9265C69.3504 16.5189 68.1737 16.4685 66.8298 16.7049C66.8234 16.7406 66.8234 16.7691 66.817 16.8053C68.8362 17.6566 70.7395 18.7801 72.4689 20.1395C73.1378 18.2217 73.7678 15.3455 71.8837 14.2577C70.1219 13.2413 68.2442 14.6435 66.6948 15.5025Z" fill="#EF7C8A"/>
<path d="M71.0156 43.5656C69.1572 44.8608 69.0093 47.4939 69.9676 49.4901C70.3279 50.2417 71.3114 49.5834 70.9836 48.8319C70.3146 47.3079 70.3407 45.2113 71.9675 44.4741C73.3754 43.83 74.7582 45.3112 75.8447 46.1198C76.1597 46.3486 76.6098 45.8762 76.3785 45.5257C75.2082 43.7444 72.9125 42.2562 71.0156 43.5656Z" fill="#222221"/>
<path d="M76.0764 83.8579C76.4623 83.5002 76.1469 82.713 75.6583 82.7487C74.8415 82.8058 74.0187 82.8633 73.2019 82.9204C75.3626 78.9707 78.0117 75.5076 81.1944 72.4949C81.4645 72.23 81.3679 71.7077 81.0785 71.5217C80.275 71.0066 79.5159 70.6418 78.6867 70.3626C78.9696 70.141 79.259 69.9402 79.5483 69.7471C79.677 69.7471 79.7992 69.6758 79.8762 69.554C81.6509 68.4739 83.5862 67.9583 85.7405 67.9797C85.9721 67.9868 86.2034 67.7937 86.2615 67.5359C86.4671 66.2407 87.0202 65.1962 87.9268 64.3948C88.0682 65.4321 88.2097 66.4628 88.3512 67.4931C88.3576 67.5502 88.3769 67.6006 88.4025 67.6434C88.4025 68.13 89.0005 68.5737 89.4441 68.1514C96.736 61.2608 105.757 68.3516 112.753 72.5092C111.725 72.8026 110.689 72.9672 109.57 72.9886C108.96 72.9957 108.792 73.8614 109.275 74.2196C115.28 78.6991 122.231 84.5376 129.742 84.9814C127.33 87.6573 124.668 89.9399 121.717 91.8648C121.311 92.1369 121.382 92.6948 121.717 92.974C123.17 94.2116 124.642 94.9774 126.372 95.2637C119.228 99.0417 112.155 93.2099 106.793 88.2157C106.394 87.8509 105.77 88.1943 105.905 88.7955C106.047 89.4466 106.207 90.026 106.413 90.5915C102.607 88.4806 98.8774 86.2194 95.2443 83.7437C94.7494 83.4075 94.3249 84.0515 94.5177 84.5523C94.672 85.1749 94.8199 85.7904 94.9742 86.4126C92.4665 84.4234 90.4217 82.0476 88.4478 79.3717C88.2161 79.0639 87.7917 79.4649 87.9592 79.7869C88.0362 79.9372 88.1136 80.0804 88.1969 80.2235L88.152 80.2521C88.1456 80.2235 88.1007 80.2164 88.1007 80.2521C87.5797 82.9499 87.2711 85.3538 86.2551 87.8295C85.8371 87.1855 85.3613 86.7132 84.654 86.2123C84.4031 86.0335 83.9658 86.1909 83.9145 86.5414C83.458 89.8976 83.6764 93.3393 82.7442 96.5731C82.4164 96.1655 82.0625 95.8216 81.5867 95.4711C81.2333 95.2062 80.8793 95.5714 80.8345 95.9505C80.5707 98.226 79.8894 100.1 78.732 101.961C78.5841 102.204 78.6418 102.433 78.7833 102.591C78.7512 102.991 79.1111 103.414 79.5227 103.142C80.5066 102.505 83.7149 104.737 84.583 105.274C86.1004 106.211 87.4831 107.328 88.7949 108.587C89.1163 108.895 89.6245 108.694 89.6373 108.201C89.663 107.235 89.6181 106.311 89.5087 105.381C90.8269 106.176 91.9715 107.17 93.058 108.351C92.9486 108.537 92.9166 108.766 93.0324 109.016C94.0933 111.213 96.4082 112.222 98.3244 111.478C100.575 111.428 102.691 111.6 104.832 112.236C104.143 112.787 103.462 113.346 102.793 113.925C102.394 114.268 102.774 114.884 103.173 114.927C105.159 115.134 107.069 115.535 108.979 116.093C108.76 116.229 108.542 116.372 108.33 116.508C107.905 116.773 108.04 117.431 108.458 117.588C110.78 118.504 111.223 120.4 111.165 122.576C110.645 122.046 110.066 121.674 109.275 121.352C108.972 121.23 108.728 121.509 108.67 121.81C108.542 121.839 108.419 121.932 108.374 122.132C107.725 125.016 106.555 127.348 104.728 129.402C104.529 128.729 104.266 128.135 103.886 127.47C103.725 127.19 103.378 127.054 103.108 127.248C99.5459 129.752 95.7585 131.162 91.6048 131.513C91.7398 131.069 91.695 130.99 91.6561 129.917C91.6432 129.502 91.2962 129.18 90.923 129.294C89.0261 129.888 86.7372 130.547 84.7565 130.146C81.4064 129.473 81.2905 126.475 81.432 123.434C81.4577 122.969 81.117 122.761 80.7892 122.804C80.6797 122.704 80.5254 122.661 80.384 122.768C79.5996 123.334 78.9628 124.007 78.3712 124.779C75.8443 122.053 75.902 117.309 75.2335 113.702C75.1822 113.437 74.989 113.302 74.777 113.273C74.7834 113.237 74.7898 113.209 74.7898 113.172C74.88 112.3 73.658 112.314 73.5682 113.172C73.5297 113.294 73.4977 113.408 73.4588 113.53C72.2885 107.383 71.7098 101.173 71.7482 94.8689C71.7482 94.3538 71.2405 94.0532 70.8481 94.2967C70.2629 94.7044 69.6457 95.0121 68.9965 95.2414C70.3792 90.7342 72.739 86.9348 76.0764 83.8579ZM75.8639 97.875C75.4459 98.4334 76.0888 99.1773 76.5906 98.6764C79.4005 95.8502 80.6481 91.1918 79.9856 87.0846C79.9146 86.6195 79.2526 86.7412 79.2654 87.1921C79.2782 87.6216 79.2654 88.0292 79.2526 88.4302C77.2402 86.9348 74.488 87.8647 73.4785 90.4265C72.3727 93.2384 73.7742 96.2797 76.1341 97.4816C76.0443 97.6105 75.9605 97.7394 75.8639 97.875ZM85.6123 118.039C86.1264 118.161 86.3196 117.367 85.8307 117.174C82.3454 115.764 79.9535 112.773 79.259 108.709C79.1239 107.914 78.0951 108.272 78.1917 109.038C78.7256 113.324 81.7864 117.145 85.6123 118.039Z" fill="#5E3B1D"/>
<path d="M66.3216 67.2641C66.849 71.1639 68.2959 74.1832 72.3851 73.5677C74.6227 73.2315 76.7123 71.8145 76.1469 68.9455C75.8062 67.1999 74.597 65.7397 73.6135 64.3875C73.5686 64.4231 73.5169 64.4593 73.472 64.4878C71.2857 65.9333 68.8485 66.8132 66.3216 67.2641Z" fill="#ECD8BE"/>
<path d="M79.2526 88.4302C79.2654 88.0297 79.2782 87.6216 79.2654 87.1921C79.2526 86.7412 79.9147 86.6195 79.9856 87.0847C80.6477 91.1918 79.4005 95.8502 76.5906 98.6764C76.0892 99.1773 75.4459 98.4334 75.864 97.875C75.9606 97.739 76.0439 97.6101 76.1341 97.4816C73.7743 96.2797 72.3723 93.2385 73.4785 90.4265C74.4881 87.8647 77.2403 86.9348 79.2526 88.4302ZM78.9953 90.8484C78.9184 90.9055 78.8089 90.9197 78.7059 90.8412C77.9537 90.2833 76.8928 90.1616 76.211 90.9345C75.5165 91.7217 75.6772 92.8879 76.2751 93.6608C76.6415 94.1331 76.0888 94.7486 75.6644 94.3405C74.6484 93.3674 74.6419 91.3854 75.5549 90.3333C76.4615 89.2816 78.1721 89.2388 79.053 90.3404C79.0658 90.3475 79.0658 90.3618 79.0722 90.3761C79.1235 90.0184 79.1688 89.6531 79.2009 89.2811C77.3813 88.0359 74.9441 88.816 74.256 91.1918C73.5678 93.5671 74.9249 95.5853 76.7701 96.537C77.9024 94.741 78.6354 92.8951 78.9953 90.8484Z" fill="#222221"/>
<path d="M74.2564 91.1923C73.5682 93.5677 74.9253 95.5858 76.7705 96.5375C77.9023 94.7415 78.6353 92.8956 78.9952 90.8489C78.9183 90.906 78.8089 90.9203 78.7059 90.8418C77.9536 90.2838 76.8927 90.1621 76.211 90.935C75.5164 91.7222 75.6771 92.8884 76.2751 93.6614C76.6414 94.1337 76.0887 94.7491 75.6643 94.341C74.6483 93.3679 74.6419 91.3859 75.5549 90.3338C76.4614 89.2822 78.172 89.2393 79.0529 90.3409C79.0658 90.3481 79.0658 90.3623 79.0722 90.3766C79.1235 90.0189 79.1688 89.6536 79.2008 89.2817C77.3817 88.0365 74.9445 88.8165 74.2564 91.1923Z" fill="#ECD8BE"/>
<path d="M76.8671 65.5186C76.5842 65.6903 76.3012 65.8548 76.0118 65.998C76.8026 67.15 77.3621 68.4666 77.3557 69.9691C77.8703 69.5182 78.3845 69.1248 78.9055 68.7814C78.7704 68.3234 78.6418 67.8654 78.4106 67.4221C78.0507 66.7638 77.5809 66.2273 77.0214 65.7764C76.9317 65.7045 76.8864 65.6113 76.8671 65.5186Z" fill="#D4F4BD"/>
<path d="M76.9958 134.082C77.0151 134.317 76.9381 134.568 76.7642 134.711C76.7642 134.812 79.0406 138.225 79.2911 138.496C80.3712 139.692 81.6253 140.557 83.0272 141.165C86.2872 142.582 89.56 142.002 92.576 140.321C92.3315 137.824 92.0165 135.326 91.5728 132.808C91.2962 132.829 91.0261 132.851 90.7496 132.858C90.3961 132.879 90.0678 132.436 90.1965 132.049L90.3764 130.797C87.8687 131.534 83.7086 132.485 81.8501 130.818C81.3359 130.36 80.9756 129.695 80.7315 128.936C80.5965 129.093 80.455 129.251 80.3199 129.401C80.2815 129.967 80.4165 130.675 80.3584 131.14C80.2554 131.892 80.0049 132.593 79.5416 133.158C78.944 133.874 77.8767 134.368 76.9958 134.082Z" fill="#ECD8BE"/>
<path d="M79.259 108.709C79.1239 107.914 78.0951 108.272 78.1917 109.038C78.7255 113.324 81.7859 117.145 85.6122 118.039C86.1264 118.161 86.3196 117.367 85.8307 117.174C82.3454 115.764 79.9535 112.773 79.259 108.709Z" fill="#222221"/>
<path d="M77.4587 65.1249C78.4619 65.7546 79.4586 66.9423 79.8057 68.2517C80.9888 67.6148 82.2424 67.1854 83.6636 66.8491C85.8563 66.3411 86.1649 64.2587 88.0426 62.8994C88.4025 62.6416 88.7949 62.9855 88.8269 63.4002C88.9107 64.5308 88.9812 65.6685 89.0518 66.8063C89.6305 66.3054 90.2157 65.8902 90.8008 65.5396C90.7299 65.4897 90.6657 65.4179 90.6401 65.318C89.56 61.7188 88.1003 58.8422 85.6952 56.2019C85.9136 58.1554 85.8238 60.1445 85.2323 62.1693C85.0716 62.7201 84.4223 62.6915 84.2548 62.1693C83.8432 60.924 83.4448 59.6793 83.0396 58.4269C81.7667 60.9388 79.7736 63.5148 77.4587 65.1249Z" fill="#D4F4BD"/>
<path d="M79.3685 37.2834C80.243 39.5013 81.0919 41.7269 81.9275 43.9595C82.8469 42.8146 83.2649 41.2693 82.6285 39.7953C81.9664 38.278 80.7123 37.7125 79.3685 37.2834Z" fill="#ECD8BE"/>
<path d="M81.6641 97.1024C81.9343 97.403 82.198 97.7107 82.4677 98.0113C82.7186 98.4479 83.22 98.3119 83.3871 97.8753C83.9273 96.4369 84.2424 94.9991 84.3967 93.4533C84.4933 92.5158 84.5189 91.5712 84.5702 90.6341C84.5958 90.0615 84.6215 89.4964 84.66 88.9309C85.0716 89.0312 85.4768 89.1311 85.8815 89.2315C86.0551 89.5749 86.5569 89.5892 86.7304 89.2315C88.0358 86.4481 88.9167 83.364 88.1516 80.2514L88.1965 80.2229C90.016 83.5643 92.6075 86.1617 95.5589 88.2583C95.8675 88.4805 96.395 88.2013 96.3501 87.7575C96.2663 86.9774 96.1376 86.2835 95.9641 85.6038C99.6549 88.0795 103.436 90.3835 107.332 92.4587C107.802 92.7089 108.374 92.1795 108.078 91.6287C107.815 91.2063 107.603 90.7702 107.429 90.3121C110.586 93.1241 114.168 95.9076 117.949 97.1171L117.93 97.1961C117.82 97.1461 117.685 97.1604 117.563 97.2745C115.583 99.1562 114.85 101.59 114.49 104.401C113.828 109.517 113.763 113.632 110.786 117.775C110.503 117.474 110.169 117.203 109.776 116.959C110.059 116.78 110.349 116.602 110.638 116.416C111.05 116.158 110.94 115.471 110.509 115.328C108.542 114.67 106.555 114.219 104.529 113.926C105.108 113.453 105.687 112.981 106.278 112.523C106.658 112.237 106.606 111.615 106.156 111.45C104.028 110.684 101.899 110.326 99.7259 110.519C99.9123 110.319 100.093 110.097 100.253 109.847C101.764 107.471 100.466 103.478 97.8166 103.378C98.6458 101.61 99.3404 99.7574 100.067 97.9328C100.729 96.2657 101.572 94.5482 101.867 92.745C101.906 92.5091 101.629 92.2442 101.462 92.4801C100.363 94.0112 99.7195 95.9432 98.98 97.7107C98.2214 99.5281 97.4238 101.338 96.7809 103.213C96.7296 103.357 96.7425 103.485 96.7938 103.6C96.6138 103.835 96.6779 104.286 96.9929 104.365C99.0506 104.866 100.851 107.149 99.0634 109.352C97.5264 111.256 95.064 110.383 94.08 108.336C93.977 108.115 93.8163 108.022 93.6428 108.007C92.4596 106.226 90.9615 104.966 89.1415 103.993C88.762 103.793 88.3892 104.122 88.4598 104.579C88.5884 105.452 88.6525 106.225 88.659 107.027C86.9163 105.438 85.0322 104.093 82.949 103.091C82.1775 102.719 80.9751 101.946 79.9591 101.911C80.8217 100.38 81.3555 98.8337 81.6641 97.1024ZM92.042 91.3638C94.2989 92.4587 94.7686 95.3924 94.1963 97.782C94.1061 98.154 94.5369 98.3043 94.7237 98.0251C96.4535 95.392 95.0836 91.3995 92.5054 90.1542C89.8754 88.8805 86.3902 90.5761 85.5802 93.6602C85.4067 94.3184 86.3068 94.7622 86.5834 94.1325C87.5733 91.9003 89.7724 90.2617 92.042 91.3638ZM110.098 101.073C111.834 102.419 111.795 104.866 111.063 106.805C110.921 107.191 111.423 107.449 111.654 107.191C113.557 105.095 112.696 101.173 110.484 99.7712C108.201 98.3186 104.858 99.5276 103.932 102.304C103.7 102.984 104.633 103.356 104.948 102.784C106.002 100.866 108.233 99.628 110.098 101.073Z" fill="#ECD8BE"/>
<path d="M85.5798 93.6608C85.4063 94.3191 86.3064 94.7628 86.583 94.1331C87.5733 91.9004 89.7725 90.2619 92.0421 91.3639C94.2989 92.4588 94.7687 95.3926 94.1963 97.7822C94.1061 98.1541 94.537 98.3044 94.7238 98.0252C96.4536 95.3921 95.0837 91.3996 92.5054 90.1544C89.8755 88.8806 86.3902 90.5767 85.5798 93.6608Z" fill="#222221"/>
<path d="M87.3805 54.2346C87.027 54.5566 86.6667 54.8644 86.3004 55.165C88.9624 57.6264 90.9559 61.383 91.3867 65.2038C91.3867 65.2109 91.3867 65.2109 91.3867 65.2109C91.5928 65.1034 91.7983 65.0036 92.0103 64.9103C92.1963 60.4955 89.8882 57.3325 87.3805 54.2346Z" fill="#D4F4BD"/>
<path d="M91.8942 188.942C91.7592 189.536 91.5279 189.987 91.6369 190.638C91.7139 191.089 91.8942 191.482 92.1639 191.804C92.2669 191.847 92.3503 191.926 92.4084 192.048C92.4725 192.098 92.5307 192.155 92.6012 192.205C92.6653 192.241 92.7042 192.298 92.7363 192.348C95.2953 192.584 97.6166 192.534 100.137 191.883C99.9316 190.81 99.8093 189.722 99.8157 188.613C99.8221 187.955 99.7388 186.917 100.298 186.466C100.973 185.916 102.323 186.33 103.082 186.38C103.963 186.43 104.844 186.488 105.731 186.538C106.175 183.697 99.1725 185.543 98.2531 185.736C96.4074 186.123 94.2152 186.345 92.5431 187.389C92.4465 187.775 92.3567 188.155 92.2601 188.534C92.1964 188.77 92.0554 188.892 91.8942 188.942Z" fill="#90A3D2"/>
<path d="M90.5632 56.4239C92.1451 58.7921 93.3154 61.4471 93.1675 64.4736C93.6753 64.3233 94.1771 64.2158 94.6849 64.1373C94.5818 63.8943 94.6015 63.5866 94.8584 63.393C100.632 59.057 104.832 52.8029 107.423 45.6402C110.059 38.3701 110.432 30.9288 111.641 23.3437C111.506 23.1792 111.467 22.9219 111.628 22.7425C113.274 20.9465 116.637 15.1147 113.075 13.3977C113.255 15.2798 113.004 17.3688 112.869 19.0145C112.824 19.5724 112.059 19.5943 112.072 19.0145C112.129 16.8965 112.965 9.69102 109.68 10.2204C110.895 12.4887 110.837 16.0161 110.509 18.3562C110.439 18.8642 109.635 18.7496 109.693 18.2344C109.879 16.6244 109.879 15.0144 109.583 13.4191C109.377 12.3456 108.503 8.33165 106.812 10.2494C106.793 10.278 106.767 10.2922 106.735 10.2994C106.767 10.3208 106.799 10.3422 106.825 10.385C108.31 12.7032 108.568 15.7231 108.413 18.4994C108.381 19.1006 107.61 19.1006 107.577 18.4994C107.417 15.8377 107.5 13.2759 106.413 10.8216C106.401 10.8287 106.394 10.843 106.375 10.8502C104.26 11.487 106.652 17.297 107.05 18.535C107.134 18.7857 106.928 18.9717 106.729 18.9717C106.69 19.0216 106.639 19.0649 106.562 19.072C106.51 19.072 106.465 19.0934 106.427 19.1148C106.375 19.3365 106.176 19.5296 105.938 19.4868C104.961 19.3222 104.035 19.0502 103.038 19.0502C102.774 19.0502 101.643 18.9788 101.488 19.2147C101.218 19.6223 101.925 20.1665 102.144 20.3096C103.398 21.104 104.941 20.8895 106.317 20.8533C106.472 20.8462 106.581 20.9465 106.639 21.0821C106.793 21.1682 106.928 21.3327 106.947 21.5758C108.285 34.9222 101.462 50.2772 90.5632 56.4239Z" fill="#ECD8BE"/>
<path d="M92.2929 132.744C95.1674 141.266 94.4279 151.29 94.4407 160.199C94.46 168.964 94.666 177.722 92.8011 186.259C95.4567 184.284 100.151 183.955 103.025 183.668C103.411 183.633 103.854 183.64 104.292 183.704L104.298 183.618C104.022 183.618 103.713 183.303 103.784 182.938C104.691 178.201 106.106 173.6 106.974 168.842C107.662 165.078 108.189 161.279 108.562 157.458C107.842 158.038 107.058 158.281 106.266 158.259C106.195 158.531 106.131 158.81 106.067 159.082C105.945 159.554 105.276 159.354 105.405 158.882C105.469 158.646 105.533 158.41 105.604 158.181C104.864 158.023 104.131 157.651 103.45 157.107C103.282 157.343 103.128 157.594 102.955 157.823C102.729 158.123 102.241 157.715 102.46 157.393C102.62 157.157 102.8 156.928 102.974 156.692C102.942 156.663 102.903 156.642 102.871 156.606C101.354 155.139 100.479 153.086 100.113 150.91C100.068 150.924 100.029 150.939 99.984 150.946C99.5788 151.039 99.4117 150.388 99.8105 150.252C99.875 150.23 99.9456 150.216 100.01 150.195C99.952 149.673 99.9263 149.15 99.9195 148.628C99.5532 148.635 99.1864 148.635 98.833 148.628C98.3829 148.621 98.3893 147.884 98.833 147.855C99.1864 147.841 99.5596 147.827 99.9392 147.819C99.9584 147.383 99.9904 146.954 100.042 146.524C100.357 144.148 101.405 141.981 103.122 140.714C102.814 140.184 102.505 139.64 102.216 139.097C101.991 138.667 102.569 138.295 102.814 138.71C103.122 139.24 103.418 139.784 103.707 140.335C104.035 140.142 104.389 139.984 104.762 139.862C104.755 139.855 104.755 139.848 104.749 139.841C104.531 139.491 105.038 139.047 105.283 139.383C105.353 139.469 105.399 139.576 105.456 139.677C106.851 139.39 108.202 139.677 109.166 140.593C109.051 135.562 108.729 130.539 108.343 125.495C107.565 127.57 106.421 129.38 104.839 131.005C104.543 131.305 104.009 131.205 103.913 130.733C103.302 127.835 102.531 129.251 100.769 130.189C99.8814 130.661 98.9685 131.069 98.0427 131.427C96.1573 132.135 94.2475 132.543 92.2929 132.744Z" fill="#4470B3"/>
<path d="M93.1098 194.451C95.0131 200.906 98.2539 208.526 103.713 211.524C105.674 212.598 108.24 213.019 110.362 212.325C112.561 211.603 114.046 209.721 114.22 207.56C112.065 210.995 107.738 211.324 104.401 209.27C99.1284 206.022 97.1605 199.131 93.1098 194.451Z" fill="white"/>
<path d="M99.9383 147.82C99.9576 147.383 99.9896 146.954 100.041 146.525C100.356 144.149 101.404 141.981 103.121 140.714C102.813 140.185 102.504 139.641 102.215 139.097C101.99 138.668 102.568 138.296 102.813 138.711C103.121 139.24 103.417 139.784 103.707 140.335C104.034 140.142 104.388 139.985 104.761 139.863C104.755 139.856 104.755 139.849 104.748 139.841C104.53 139.491 105.038 139.047 105.282 139.383C105.353 139.47 105.398 139.577 105.456 139.677C106.851 139.391 108.201 139.677 109.166 140.593C109.05 135.563 108.728 130.54 108.342 125.495L109.018 125.345C109.609 128.651 109.995 132.007 110.227 135.384C110.259 135.384 110.291 135.384 110.323 135.391C115.924 136.958 119.287 143.004 122.733 147.67C122.804 147.763 122.843 147.855 122.862 147.956C123.042 148.02 123.177 148.249 123.074 148.521C122.695 149.523 122.232 150.503 121.717 151.455C121.724 151.462 121.724 151.462 121.73 151.462C122.605 152.092 123.422 152.958 124.039 153.931C128.193 140.929 137.278 129.867 137.812 115.521C137.819 115.449 137.838 115.392 137.857 115.328C136.179 115.864 134.378 115.821 132.707 115.249C131.35 114.784 128.984 113.711 128.656 111.95C127.936 108.058 134.816 109.754 137.311 110.555C135.838 106.92 134.539 103.114 133.434 99.3209C132.925 97.5605 132.63 95.7931 133.955 94.6411C133.923 94.505 133.974 94.3547 134.128 94.3048C134.43 94.2187 134.707 94.1902 134.964 94.2187C135.067 93.031 135.774 91.8572 136.848 91.6926C136.874 91.6854 136.893 91.6926 136.919 91.6926C138.012 91.1846 138.925 91.3848 139.69 92.0503C139.967 90.1039 142.622 90.6547 143.587 92.0217C144.127 92.8018 144.539 93.6888 144.854 94.6549C147.632 93.696 148.989 97.424 149.284 100.036C149.934 105.803 149.754 111.792 146.352 116.464C146.282 116.565 146.204 116.607 146.121 116.636C143.986 125.551 142.539 134.367 141.394 143.511C140.263 152.585 139.009 161.772 135.71 170.237C133.678 175.467 130.103 182.193 124.072 181.177C121.39 180.719 119.133 178.744 117.243 176.698C114.253 173.471 111.578 169.807 108.819 166.323C107.977 172.219 106.704 178.093 104.652 183.345C104.575 183.538 104.44 183.617 104.299 183.617C104.022 183.617 103.714 183.302 103.785 182.938C104.691 178.201 106.106 173.6 106.974 168.842C107.662 165.078 108.189 161.278 108.563 157.457C107.842 158.037 107.058 158.28 106.267 158.259C106.196 158.531 106.132 158.809 106.068 159.081C105.945 159.554 105.277 159.354 105.405 158.881C105.469 158.645 105.534 158.409 105.604 158.18C104.865 158.023 104.132 157.651 103.45 157.107C103.283 157.343 103.129 157.593 102.955 157.822C102.73 158.123 102.241 157.715 102.46 157.393C102.621 157.157 102.801 156.927 102.975 156.691C102.943 156.663 102.904 156.641 102.872 156.605C101.354 155.138 100.48 153.085 100.113 150.91C100.068 150.924 100.03 150.938 99.9845 150.945C99.5793 151.038 99.4122 150.387 99.811 150.251C99.8755 150.23 99.946 150.216 100.01 150.194C99.9525 149.672 99.9268 149.15 99.92 148.627C99.5537 148.635 99.1869 148.635 98.8335 148.627C98.3834 148.62 98.3898 147.883 98.8335 147.855C99.1861 147.841 99.5588 147.827 99.9383 147.82ZM102.388 149.551C102.748 149.458 102.897 150.059 102.543 150.174C102.093 150.31 101.649 150.46 101.205 150.603C101.315 151.219 101.475 151.827 101.694 152.435C102.054 153.408 102.767 154.732 103.694 155.726C103.951 155.397 104.208 155.068 104.459 154.739C104.626 154.524 104.967 154.81 104.812 155.04C104.574 155.404 104.343 155.77 104.105 156.134C104.652 156.628 105.256 157 105.899 157.122C106.027 156.678 106.156 156.234 106.278 155.784C106.388 155.405 106.915 155.562 106.819 155.948C106.722 156.357 106.626 156.764 106.529 157.165C107.191 157.122 107.88 156.807 108.574 156.098C108.613 156.063 108.651 156.041 108.69 156.02C108.773 155.126 108.851 154.224 108.915 153.33C109.191 149.423 109.255 145.537 109.191 141.659C108.323 140.601 107.063 140.343 105.848 140.572C105.983 141.072 106.027 141.602 105.957 142.117C105.918 142.467 105.417 142.375 105.41 142.031C105.41 141.551 105.326 141.137 105.185 140.743C104.832 140.865 104.484 141.022 104.163 141.215C104.317 141.516 104.478 141.816 104.632 142.124C104.819 142.475 104.349 142.768 104.15 142.439C103.977 142.153 103.81 141.866 103.636 141.58C102.041 142.782 101.398 144.607 101.128 146.74C101.083 147.112 101.057 147.476 101.038 147.842C101.308 147.856 101.572 147.877 101.828 147.914C102.079 147.956 102.208 148.407 101.899 148.464C101.61 148.514 101.32 148.55 101.024 148.579C101.024 149.016 101.044 149.452 101.095 149.881C101.527 149.773 101.958 149.666 102.388 149.551ZM109.198 164.771C111.602 167.776 113.982 170.81 116.419 173.78C118.862 176.763 121.884 180.169 125.807 179.84C133.111 179.225 136.024 166.417 137.471 160.077C140.756 145.688 139.998 129.702 145.457 115.992C145.47 115.957 145.489 115.943 145.508 115.914C145.521 115.828 145.553 115.735 145.611 115.649C147.811 112.623 148.505 109.152 148.524 105.324C148.544 102.447 148.711 95.6856 145.084 95.4568C146.088 99.3423 145.682 104.186 145.502 107.678C145.47 108.394 144.461 108.401 144.493 107.678C144.609 105.339 144.724 102.984 144.596 100.637C144.512 99.1492 144.351 97.6538 144.011 96.2012C143.914 95.8292 143.824 95.4644 143.728 95.092C143.515 93.0738 142.384 92.3228 140.365 92.8022C142.911 96.3586 143.374 105.639 143.065 108.05C143.008 108.465 142.467 108.329 142.442 107.958C142.281 105.36 141.554 91.2065 136.873 92.5663C136.802 92.5877 136.738 92.5735 136.68 92.5521C136.134 93.11 135.851 93.7754 135.876 94.5626C136.693 95.149 137.201 96.3443 137.645 97.4245C139.046 100.873 139.934 104.522 140.455 108.251C140.551 108.93 139.612 109.224 139.522 108.537C139.22 106.355 138.809 104.215 138.217 102.111C137.793 100.587 137.124 97.4454 135.819 95.8501C135.626 96.0004 135.337 96.0004 135.201 95.7141C135.111 95.5353 135.054 95.3422 135.009 95.1343C134.964 95.1058 134.919 95.0772 134.867 95.0482C132.983 96.9874 135.33 101.545 135.973 103.549C136.7 105.824 137.433 108.1 138.012 110.425C138.044 110.561 138.005 110.683 137.928 110.769C137.948 110.776 137.973 110.79 137.986 110.797C138.507 110.997 138.288 111.913 137.761 111.72C136.288 111.176 134.797 110.782 133.247 110.654C131.993 110.554 128.341 110.418 130.938 112.858C132.854 114.661 135.876 114.689 138.179 114.217C138.597 114.131 138.809 114.582 138.661 114.897C138.879 114.976 139.047 115.183 139.04 115.519C138.423 132.556 126.598 145.786 122.978 161.951C122.856 162.473 122.206 162.237 122.271 161.736C122.547 159.525 123.016 157.393 123.614 155.311C123.576 155.275 123.531 155.239 123.492 155.182C122.824 154.094 122.142 153.128 121.312 152.198C118.522 157.042 114.201 161.214 109.796 163.726C109.552 163.869 109.327 163.79 109.179 163.632C109.14 163.969 109.089 164.305 109.044 164.648C109.101 164.678 109.153 164.714 109.198 164.771ZM122.058 148.743C122 148.707 121.949 148.665 121.897 148.6C121.325 147.82 120.759 147.04 120.2 146.274C117.872 151.269 113.969 155.383 109.738 158.388C109.603 159.813 109.461 161.25 109.288 162.696C114.689 158.86 118.38 154.424 122.058 148.743ZM119.724 145.637C119.724 145.63 119.73 145.63 119.73 145.63C117.004 141.895 114.265 138.432 110.272 136.113C110.658 142.296 110.516 148.535 110.053 154.646C109.995 155.361 109.931 156.091 109.867 156.821C113.86 153.801 116.882 150.031 119.724 145.637Z" fill="#222221"/>
<path d="M101.025 148.578C101.025 149.014 101.044 149.451 101.096 149.88C101.527 149.773 101.958 149.666 102.388 149.551C102.748 149.458 102.897 150.059 102.543 150.174C102.093 150.31 101.649 150.46 101.205 150.603C101.315 151.219 101.475 151.826 101.694 152.435C102.054 153.408 102.768 154.732 103.694 155.726C103.951 155.397 104.208 155.068 104.459 154.739C104.626 154.524 104.967 154.81 104.812 155.039C104.574 155.404 104.343 155.769 104.105 156.134C104.652 156.628 105.256 157 105.899 157.122C106.028 156.678 106.156 156.234 106.278 155.784C106.388 155.405 106.915 155.562 106.819 155.948C106.722 156.356 106.626 156.764 106.529 157.164C107.191 157.122 107.88 156.807 108.574 156.098C108.613 156.062 108.651 156.041 108.69 156.02C108.773 155.125 108.851 154.224 108.915 153.329C109.191 149.423 109.255 145.537 109.191 141.659C108.323 140.6 107.063 140.343 105.848 140.571C105.983 141.072 106.028 141.602 105.957 142.117C105.919 142.467 105.417 142.375 105.41 142.031C105.41 141.551 105.327 141.136 105.185 140.743C104.832 140.864 104.485 141.022 104.163 141.215C104.317 141.516 104.478 141.816 104.632 142.124C104.819 142.474 104.349 142.768 104.15 142.439C103.977 142.152 103.81 141.866 103.636 141.58C102.041 142.782 101.398 144.607 101.128 146.739C101.083 147.111 101.057 147.476 101.038 147.842C101.308 147.856 101.572 147.877 101.828 147.913C102.079 147.956 102.208 148.407 101.899 148.464C101.61 148.514 101.321 148.549 101.025 148.578Z" fill="#90A3D2"/>
<path d="M104.311 190.931C102.382 190.902 100.536 192.834 101.52 194.895C101.842 194 102.44 193.206 103.269 192.784C104.813 192.004 106.51 192.369 107.957 193.235C108.137 193.342 108.356 193.471 108.574 193.621C108.509 192.097 105.198 190.938 104.311 190.931Z" fill="white"/>
<path d="M101.507 204.827C101.488 204.834 101.469 204.848 101.45 204.855C105.031 209.013 110.78 212.44 114.175 206.301C114.072 205.635 113.847 204.963 113.48 204.297C110.748 199.403 105.038 202.28 101.784 204.591C101.739 204.626 101.694 204.641 101.649 204.641C101.597 204.72 101.552 204.784 101.507 204.827Z" fill="white"/>
<path d="M102.202 195.31C101.906 196.333 102.228 197.292 102.935 197.857C103.295 196.777 104.15 195.796 105.173 195.446C106.787 194.888 108.529 195.281 109.854 196.326C109.777 194.251 105.957 193.034 104.594 193.292C103.52 193.492 102.543 194.115 102.202 195.31Z" fill="white"/>
<path d="M103.642 198.244C103.648 198.244 103.655 198.244 103.661 198.251C104.066 198.38 104.041 199.095 103.655 199.159C103.706 199.41 103.796 199.646 103.944 199.868C104.767 198.859 106.118 198.315 107.436 198.179C108.716 198.043 110.008 198.308 111.095 198.959C110.362 197.349 108.928 196.297 107.294 196.082C106.33 195.953 105.275 196.104 104.491 196.783C104.054 197.163 103.751 197.693 103.642 198.244Z" fill="white"/>
<path d="M103.931 102.305C103.7 102.984 104.632 103.356 104.947 102.784C106.002 100.866 108.233 99.6286 110.098 101.074C111.834 102.419 111.795 104.866 111.063 106.806C110.921 107.192 111.423 107.45 111.654 107.192C113.557 105.095 112.696 101.174 110.484 99.7718C108.201 98.3187 104.858 99.5278 103.931 102.305Z" fill="#222221"/>
<path d="M104.246 201.156C104.176 201.342 104.111 201.528 104.073 201.736C106.741 200.083 109.944 199.582 112.625 201.485L112.65 201.436C112.606 201.414 112.567 201.378 112.535 201.321C110.933 198.867 106.143 197.95 104.523 200.584C104.607 200.827 104.472 201.113 104.246 201.156Z" fill="white"/>
<path d="M109.178 163.633C109.14 163.97 109.088 164.306 109.043 164.649C109.101 164.678 109.153 164.714 109.198 164.771C111.602 167.776 113.982 170.81 116.419 173.78C118.862 176.763 121.884 180.17 125.807 179.84C133.111 179.225 136.024 166.417 137.471 160.077C140.756 145.688 139.998 129.702 145.457 115.993C145.47 115.957 145.489 115.943 145.508 115.914C145.521 115.828 145.553 115.735 145.611 115.649C147.811 112.623 148.505 109.152 148.524 105.324C148.544 102.447 148.711 95.6857 145.084 95.4569C146.088 99.3424 145.682 104.186 145.502 107.678C145.47 108.394 144.461 108.401 144.493 107.678C144.609 105.339 144.724 102.984 144.596 100.638C144.512 99.1493 144.351 97.6539 144.011 96.2013C143.914 95.8293 143.824 95.4645 143.728 95.0921C143.515 93.0739 142.384 92.3229 140.365 92.8023C142.911 96.3587 143.374 105.639 143.065 108.05C143.008 108.465 142.467 108.33 142.442 107.958C142.281 105.36 141.554 91.2066 136.873 92.5664C136.802 92.5878 136.738 92.5736 136.68 92.5522C136.134 93.1101 135.851 93.7755 135.876 94.5627C136.693 95.1491 137.201 96.3444 137.645 97.4246C139.046 100.873 139.933 104.523 140.455 108.251C140.551 108.93 139.612 109.224 139.522 108.537C139.22 106.355 138.808 104.215 138.217 102.111C137.792 100.587 137.124 97.4455 135.819 95.8502C135.626 96.0005 135.337 96.0005 135.201 95.7142C135.111 95.5354 135.054 95.3422 135.009 95.1344C134.964 95.1059 134.918 95.0773 134.867 95.0483C132.983 96.9875 135.33 101.546 135.973 103.549C136.7 105.824 137.433 108.1 138.012 110.425C138.044 110.561 138.005 110.683 137.928 110.769C137.948 110.776 137.973 110.79 137.986 110.797C138.507 110.997 138.288 111.913 137.761 111.72C136.288 111.176 134.797 110.782 133.247 110.654C131.993 110.554 128.341 110.418 130.938 112.858C132.854 114.661 135.876 114.689 138.178 114.217C138.596 114.131 138.808 114.582 138.661 114.897C138.879 114.976 139.047 115.183 139.04 115.519C138.423 132.556 126.598 145.787 122.978 161.951C122.856 162.473 122.206 162.237 122.27 161.736C122.547 159.525 123.016 157.393 123.614 155.311C123.576 155.275 123.531 155.239 123.492 155.182C122.824 154.094 122.142 153.128 121.312 152.198C118.522 157.043 114.201 161.214 109.796 163.726C109.551 163.869 109.326 163.79 109.178 163.633Z" fill="#ECD8BE"/>
</svg>
