<svg width="376" height="394" viewBox="0 0 376 394" fill="none" xmlns="http://www.w3.org/2000/svg">
<path d="M145.12 246.841C145.12 246.841 134.294 247.258 136.979 260.687C147.724 257.703 145.12 246.841 145.12 246.841Z" fill="#82844A"/>
<path d="M125.941 251.901C137.046 252.914 138.457 241.834 138.457 241.834C138.457 241.834 128.185 238.389 125.941 251.901Z" fill="#82844A"/>
<path d="M115.376 252.058C125.295 246.962 120.548 236.85 120.548 236.85C120.548 236.85 110.028 239.448 115.376 252.058Z" fill="#82844A"/>
<path d="M103.719 241.476C114.728 243.24 116.888 232.28 116.888 232.28C116.888 232.28 106.872 228.148 103.719 241.476Z" fill="#82844A"/>
<path d="M91.1007 253.909C102.251 253.822 102.562 242.656 102.562 242.656C102.562 242.656 92.0003 240.242 91.1007 253.909Z" fill="#82844A"/>
<path d="M97.4305 236.088C97.4305 236.088 88.4075 230.091 82.7269 242.554C93.1856 246.42 97.4305 236.088 97.4305 236.088Z" fill="#82844A"/>
<path d="M72.4843 239.958C83.3866 237.617 81.4322 226.618 81.4322 226.618C81.4322 226.618 70.6003 226.392 72.4843 239.958Z" fill="#82844A"/>
<path d="M79.0874 221.255C79.0874 221.255 70.4908 214.66 63.9792 226.71C74.1532 231.276 79.0874 221.255 79.0874 221.255Z" fill="#82844A"/>
<path d="M97.3448 228.889C107.018 234.437 112.918 224.952 112.918 224.952C112.918 224.952 105.014 217.542 97.3448 228.889Z" fill="#82844A"/>
<path d="M87.6744 224.63C98.8138 224.13 98.7119 212.96 98.7119 212.96C98.7119 212.96 88.0676 210.939 87.6744 224.63Z" fill="#82844A"/>
<path d="M121.792 195.508C121.792 195.508 113.704 202.717 124.321 211.37C130.712 202.232 121.792 195.508 121.792 195.508Z" fill="#82844A"/>
<path d="M116.701 184.242C116.701 184.242 105.915 185.265 109.351 198.524C119.91 194.941 116.701 184.242 116.701 184.242Z" fill="#82844A"/>
<path d="M32.0653 187.577C32.0653 187.577 23.9771 194.786 34.5938 203.439C40.9845 194.301 32.0653 187.577 32.0653 187.577Z" fill="#82844A"/>
<path d="M18.7839 198.092C29.3435 194.51 26.1343 183.811 26.1343 183.811C26.1343 183.811 15.3482 184.835 18.7839 198.092Z" fill="#82844A"/>
<path d="M132.336 212.679C142.155 207.394 137.215 197.376 137.215 197.376C137.215 197.376 126.748 200.175 132.336 212.679Z" fill="#82844A"/>
<path d="M93.7282 208.112C104.783 206.647 103.711 195.528 103.711 195.528C103.711 195.528 92.9304 194.44 93.7282 208.112Z" fill="#82844A"/>
<path d="M85.8932 213.014C94.4403 205.852 87.5764 197.04 87.5764 197.04C87.5764 197.04 77.8926 201.898 85.8932 213.014Z" fill="#82844A"/>
<path d="M76.9388 202.213C76.9388 202.213 66.2573 200.396 66.1269 214.092C77.2558 213.379 76.9388 202.213 76.9388 202.213Z" fill="#82844A"/>
<path d="M97.5571 191.372C108.701 191.762 109.49 180.62 109.49 180.62C109.49 180.62 99.0394 177.757 97.5571 191.372Z" fill="#82844A"/>
<path d="M87.0176 192.123C96.6347 186.478 91.3282 176.649 91.3282 176.649C91.3282 176.649 80.9714 179.832 87.0176 192.123Z" fill="#82844A"/>
<path d="M228.789 107.906C228.789 107.906 226.337 118.459 240 119.409C239.954 108.257 228.789 107.906 228.789 107.906Z" fill="#82844A"/>
<path d="M214.988 103.421C214.988 103.421 209.632 112.839 222.459 117.641C225.591 106.939 214.988 103.421 214.988 103.421Z" fill="#82844A"/>
<path d="M232.5 135.26C237.649 125.368 227.932 119.861 227.932 119.861C227.932 119.861 220.849 128.06 232.5 135.26Z" fill="#82844A"/>
<path d="M207.882 107.245C207.882 107.245 199.536 114.156 209.832 123.188C216.551 114.289 207.882 107.245 207.882 107.245Z" fill="#82844A"/>
<path d="M194.2 119.833C194.2 119.833 190.859 130.139 204.392 132.248C205.295 121.133 194.2 119.833 194.2 119.833Z" fill="#82844A"/>
<path d="M254.045 216.862C254.045 216.862 246.301 224.912 254.056 232.924C263.171 222.702 254.045 216.862 254.045 216.862Z" fill="#82844A"/>
<path d="M268.025 230.935C272.929 218.146 262.326 215.917 262.326 215.917C262.326 215.917 257.935 226.188 268.025 230.935Z" fill="#82844A"/>
<path d="M277.058 236.418C288.051 228.249 280.294 220.686 280.294 220.686C280.294 220.686 271.083 227.003 277.058 236.418Z" fill="#82844A"/>
<path d="M285.763 218.596C285.763 218.596 282.078 229.141 292.467 233.193C296.493 220.101 285.763 218.596 285.763 218.596Z" fill="#82844A"/>
<path d="M290.309 249.421C296.451 237.18 286.121 233.914 286.121 233.914C286.121 233.914 280.737 243.702 290.309 249.421Z" fill="#82844A"/>
<path d="M247.187 272.463C235.431 265.434 231.413 275.497 231.413 275.497C231.413 275.497 240.777 281.588 247.187 272.463Z" fill="#82844A"/>
<path d="M305.423 226.781C305.423 226.781 303.854 237.84 314.831 239.8C316.241 226.177 305.423 226.781 305.423 226.781Z" fill="#82844A"/>
<path d="M304.334 225.563C303.463 211.894 292.896 214.285 292.896 214.285C292.896 214.285 293.185 225.452 304.334 225.563Z" fill="#82844A"/>
<path d="M311.217 211.133C311.217 211.133 305.476 220.715 314.83 226.784C321.421 214.777 311.217 211.133 311.217 211.133Z" fill="#82844A"/>
<path d="M295.961 210.925C302.144 198.705 291.824 195.405 291.824 195.405C291.824 195.405 286.407 205.174 295.961 210.925Z" fill="#82844A"/>
<path d="M304.466 184.103C304.466 184.103 296.282 191.707 303.577 200.14C313.25 190.445 304.466 184.103 304.466 184.103Z" fill="#82844A"/>
<path d="M260.15 233.607C260.15 233.607 250.819 239.747 256.612 249.275C267.76 241.318 260.15 233.607 260.15 233.607Z" fill="#82844A"/>
<path d="M221.46 280.466C232.608 272.51 224.998 264.798 224.998 264.798C224.998 264.798 215.666 270.938 221.46 280.466Z" fill="#82844A"/>
<path d="M243.452 287.63C243.452 287.63 236.512 278.876 227.533 285.488C236.442 295.892 243.452 287.63 243.452 287.63Z" fill="#82844A"/>
<path d="M231.389 302.047C231.389 302.047 234.48 291.312 223.88 287.848C220.594 301.144 231.389 302.047 231.389 302.047Z" fill="#82844A"/>
<path d="M315.731 193.569C315.731 193.569 309.178 202.615 317.971 209.475C325.578 198.086 315.731 193.569 315.731 193.569Z" fill="#82844A"/>
<path d="M322.245 217.668C334.773 212.131 328.879 203.039 328.879 203.039C328.879 203.039 318.499 207.165 322.245 217.668Z" fill="#82844A"/>
<path d="M323.653 196.253C329.267 183.76 318.806 180.939 318.806 180.939C318.806 180.939 313.846 190.948 323.653 196.253Z" fill="#82844A"/>
<path d="M331.851 199.081C343.285 191.542 335.966 183.555 335.966 183.555C335.966 183.555 326.414 189.345 331.851 199.081Z" fill="#82844A"/>
<path d="M342.229 181.664C342.229 181.664 339.01 192.36 349.567 195.952C353.014 182.698 342.229 181.664 342.229 181.664Z" fill="#82844A"/>
<path d="M194.549 17.9971C185.815 24.9305 192.444 33.9212 192.444 33.9212C192.444 33.9212 202.253 29.3211 194.549 17.9971Z" fill="#82844A"/>
<path d="M195.831 43.5564C195.831 43.5564 206.634 42.7281 203.439 29.4097C192.816 32.8007 195.831 43.5564 195.831 43.5564Z" fill="#82844A"/>
<path d="M218.968 33.5527C218.968 33.5527 227.644 27.0639 217.809 17.5325C210.658 26.0881 218.968 33.5527 218.968 33.5527Z" fill="#82844A"/>
<path d="M209.137 55.105C209.137 55.105 217.913 48.7514 208.225 39.0686C200.943 47.5138 209.137 55.105 209.137 55.105Z" fill="#82844A"/>
<path d="M239.445 6.37305C229.209 10.796 233.271 21.2014 233.271 21.2014C233.271 21.2014 243.94 19.3107 239.445 6.37305Z" fill="#82844A"/>
<path d="M227.615 15.2105C227.615 15.2105 234.211 6.61585 222.163 0.101318C217.594 10.2744 227.615 15.2105 227.615 15.2105Z" fill="#82844A"/>
<path d="M248.951 14.9658C237.811 15.478 237.926 26.6478 237.926 26.6478C237.926 26.6478 248.573 28.6575 248.951 14.9658Z" fill="#82844A"/>
<path d="M262.026 11.9727C252.896 18.3749 258.979 27.7435 258.979 27.7435C258.979 27.7435 269.044 23.7337 262.026 11.9727Z" fill="#82844A"/>
<path d="M275.018 20.8626C263.87 20.6189 263.227 31.7706 263.227 31.7706C263.227 31.7706 273.713 34.4971 275.018 20.8626Z" fill="#82844A"/>
<path d="M243.439 31.8495C232.369 30.5062 230.629 41.5399 230.629 41.5399C230.629 41.5399 240.794 45.2879 243.439 31.8495Z" fill="#82844A"/>
<path d="M281.424 77.2904C270.354 75.9471 268.613 86.9808 268.613 86.9808C268.613 86.9808 278.778 90.7288 281.424 77.2904Z" fill="#82844A"/>
<path d="M248.382 47.053C248.382 47.053 258.973 44.7691 254.004 32.0066C243.939 36.8047 248.382 47.053 248.382 47.053Z" fill="#82844A"/>
<path d="M242.616 43.8809C232.563 48.7065 237.035 58.9425 237.035 58.9425C237.035 58.9425 247.62 56.63 242.616 43.8809Z" fill="#82844A"/>
<path d="M234.648 70.0933C234.648 70.0933 239.289 60.3039 226.141 56.4683C223.814 67.3734 234.648 70.0933 234.648 70.0933Z" fill="#82844A"/>
<path d="M234.872 100.486C234.872 100.486 231.534 90.1786 219.336 96.4056C225.122 105.938 234.872 100.486 234.872 100.486Z" fill="#82844A"/>
<path d="M229.599 87.575C229.599 87.575 236.108 78.9146 223.995 72.521C219.53 82.7388 229.599 87.575 229.599 87.575Z" fill="#82844A"/>
<path d="M250.567 65.0552C250.567 65.0552 260.92 61.8603 254.861 49.5767C245.25 55.2315 250.567 65.0552 250.567 65.0552Z" fill="#82844A"/>
<path d="M260.168 42.0112C255.085 51.9358 264.839 57.3794 264.839 57.3794C264.839 57.3794 271.866 49.1341 260.168 42.0112Z" fill="#82844A"/>
<path d="M272.621 48.4723C272.621 48.4723 283.167 45.9857 277.954 33.3203C267.982 38.3116 272.621 48.4723 272.621 48.4723Z" fill="#82844A"/>
<path d="M293.115 35.6062C282.699 39.5875 286.313 50.1575 286.313 50.1575C286.313 50.1575 297.053 48.7238 293.115 35.6062Z" fill="#82844A"/>
<path d="M269.325 77.6217C269.325 77.6217 277.623 70.6559 267.269 61.6909C260.61 70.635 269.325 77.6217 269.325 77.6217Z" fill="#82844A"/>
<path d="M267.713 98.8722C267.713 98.8722 271.587 88.7544 258.181 85.9431C256.701 96.9949 267.713 98.8722 267.713 98.8722Z" fill="#82844A"/>
<path d="M43.0123 205.112C52.6294 199.467 47.323 189.638 47.323 189.638C47.323 189.638 36.9671 192.822 43.0123 205.112Z" fill="#82844A"/>
<path d="M16.442 148.961C19.9044 159.56 30.6401 156.473 30.6401 156.473C30.6401 156.473 29.7386 145.676 16.442 148.961Z" fill="#82844A"/>
<path d="M12.4503 156.397C12.4503 156.397 16.8704 146.506 3.63951 142.966C1.55748 153.922 12.4503 156.397 12.4503 156.397Z" fill="#82844A"/>
<path d="M24.7253 137.54C24.2103 148.679 35.343 149.593 35.343 149.593C35.343 149.593 38.3237 139.176 24.7253 137.54Z" fill="#82844A"/>
<path d="M39.5194 131.477C39.5194 131.477 36.453 121.086 24.0961 126.991C29.631 136.672 39.5194 131.477 39.5194 131.477Z" fill="#82844A"/>
<path d="M43.9205 127.618C43.9205 127.618 47.6 117.428 34.1435 114.874C32.8754 125.951 43.9205 127.618 43.9205 127.618Z" fill="#82844A"/>
<path d="M26.9892 117.633C26.9892 117.633 28.9265 106.974 15.2339 106.688C15.8213 117.824 26.9892 117.633 26.9892 117.633Z" fill="#82844A"/>
<path d="M39.2452 108.349C39.2452 108.349 44.8325 99.0665 32.1271 93.9504C28.7333 104.572 39.2452 108.349 39.2452 108.349Z" fill="#82844A"/>
<path d="M51.0634 123.322C51.0634 123.322 58.1129 115.095 46.4338 107.942C41.3235 117.853 51.0634 123.322 51.0634 123.322Z" fill="#82844A"/>
<path d="M53.7671 102.688C54.7648 113.794 65.9193 113.192 65.9193 113.192C65.9193 113.192 67.4616 102.468 53.7671 102.688Z" fill="#82844A"/>
<path d="M82.7602 134.824C82.7602 134.824 75.1956 127.068 67.0275 138.061C76.4418 144.036 82.7602 134.824 82.7602 134.824Z" fill="#82844A"/>
<path d="M96.2615 132.509C96.2615 132.509 94.7554 121.78 81.6645 125.805C85.7171 136.194 96.2615 132.509 96.2615 132.509Z" fill="#82844A"/>
<path d="M88.6293 150.654C88.6293 150.654 85.3639 140.323 73.1222 146.466C78.8418 156.038 88.6293 150.654 88.6293 150.654Z" fill="#82844A"/>
<path d="M82.4051 119.602C82.4051 119.602 83.0106 108.785 69.3865 110.193C71.3467 121.171 82.4051 119.602 82.4051 119.602Z" fill="#82844A"/>
<path d="M81.1199 106.898C87.2851 116.189 96.807 110.35 96.807 110.35C96.807 110.35 93.058 100.184 81.1199 106.898Z" fill="#82844A"/>
<path d="M77.8127 96.757C77.8127 96.757 72.5262 87.2998 61.7791 95.7907C69.317 104.009 77.8127 96.757 77.8127 96.757Z" fill="#82844A"/>
<path d="M48.572 149.549C48.572 149.549 50.5093 138.89 36.8157 138.604C37.4031 149.74 48.572 149.549 48.572 149.549Z" fill="#82844A"/>
<path d="M52.8807 140.361C52.8807 140.361 63.5431 138.437 59.0078 125.513C48.7862 129.969 52.8807 140.361 52.8807 140.361Z" fill="#82844A"/>
<path d="M65.9812 156.029C65.9812 156.029 73.0308 147.802 61.3516 140.649C56.2423 150.56 65.9812 156.029 65.9812 156.029Z" fill="#82844A"/>
<path d="M75.8458 128.573C75.8458 128.573 77.389 117.848 63.6936 118.068C64.6922 129.175 75.8458 128.573 75.8458 128.573Z" fill="#82844A"/>
<path d="M49.9048 154.917C49.9048 154.917 40.5676 149.421 35.5762 162.175C46.231 165.466 49.9048 154.917 49.9048 154.917Z" fill="#82844A"/>
<path d="M0.151367 164.468C6.93056 173.321 16.0364 166.851 16.0364 166.851C16.0364 166.851 11.6087 156.963 0.151367 164.468Z" fill="#82844A"/>
<path d="M356.426 159.668C356.426 159.668 350.565 169.177 359.843 175.363C366.583 163.44 356.426 159.668 356.426 159.668Z" fill="#82844A"/>
<path d="M357.792 150.845C357.792 150.845 358.696 161.978 369.836 161.472C368.211 147.873 357.792 150.845 357.792 150.845Z" fill="#82844A"/>
<path d="M361.455 141.173C361.455 141.173 365.223 151.687 375.849 148.303C370.743 135.594 361.455 141.173 361.455 141.173Z" fill="#82844A"/>
<path d="M338.071 163.824C338.071 163.824 336.705 174.91 347.717 176.668C348.876 163.022 338.071 163.824 338.071 163.824Z" fill="#82844A"/>
<path d="M346.435 130.178C346.435 130.178 357.558 129.148 356.926 118.014C343.346 119.793 346.435 130.178 346.435 130.178Z" fill="#82844A"/>
<path d="M366.668 112.002C355.633 120.113 363.35 127.718 363.35 127.718C363.35 127.718 372.595 121.449 366.668 112.002Z" fill="#82844A"/>
<path d="M339.551 125.481C339.551 125.481 349.588 120.578 345.054 110.391C332.984 116.863 339.551 125.481 339.551 125.481Z" fill="#82844A"/>
<path d="M329.068 110.127C329.068 110.127 340.17 111.367 341.802 100.336C328.143 99.3321 329.068 110.127 329.068 110.127Z" fill="#82844A"/>
<path d="M301.759 119.78C301.759 119.78 312.861 121.021 314.492 109.99C300.834 108.985 301.759 119.78 301.759 119.78Z" fill="#82844A"/>
<path d="M323.565 108.133C323.565 108.133 333.247 102.562 328.033 92.7053C316.429 99.9815 323.565 108.133 323.565 108.133Z" fill="#82844A"/>
<path d="M314.064 90.7212C305.788 101.635 315.349 106.732 315.349 106.732C315.349 106.732 322.43 98.0935 314.064 90.7212Z" fill="#82844A"/>
<path d="M324.46 144.61C316.185 155.524 325.745 160.621 325.745 160.621C325.745 160.621 332.826 151.982 324.46 144.61Z" fill="#82844A"/>
<path d="M298.852 131.667C298.852 131.667 309.608 134.681 312.998 124.058C299.679 120.865 298.852 131.667 298.852 131.667Z" fill="#82844A"/>
<path d="M297.879 150.716C297.879 150.716 308.954 152.169 310.798 141.171C297.16 139.905 297.879 150.716 297.879 150.716Z" fill="#82844A"/>
<path d="M288.159 136.493C288.159 136.493 288.842 125.344 277.743 124.266C277.424 137.958 288.159 136.493 288.159 136.493Z" fill="#82844A"/>
<path d="M268.796 133.51C268.796 133.51 277.068 126.003 269.874 117.484C260.087 127.065 268.796 133.51 268.796 133.51Z" fill="#82844A"/>
<path d="M334.18 115.782C321.529 121.031 327.213 130.255 327.213 130.255C327.213 130.255 337.686 126.367 334.18 115.782Z" fill="#82844A"/>
<path d="M323.703 89.4351C323.703 89.4351 323.735 78.2653 312.593 77.835C313.071 91.5228 323.703 89.4351 323.703 89.4351Z" fill="#82844A"/>
<path d="M283.881 159.241C283.881 159.241 290.963 150.603 282.596 143.231C274.32 154.144 283.881 159.241 283.881 159.241Z" fill="#82844A"/>
<path d="M294.958 128.392C294.958 128.392 301.212 119.136 292.201 112.568C284.968 124.198 294.958 128.392 294.958 128.392Z" fill="#82844A"/>
<path d="M342.219 139.269C332.929 129.207 326.231 137.723 326.231 137.723C326.231 137.723 333.492 146.211 342.219 139.269Z" fill="#82844A"/>
<path d="M363.916 132.294C350.514 129.473 349.988 140.295 349.988 140.295C349.988 140.295 360.823 143.008 363.916 132.294Z" fill="#82844A"/>
<path d="M98.3464 90.7537C98.3464 90.7537 100.738 80.1865 87.0699 79.3154C87.1794 90.4653 98.3464 90.7537 98.3464 90.7537Z" fill="#82844A"/>
<path d="M82.7012 95.9783C88.7702 105.333 98.3521 99.5912 98.3521 99.5912C98.3521 99.5912 94.7078 89.3886 82.7012 95.9783Z" fill="#82844A"/>
<path d="M194.66 183.723C194.66 183.723 196.202 172.999 182.508 173.219C183.506 184.325 194.66 183.723 194.66 183.723Z" fill="#82844A"/>
<path d="M147.025 228.929C147.025 228.929 148.567 218.205 134.873 218.424C135.87 229.531 147.025 228.929 147.025 228.929Z" fill="#82844A"/>
<path d="M211.501 205.354C211.501 205.354 203.936 197.598 195.768 208.591C205.183 214.566 211.501 205.354 211.501 205.354Z" fill="#82844A"/>
<path d="M225.002 203.039C225.002 203.039 223.497 192.31 210.405 196.335C214.458 206.724 225.002 203.039 225.002 203.039Z" fill="#82844A"/>
<path d="M198.127 180.723C200.087 191.701 211.146 190.132 211.146 190.132C211.146 190.132 211.751 179.314 198.127 180.723Z" fill="#82844A"/>
<path d="M225.548 180.88C225.548 180.88 221.799 170.715 209.861 177.427C216.026 186.72 225.548 180.88 225.548 180.88Z" fill="#82844A"/>
<path d="M190.52 166.321C198.058 174.539 206.554 167.288 206.554 167.288C206.554 167.288 201.267 157.831 190.52 166.321Z" fill="#82844A"/>
<path d="M67.8862 85.809C67.8862 85.809 62.5997 76.3518 51.8526 84.8427C59.3896 93.0613 67.8862 85.809 67.8862 85.809Z" fill="#82844A"/>
<path d="M191.518 146.316C181.295 150.772 185.391 161.165 185.391 161.165C185.391 161.165 196.052 159.24 191.518 146.316Z" fill="#82844A"/>
<path d="M204.587 199.103C204.587 199.103 206.129 188.379 192.434 188.6C193.433 199.706 204.587 199.103 204.587 199.103Z" fill="#82844A"/>
<path d="M217.537 142.58C217.537 142.58 224.158 134.005 212.129 127.456C207.53 137.615 217.537 142.58 217.537 142.58Z" fill="#82844A"/>
<path d="M227.093 170.122C227.093 170.122 223.449 159.918 211.442 166.509C217.511 175.863 227.093 170.122 227.093 170.122Z" fill="#82844A"/>
<path d="M177.344 151.236C179.57 140.309 168.711 137.691 168.711 137.691C168.711 137.691 164.161 147.524 177.344 151.236Z" fill="#82844A"/>
<path d="M129.001 88.3699C126.765 99.295 137.622 101.923 137.622 101.923C137.622 101.923 142.181 92.0931 129.001 88.3699Z" fill="#82844A"/>
<path d="M113.598 98.3714C113.598 98.3714 124.341 99.7823 123.951 86.0916C112.859 87.2263 113.598 98.3714 113.598 98.3714Z" fill="#82844A"/>
<path d="M131.539 126.06C138.84 134.488 147.538 127.481 147.538 127.481C147.538 127.481 142.522 117.877 131.539 126.06Z" fill="#82844A"/>
<path d="M183.642 138.175C183.642 138.175 185.282 127.466 171.587 127.561C172.482 138.675 183.642 138.175 183.642 138.175Z" fill="#82844A"/>
<path d="M179.828 165.95C179.828 165.95 179.669 155.117 166.178 157.483C168.906 168.295 179.828 165.95 179.828 165.95Z" fill="#82844A"/>
<path d="M276.614 162.892C265.541 164.212 266.467 175.344 266.467 175.344C266.467 175.344 277.231 176.574 276.614 162.892Z" fill="#82844A"/>
<path d="M255.671 148.995C255.671 148.995 251.121 158.827 264.305 162.54C266.53 151.614 255.671 148.995 255.671 148.995Z" fill="#82844A"/>
<path d="M268.682 145.668C268.682 145.668 270.323 134.959 256.627 135.053C257.524 146.168 268.682 145.668 268.682 145.668Z" fill="#82844A"/>
<path d="M256.148 165.261C249.232 174.008 257.741 181.244 257.741 181.244C257.741 181.244 266.238 174.523 256.148 165.261Z" fill="#82844A"/>
<path d="M141.805 100.046C140.529 111.124 151.572 112.798 151.572 112.798C151.572 112.798 155.26 102.61 141.805 100.046Z" fill="#82844A"/>
<path d="M202.584 58.1438C202.584 58.1438 201.914 47.33 188.55 50.3298C191.784 61.0008 202.584 58.1438 202.584 58.1438Z" fill="#82844A"/>
<path d="M138.657 84.0647C143.516 94.1017 153.737 89.5968 153.737 89.5968C153.737 89.5968 151.39 79.0201 138.657 84.0647Z" fill="#82844A"/>
<path d="M73.4221 74.8171C72.1454 85.8946 83.1886 87.5692 83.1886 87.5692C83.1886 87.5692 86.8757 77.3818 73.4221 74.8171Z" fill="#82844A"/>
<path d="M86.6282 71.2566C86.6282 71.2566 84.2815 60.6789 71.5485 65.7245C76.4066 75.7614 86.6282 71.2566 86.6282 71.2566Z" fill="#82844A"/>
<path d="M127.463 111.739C116.392 113.069 117.329 124.2 117.329 124.2C117.329 124.2 128.094 125.421 127.463 111.739Z" fill="#82844A"/>
<path d="M125.359 132.618C117.618 140.643 125.376 148.68 125.376 148.68C125.376 148.68 134.491 142.825 125.359 132.618Z" fill="#82844A"/>
<path d="M142.711 119.507C142.711 119.507 147.27 109.678 134.089 105.954C131.855 116.879 142.711 119.507 142.711 119.507Z" fill="#82844A"/>
<path d="M323.75 63.6216C323.75 63.6216 313.138 61.4453 312.544 75.1284C323.69 74.7914 323.75 63.6216 323.75 63.6216Z" fill="#82844A"/>
<path d="M340.502 76.6288C340.502 76.6288 329.889 74.4516 329.294 88.1356C340.44 87.7986 340.502 76.6288 340.502 76.6288Z" fill="#82844A"/>
<path d="M277.348 117.555C288.494 117.218 288.556 106.048 288.556 106.048C288.556 106.048 277.941 103.872 277.348 117.555Z" fill="#82844A"/>
<path d="M311.499 55.6887C311.499 55.6887 305.931 46.3952 295.444 55.205C303.224 63.1933 311.499 55.6887 311.499 55.6887Z" fill="#82844A"/>
<path d="M292.222 80.5596C291.947 91.7075 303.096 92.3815 303.096 92.3815C303.096 92.3815 305.853 81.9038 292.222 80.5596Z" fill="#82844A"/>
<path d="M300.332 105.116C300.332 105.116 301.552 94.3511 287.87 94.9823C289.2 106.053 300.332 105.116 300.332 105.116Z" fill="#82844A"/>
<path d="M311.103 66.7957C311.103 66.7957 306.362 57.0529 295.151 64.9193C302.208 73.552 311.103 66.7957 311.103 66.7957Z" fill="#82844A"/>
<path d="M200.135 91.0277C200.135 91.0277 195.118 81.4249 184.136 89.6074C191.438 98.0364 200.135 91.0277 200.135 91.0277Z" fill="#82844A"/>
<path d="M207.287 76.0328C207.287 76.0328 210.974 65.8454 197.52 63.2808C196.242 74.3582 207.287 76.0328 207.287 76.0328Z" fill="#82844A"/>
<path d="M199.374 83.6916C199.374 83.6916 203.932 73.8631 190.751 70.1389C188.517 81.0641 199.374 83.6916 199.374 83.6916Z" fill="#82844A"/>
<path d="M164.171 34.7551C164.171 34.7551 173.054 28.5509 163.533 18.7053C156.108 27.0248 164.171 34.7551 164.171 34.7551Z" fill="#82844A"/>
<path d="M300.559 48.8437C300.559 48.8437 309.441 42.6395 299.92 32.7939C292.494 41.1135 300.559 48.8437 300.559 48.8437Z" fill="#82844A"/>
<path d="M97.3049 56.1998C97.3049 56.1998 104.354 47.9727 92.6753 40.8193C87.565 50.7306 97.3049 56.1998 97.3049 56.1998Z" fill="#82844A"/>
<path d="M136.152 18.6548C128.318 26.5907 135.983 34.716 135.983 34.716C135.983 34.716 145.166 28.9668 136.152 18.6548Z" fill="#82844A"/>
<path d="M120.795 70.0961C122.316 81.1431 133.429 80.0159 133.429 80.0159C133.429 80.0159 134.464 69.2307 120.795 70.0961Z" fill="#82844A"/>
<path d="M119.208 59.1787C119.208 59.1787 126.427 51.099 114.897 43.7058C109.584 53.5095 119.208 59.1787 119.208 59.1787Z" fill="#82844A"/>
<path d="M109.227 67.7751C105.614 78.3243 116.046 82.3188 116.046 82.3188C116.046 82.3188 121.823 73.153 109.227 67.7751Z" fill="#82844A"/>
<path d="M141.739 51.4418C141.739 51.4418 150.387 44.9158 140.512 35.4263C133.398 44.0133 141.739 51.4418 141.739 51.4418Z" fill="#82844A"/>
<path d="M150.145 63.5094C150.145 63.5094 160.89 62.1223 157.01 48.9875C146.577 52.9241 150.145 63.5094 150.145 63.5094Z" fill="#82844A"/>
<path d="M156.657 45.2965C156.657 45.2965 160.462 35.152 147.038 32.4331C145.633 43.4944 156.657 45.2965 156.657 45.2965Z" fill="#82844A"/>
<path d="M116.321 31.9496C106.316 27.0239 101.029 36.8628 101.029 36.8628C101.029 36.8628 109.385 43.7591 116.321 31.9496Z" fill="#82844A"/>
<path d="M92.3811 75.0475C92.3811 75.0475 103.216 75.1151 101.132 61.5776C90.2658 64.0795 92.3811 75.0475 92.3811 75.0475Z" fill="#82844A"/>
<path d="M123.158 10.6238C115.324 18.5597 122.989 26.6859 122.989 26.6859C122.989 26.6859 132.173 20.9358 123.158 10.6238Z" fill="#82844A"/>
<path d="M175.506 32.8206C167.066 40.1072 174.059 48.818 174.059 48.818C174.059 48.818 183.67 43.8171 175.506 32.8206Z" fill="#82844A"/>
<path d="M161.445 42.8813C158.224 53.5571 168.796 57.1633 168.796 57.1633C168.796 57.1633 174.231 47.7908 161.445 42.8813Z" fill="#82844A"/>
<path d="M242.928 227.452C242.429 226.327 241.79 225.34 240.886 224.93C238.943 224.05 236.625 225.429 235.293 227.083C231.43 231.879 229.669 240.388 230.109 251.867C236.07 245.631 238.059 237.414 241.771 229.638C242.115 228.915 242.51 228.184 242.928 227.452Z" fill="#82844A"/>
<path d="M130.787 184.059C134.162 185.342 135.959 187.084 137.474 189.946C137.037 187.264 136.393 184.674 135.636 182.762C133.55 177.491 128.049 172.632 119.285 168.32C109.268 163.39 99.3136 167.605 90.5237 173.134C97.2506 172.157 104.103 174.303 110.916 175.779C114.712 176.601 123.316 177.138 125.896 180.51C123.926 181.392 121.703 180.722 119.987 181.989C122.496 183.835 127.636 182.86 130.787 184.059Z" fill="#82844A"/>
<path d="M202.327 317.698C200.715 316.53 199.048 315.323 197.391 314.235C194.734 312.492 190.873 310.254 188.017 310.974C186.797 311.28 185.836 312.102 185.083 313.486C183.507 316.38 184.838 321.955 188.833 329.186C193.025 336.774 203.415 345.4 213.44 347.804C212.393 344.975 211.51 342.049 210.861 338.938C205.162 336.25 196.26 330.77 196.762 326.409C196.882 325.365 197.547 323.64 200.617 323.64C200.674 323.64 200.733 323.64 200.792 323.642C202.986 323.688 206.276 324.689 209.667 326.089C209.642 324.907 209.622 323.722 209.596 322.537C208.717 322.071 207.83 321.545 206.928 320.942C205.368 319.902 203.822 318.781 202.327 317.698Z" fill="#82844A"/>
<path d="M137.58 69.1451C144.374 71.5308 149.591 75.9109 153.29 81.4354C153.38 81.5239 153.472 81.601 153.561 81.6934L154.531 82.6863C155.426 83.6012 156.354 84.5484 157.271 85.5499C157.694 86.0107 158.126 86.4724 158.562 86.937C162.046 90.6498 165.647 94.4902 165.979 99.9185C166.197 103.49 165.139 107.517 162.996 111.256C161.331 114.163 159.245 116.032 157.239 117.618C156.628 118.102 155.919 118.821 155.167 119.582C154.74 120.015 154.309 120.451 153.874 120.869C150.827 126.256 147.141 131.382 144.168 136.388C143.023 138.315 141.976 140.304 141.049 142.339C141.198 144.844 141.631 147.491 142.159 149.739C143.244 154.356 144.934 158.027 147.326 160.963C151.009 165.484 153.68 169.126 154.519 174.847C156.274 186.809 162.574 195.059 173.246 199.365C176.691 200.755 180.394 201.383 184.056 201.875C182.94 198.338 183.056 194.727 183.407 190.492C181.373 191.5 178.1 198.848 177.129 192.207C176.465 187.665 178.588 185.459 175.851 180.751C173.892 177.381 171.467 174.379 169.177 171.258C168.404 170.485 167.603 169.702 166.778 168.897C160.086 162.36 152.502 154.952 152.971 144.837C153.122 141.599 154.458 134.935 158.44 132.894C160.131 132.027 161.453 132.376 162.262 132.82C162.677 133.048 163.058 133.373 163.416 133.752C164.369 130.719 165.603 127.792 167.073 125.052C169.218 121.055 171.456 115.992 176.352 115.284C180.254 114.719 190.183 121.127 192.585 116.503C191.366 116.163 189.938 116.406 188.755 116.019C187.162 115.497 186.44 114.068 184.574 113.915C186.204 107.986 195.381 107.886 200.021 105.888C206.606 103.053 212.091 96.9854 215.331 90.7336C220.721 80.333 218.807 69.9666 220.746 59.0044C222.268 50.3935 229.809 41.7713 229.588 33.0005C223.475 39.2066 216.623 47.4185 214.117 55.8951C211.063 66.2281 211.968 78.0444 206.119 87.3902C201.487 94.791 194.793 97.0844 186.818 99.1892C183.339 100.107 181.112 100.416 181.05 96.4037C181.004 93.3449 181.791 90.1938 182.477 87.2359C183.776 81.6325 185.59 76.1937 187.149 70.6654C183.82 70.5712 180.022 76.8753 179.11 79.5276C177.746 83.4955 178.21 87.7595 177.523 91.8436C177.013 94.8786 175.368 99.532 172.626 101.253C171.162 96.7064 170.149 90.6146 170.414 85.7832C170.722 80.1435 172.32 74.5067 175.718 70.0238C178.697 66.0949 181.995 61.5357 183.479 56.81C185.868 49.1988 186.306 39.4122 185.162 31.5525C181.752 34.8331 182.561 42.3986 182.091 46.8245C181.572 51.7101 179.595 56.3778 175.851 59.7107C172.676 62.5372 169.387 64.6459 166.467 67.8027C163.305 71.2214 163.105 74.0136 161.562 77.9692C159.527 77.912 155.619 71.5432 153.723 70.0142C146.874 64.4879 136.744 61.9603 131.494 54.7603C129.067 51.4321 127.045 46.9968 125.366 43.1745C123.858 39.7425 123.562 32.3331 120.454 30.1331C120.127 35.4214 119.984 41.3381 122.371 46.1371C125.373 52.1728 132.112 55.3858 134.135 61.8213C134.292 62.3183 134.185 62.6972 133.818 62.958C126.656 61.986 120.458 64.7621 113.688 61.3806C110.42 59.7488 107.323 55.4639 103.453 55.6562C108.203 68.5748 127.153 65.4837 137.58 69.1451Z" fill="#82844A"/>
<path d="M199.715 325.625C198.864 325.801 198.703 326.211 198.655 326.627C198.335 329.406 205.209 333.995 210.438 336.654C209.998 333.849 209.82 331.037 209.727 328.218C206.3 326.7 202.884 325.539 200.663 325.539C200.316 325.539 199.999 325.566 199.715 325.625Z" fill="#82844A"/>
<path d="M281.842 198.833C279.652 199.468 277.457 199.953 275.466 200.387L274.148 200.677C271.68 201.227 269.15 201.717 266.472 202.237C256.667 204.137 246.528 206.103 238.834 211.125C231.642 215.82 229.765 223.553 227.95 231.031C226.567 236.729 225.906 242.873 225.441 248.131C225.33 249.392 225.238 250.647 225.146 251.896C225.038 253.377 224.914 254.894 224.769 256.41C225.79 255.628 226.803 254.838 227.796 254.025C227.966 253.886 228.118 253.74 228.282 253.598C227.557 240.675 229.405 231.357 233.81 225.889C235.648 223.608 238.79 221.894 241.671 223.196C242.727 223.674 243.485 224.515 244.081 225.524C244.856 224.273 245.66 223.036 246.392 221.853C248.718 218.092 251.942 215.684 255.711 213.351C264.796 207.729 270.789 211.176 279.899 212.945C277.676 210.116 274.761 209.225 272.045 207.29C274.829 203.787 278.444 201.423 281.842 198.833Z" fill="#82844A"/>
<path d="M225.685 146.009C219.41 142.925 213.845 149.602 207.028 147.458C203.818 146.448 201.619 144.924 200.207 141.992C199.4 140.316 199.442 137.507 197.626 136.929C196.513 155.409 216.489 150.376 226.116 159.445C234.476 167.32 234.896 181.725 232.837 192.427C231.916 197.22 230.307 201.2 226.022 203.924C223.966 205.231 221.46 205.531 219.439 206.83C216.765 208.55 215.935 211.745 213.632 213.862C204.375 222.376 193.385 216.135 186.905 207.37C186.039 206.197 185.368 205.048 184.839 203.901C180.727 203.369 176.518 202.74 172.533 201.132C161.189 196.554 154.494 187.803 152.635 175.123C151.867 169.884 149.338 166.448 145.849 162.166C143.271 159.001 141.458 155.078 140.305 150.174C140.106 149.326 139.784 147.832 139.52 146.048C138.124 149.859 137.212 153.802 136.971 157.806C140.644 162.057 143.781 166.871 146.588 172.587C148.199 175.866 148.879 179.223 149.536 182.468C150.46 187.026 151.332 191.331 154.615 195.345C158.62 200.243 164.016 202.297 169.729 204.47C171.388 205.101 173.103 205.753 174.779 206.479C183.808 210.39 192.929 218.94 198.015 228.258C204.33 239.829 207.399 251.821 207.399 264.915C207.399 267.478 207.269 269.92 207.143 272.281C207.1 273.094 207.057 273.9 207.02 274.704C207.235 274.22 207.465 273.733 207.71 273.242C210.693 267.27 216.127 262.907 221.344 258.998C221.795 258.66 222.246 258.316 222.698 257.976C222.939 255.911 223.097 253.801 223.247 251.756C223.339 250.497 223.432 249.233 223.544 247.962C223.729 245.873 223.947 243.644 224.226 241.357C219.006 233.615 218.093 226.042 221.449 218.219C223.315 213.866 226.666 210.073 229.908 206.404C234.978 200.665 239.768 195.243 239.402 187.865C239.179 183.362 238.11 178.816 237.077 174.418C235.651 168.352 234.177 162.08 234.815 155.656C235.357 150.198 237.512 145.038 241.8 138.923C244.939 134.448 245.514 129.11 244.661 124.249C243.87 127.289 242.238 130.138 240.375 132.624C238.493 135.136 229.765 147.142 228.837 138.678C226.358 140.266 225.761 143.151 225.685 146.009Z" fill="#82844A"/>
<path d="M158.179 279.909C159.025 281.56 159.878 283.24 160.676 284.951C161.171 286.013 161.554 287.31 161.924 288.562C162.373 290.084 162.835 291.644 163.478 292.76C164.791 290.376 164.864 284.877 164.303 280.246C163.778 275.918 161.748 271.707 159.552 268.252C159.41 271.755 158.951 275.278 158.371 278.879C158.315 279.225 158.247 279.566 158.179 279.909Z" fill="#82844A"/>
<path d="M170.137 297.842C167.977 318.305 184.343 338.917 201.521 350.269C206.068 353.272 211.048 355.789 216.323 357.746C216.843 357.939 217.435 358.14 218.068 358.346C216.707 355.557 215.418 352.794 214.273 349.961C203.129 347.876 191.694 338.303 187.166 330.106C184.11 324.574 180.978 317.043 183.41 312.575C184.419 310.725 185.812 309.564 187.554 309.127C191.094 308.246 195.229 310.54 198.434 312.643C200.128 313.754 201.813 314.974 203.443 316.155C204.924 317.228 206.455 318.337 207.984 319.357C208.506 319.706 209.022 320.02 209.536 320.318C209.44 317.329 209.247 314.329 208.758 311.314C203.805 307.762 199.835 302.546 196.591 297.83C192.785 292.299 190.484 285.55 189.13 275.945C188.495 271.44 189.367 265.824 190.291 259.879C192.152 247.913 194.075 235.539 184.64 229.589C179.781 226.525 173.83 224.991 168.075 223.508C167.109 223.259 166.151 223.011 165.203 222.759C160.467 221.496 156.015 219.444 152.434 216.933C152.551 217.158 152.675 217.383 152.79 217.609C152.687 222.738 152.028 227.911 152.537 233.014C152.561 233.255 152.61 233.493 152.639 233.733C152.18 233.64 151.746 233.568 151.371 233.537C146.296 233.121 141.61 232.897 136.77 231.464C129.368 229.273 125.298 225.952 124.211 218.221C120.715 219.235 123.895 225.124 124.781 227.633C115.619 226.933 110.028 210.403 108.845 203.381C104.249 203.638 110.592 215.485 111.589 218.125C113.895 224.233 116.896 229.25 122.7 233.005C127.644 236.204 133.593 236.151 138.621 238.556C143.831 241.049 149.825 245.557 153.981 249.437C155.564 250.914 156.859 252.433 157.961 253.99C158.015 254.195 158.062 254.399 158.115 254.604C163.097 258.65 167.324 262.745 169.89 270.251C172.396 277.583 171.367 286.783 170.458 294.9C170.347 295.899 170.238 296.881 170.137 297.842ZM175.118 234.706C175.811 233.853 176.8 233.387 177.982 233.358C179.918 233.311 182.25 234.485 183.877 236.349C186.985 239.909 186.905 244.309 186.574 247.31C186.125 251.382 185.103 253.667 183.36 254.502C182.915 254.716 182.441 254.821 181.941 254.821C181.057 254.821 180.09 254.489 179.049 253.826C176.026 251.899 173.732 246.683 173.101 245.129C171.378 240.886 171.924 238.057 175.118 234.706Z" fill="#82844A"/>
<path d="M180.073 252.219C181.109 252.88 181.94 253.072 182.537 252.785C183.269 252.435 184.233 251.165 184.681 247.102C185.145 242.9 184.433 239.882 182.442 237.601C181.233 236.214 179.458 235.262 178.097 235.262C178.074 235.262 178.052 235.262 178.029 235.263C177.396 235.279 176.923 235.495 176.582 235.925L176.523 235.993C173.824 238.812 173.421 240.856 174.865 244.413C176.055 247.34 178.048 250.929 180.073 252.219Z" fill="#82844A"/>
<path d="M151.677 300.11C149.188 313.486 158.459 325.543 157.666 338.821C157.344 344.22 155.201 350.387 152.243 355.917C152.687 356.278 153.093 356.668 153.478 357.044C154.723 358.259 155.756 359.299 157.86 359.288C160.711 359.259 163.744 357.075 165.973 353.447C169.991 346.908 169.468 338.775 168.428 331.683C167.357 324.389 165.982 319.44 161.788 314.175C156.892 308.032 154.738 304.258 154.074 296.781C153.946 295.342 153.913 293.932 153.936 292.532C153.001 295.019 152.159 297.522 151.677 300.11Z" fill="#82844A"/>
<path d="M249.192 386.937L249.075 386.925C246.696 386.674 244.238 386.417 241.806 386.078C238.335 385.598 235.235 384.179 232.238 382.807C231.17 382.319 230.067 381.814 228.965 381.36C221.118 378.129 214.856 377.349 209.82 378.977C209.096 379.211 208.82 379.412 208.727 379.5C208.953 379.975 210.383 380.926 211.17 381.449C212.831 382.553 214.614 383.574 216.338 384.559C217.177 385.04 218.016 385.519 218.845 386.011C219.587 386.45 220.315 386.903 221.037 387.361C232.891 388.435 244.222 392.769 256.439 391.996C255.845 388.648 252.436 387.662 249.192 386.937Z" fill="#82844A"/>
<path d="M194.527 385.298C191.343 382.958 188.05 380.538 184.763 378.364C179.779 375.068 175.858 373.839 170.319 373.839C170.3 373.839 170.283 373.839 170.265 373.839C162.742 373.851 157.547 377.486 152.048 381.334C147.829 384.287 143.468 387.339 137.931 388.712C134.228 389.63 130.519 388.911 126.932 388.218C124.267 387.703 121.513 387.178 118.787 387.318C121.628 387.921 124.567 389.07 127.995 390.746C134.988 394.164 144.971 394.518 152.718 393.161C161.831 391.566 169.225 387.12 178.808 388.964C184.4 390.04 189.986 391.774 195.874 390.972C197.565 390.741 199.193 390.319 200.808 389.845C198.692 388.355 196.602 386.823 194.527 385.298Z" fill="#82844A"/>
<path d="M282.842 176.985C277.779 181.465 271.419 180.699 265.693 183.357C266.541 183.501 267.373 183.681 268.165 183.855C269.185 184.079 270.148 184.29 271.052 184.413C274.876 184.929 278.873 184.199 281.746 182.455C286.68 179.461 288.16 173.906 287.396 168.38C286.956 171.468 285.788 174.377 282.842 176.985Z" fill="#82844A"/>
<path d="M340.733 151.753C335.866 154.259 333.42 157.944 329.375 161.224C325.953 164 320.222 164.268 315.964 164.902C311.968 165.497 308.627 166.887 305.097 167.847C304.112 163.428 308.723 161.143 311.404 158.731C314.353 156.079 315.967 153.285 317.122 149.501C318.45 145.152 317.866 140.637 318.72 136.255C319.372 132.913 319.902 129.488 320.618 126.146C321.413 122.432 324.353 118.842 324.933 115.381C326.127 108.249 320.609 118.026 319.578 119.871C316.895 124.673 314.508 128.916 313.589 134.473C312.717 139.743 313.773 145.565 311.532 150.597C309.625 154.878 305.364 155.063 301.863 157.594C299.635 159.205 295.687 164.43 293.415 161.938C291.413 159.742 292.972 153.406 293.38 150.85C293.955 147.246 294.694 143.716 296.235 140.405C296.762 139.271 301.165 131.899 296.921 134.683C294.908 136.003 293.31 141.913 292.048 144.107C290.036 147.601 288.211 151.255 287.768 155.305C287.517 157.59 287.579 159.867 287.623 162.097C290.845 169.85 290.286 179.5 282.734 184.083C279.5 186.046 275.037 186.876 270.796 186.299C269.816 186.166 268.769 185.936 267.757 185.715C266.041 185.339 264.371 184.976 262.85 184.976C260.588 186.429 257.988 188.192 255.632 188.261C251.359 188.389 249.765 181.401 248.621 178.439C246.909 174.001 243.483 168.979 243.288 164.121C243.056 158.281 244.966 153.52 248.307 148.574C251.239 144.235 251.75 141.028 252.794 135.991C254.701 126.793 261.42 119.647 268.455 113.916C277.041 106.921 284.097 102.81 285.73 91.0563C286.378 86.403 286.934 81.5611 288.217 76.9791C289.177 73.5519 290.926 70.4712 290.543 66.8117C288.356 67.0421 287.549 70.6131 286.093 72.023C283.574 65.4161 286.576 56.0027 283.203 49.769C279.608 53.9912 281.409 60.003 282.136 65.0734C283.052 71.4727 284.041 79.58 282.497 85.8936C281.018 91.9436 276.85 97.0035 271.663 100.32C267.742 102.826 262.623 103.335 259.056 106.218C257.354 107.593 254.563 114.283 252.726 114.362C250.446 114.459 249.521 108.506 249.288 106.931C248.044 98.5514 250.949 93.146 254.826 86.0431C256.547 82.8901 263.651 71.5765 259.213 68.83C257.484 70.7787 257.308 74.2145 256.058 76.6326C254.724 79.2163 252.569 81.602 250.947 84.0068C249.289 86.4658 247.05 88.7182 246.219 91.6447C245.557 93.9761 245.983 96.8578 244.793 98.8684C240.303 96.0838 241.446 85.5538 242.238 81.2831C243.321 75.454 245.599 68.2702 242.65 62.6544C243.477 69.7668 238.603 78.2672 237.716 85.4433C236.968 91.5028 237.384 97.6385 239.065 103.513C240.551 108.705 244.357 113.394 245.05 118.72C247.547 125.135 247.985 133.424 243.359 140.02C239.267 145.852 237.217 150.733 236.708 155.848C236.101 161.957 237.538 168.071 238.928 173.986C239.981 178.466 241.07 183.098 241.302 187.775C241.706 195.927 236.433 201.896 231.333 207.668C228.192 211.223 224.943 214.902 223.196 218.974C220.387 225.521 220.857 231.9 224.622 238.406C225.002 235.794 225.475 233.15 226.098 230.585C228 222.746 229.967 214.64 237.792 209.534C245.798 204.307 256.122 202.305 266.108 200.37C268.772 199.854 271.29 199.365 273.732 198.821L275.058 198.53C278.463 197.787 282.505 196.901 285.966 195.316C286.978 194.303 287.917 193.201 288.742 191.957C294.035 183.971 299.347 179.688 309.02 178.116C312.681 177.521 317.562 176.914 320.802 175.172C325.257 172.776 328.491 167.403 331.802 163.759C337.528 157.458 346.03 153.513 352.488 147.796C348.305 148.355 344.511 149.807 340.733 151.753Z" fill="#82844A"/>
<path d="M279.053 387.487C280.579 387.423 282.035 387.264 283.448 387.066C282.204 386.331 280.97 385.503 279.757 384.559C278.45 383.541 277.159 382.271 275.91 381.043C273.736 378.906 271.489 376.696 269.08 375.704C265.58 374.262 261.432 373.732 257.7 374.243C254.191 374.725 251.097 376.166 247.821 377.692C246.559 378.28 245.254 378.888 243.916 379.441C243.481 379.621 243.044 379.811 242.605 380.003C241.066 380.674 239.476 381.367 237.8 381.69C237.193 381.806 236.467 381.88 235.765 381.951C235.568 381.971 235.346 381.994 235.12 382.02C237.384 383.013 239.622 383.855 242.068 384.194C244.469 384.527 246.911 384.784 249.273 385.032L249.783 385.086C251.865 385.304 254.183 385.267 256.639 385.231C258.647 385.199 260.722 385.166 262.686 385.286C264.786 385.413 266.857 385.879 268.86 386.331C270.378 386.672 271.946 387.026 273.483 387.218C273.496 387.22 273.51 387.223 273.523 387.225C275.318 387.439 277.14 387.569 279.053 387.487Z" fill="#82844A"/>
<path d="M83.8855 175.277C94.3156 168.012 106.954 160.13 120.124 166.61C129.326 171.138 135.14 176.337 137.406 182.061C138.721 185.381 139.712 190.63 139.934 195.049C142.09 199.284 144.54 203.252 147.022 207.387C148.013 209.038 148.979 210.673 149.911 212.307C150.026 212.431 150.124 212.569 150.245 212.687C153.919 216.282 159.55 219.284 165.694 220.921C166.635 221.173 167.589 221.417 168.55 221.665C174.446 223.185 180.545 224.757 185.655 227.98C196.147 234.597 194.036 248.185 192.173 260.172C191.271 265.975 190.419 271.455 191.015 275.68C192.326 284.978 194.53 291.477 198.159 296.753C200.936 300.789 204.251 305.195 208.226 308.504C207.965 307.244 207.692 306.001 207.408 304.787C207.695 303.687 208.016 302.616 208.39 301.62C210.484 296.038 213.605 292.367 218.249 288.809C221.251 286.509 224.651 284.714 227.426 282.122C228.057 281.531 230.381 280.069 230.554 279.178C230.821 277.803 229.529 278.319 228.593 278.753C226.734 279.614 225.024 280.922 223.28 282.007C220.454 283.767 217.781 285.555 215.132 287.505C215.82 284.169 217.332 279.098 216.627 277.326C214.967 280.096 213.176 284.91 212.479 286.412C211.887 287.688 211.19 289.301 210.741 290.855C208.863 292.241 206.928 293.482 205.154 294.789C204.307 290.158 203.985 285.6 205.037 280.736C204.941 277.887 205.087 275.07 205.241 272.18C205.365 269.844 205.494 267.428 205.494 264.915C205.494 252.147 202.5 240.455 196.342 229.17C191.447 220.201 182.686 211.98 174.021 208.226C172.384 207.517 170.691 206.873 169.051 206.249C163.357 204.083 157.467 201.842 153.14 196.55C149.559 192.17 148.599 187.43 147.669 182.846C147.036 179.719 146.38 176.485 144.878 173.426C142.143 167.857 139.09 163.173 135.52 159.04C130.411 157.009 125.336 154.686 120.041 154.647C118.653 154.637 117.471 154.694 116.435 154.798C116.242 152.633 116.695 150.483 117.585 147.176C114.999 148.776 112.881 152.409 110.569 155.728C110.407 155.737 110.254 155.74 110.08 155.757C107.758 155.985 102.651 158.108 100.671 155.512C98.9747 153.288 100.559 148.911 101.51 146.653C102.716 143.787 105.201 142.598 107.218 140.379C109.066 138.348 110.145 136.26 110.682 133.54C111.085 131.502 110.919 129.329 110.813 127.187C110.758 126.07 110.74 124.947 110.736 123.823C111.713 120.768 113.156 117.869 114.933 114.655C117.257 110.453 118.49 106.452 118.482 101.569C117.939 105.104 115.435 108.198 113.298 111.005C111.881 112.867 111.229 114.601 110.65 116.428C110.492 113.471 110.064 110.555 108.913 107.746C106.034 100.724 107.451 93.283 105.331 86.281C98.2559 94.85 105.242 106.974 106.21 116.257C106.736 121.298 106.649 126.751 104.642 131.504C103.14 129.731 100.651 127.648 100.056 126.465C99.0613 124.488 98.3568 122.344 97.6628 120.277C97.1744 118.824 96.7394 115.734 95.6684 114.912C93.0009 117.112 96.3938 124.036 97.679 126.345C99.721 130.011 101.059 132.87 101.502 136.613C99.3631 139.28 96.8403 141.646 94.9277 144.508C92.7495 147.769 91.9127 154.059 89.2071 156.527C87.0156 158.526 68.1556 159.233 65.3967 158.721C61.8486 158.062 58.7489 156.406 56.0699 153.797C52.6427 150.458 53.0178 147.002 51.2166 142.838C48.3863 152.687 54.5239 161.949 63.626 165.487C61.1298 170.012 52.8141 170.263 48.4311 172.096C42.105 174.742 37.1051 179.454 29.8043 176.922C25.0709 175.28 23.1403 171.034 21.0935 166.749C19.7549 163.947 18.9096 158.752 15.4138 158.092C18.1032 163.417 19.1638 168.557 20.9716 174.2C24.5283 185.299 38.9339 187.316 49.0489 185.693C52.2753 185.175 54.9599 183.603 57.7255 182.007C62.1989 179.423 66.9342 177.405 71.6342 175.693C68.1327 183.578 64.0296 191.883 55.2341 195.105C58.5147 198.166 66.3696 189.804 68.8762 188.107C69.0228 199.975 51.2481 206.1 52.7132 217.833C54.0317 214.15 54.739 210.8 57.9292 208.135C60.9546 205.609 64.419 203.685 67.2797 200.854C74.6853 193.53 74.3902 180.423 83.8855 175.277Z" fill="#82844A"/>
<path d="M184.104 365.394C184.679 365.44 185.175 365.247 185.668 364.78C187.83 362.73 185.361 358.315 183.727 355.394C183.361 354.741 183.034 354.156 182.796 353.669C182.61 353.288 182.433 352.813 182.228 352.264C181.763 351.021 180.987 348.94 180.071 348.695C179.694 348.595 179.224 348.856 178.856 349.136C177.043 352.677 176.353 357.672 178.867 361.019C180.956 363.806 182.719 365.277 184.104 365.394Z" fill="#82844A"/>
<path d="M161.345 134.488C160.963 134.278 160.337 134.061 159.309 134.588C156.357 136.102 155.021 141.732 154.873 144.925C154.516 152.625 159.259 158.611 164.728 164.182C160.519 155.52 160.294 145.368 162.766 136.006C162.273 135.203 161.788 134.732 161.345 134.488Z" fill="#82844A"/>
<path d="M161.344 110.311C163.304 106.89 164.275 103.241 164.079 100.036C163.79 95.2918 160.426 91.7076 157.174 88.2404C156.989 88.0424 156.809 87.8472 156.625 87.6501C158.002 90.9193 158.974 94.417 159.517 98.0412C160.462 104.357 159 110.221 156.482 115.78C158.762 113.922 160.198 112.309 161.344 110.311Z" fill="#82844A"/>
<path d="M102.825 389.322C106.172 388.038 109.037 387.271 111.722 386.971C114.261 386.095 116.68 385.531 118.609 385.419C121.602 385.241 124.493 385.808 127.294 386.35C130.833 387.034 134.176 387.68 137.473 386.864C142.666 385.577 146.879 382.627 150.956 379.775C156.455 375.927 162.141 371.948 170.261 371.936C170.279 371.936 170.298 371.936 170.316 371.936C176.198 371.936 180.547 373.296 185.812 376.777C189.139 378.977 192.451 381.411 195.653 383.764C198.119 385.577 200.604 387.4 203.132 389.146C204.939 388.594 206.757 388.057 208.659 387.731C211.482 387.246 214.251 387.085 216.986 387.137C216.454 386.828 215.924 386.519 215.39 386.213C213.638 385.212 211.828 384.176 210.113 383.037C208.312 381.838 206.61 380.707 206.814 379.228C206.98 378.029 208.274 377.478 209.232 377.168C214.715 375.397 221.408 376.193 229.689 379.602C230.563 379.962 231.423 380.348 232.269 380.734C233.033 380.334 234.206 380.199 235.57 380.06C236.231 379.992 236.915 379.922 237.44 379.821C238.908 379.539 240.4 378.889 241.842 378.259C242.293 378.063 242.74 377.868 243.186 377.684C244.486 377.147 245.771 376.548 247.014 375.968C250.274 374.449 253.644 372.879 257.439 372.359C261.493 371.799 266 372.379 269.803 373.945C272.558 375.079 274.94 377.422 277.243 379.687C278.509 380.933 279.704 382.108 280.925 383.059C282.362 384.178 284.276 385.477 286.515 386.58C292.248 385.58 297.445 384.418 303.711 386.579C298.799 381.892 293.639 382.704 286.897 381.783C279.232 380.736 277.122 375.225 271.656 370.365C262.816 362.503 255.465 370.388 245.083 370.377C234.315 370.366 227.201 376.879 221.315 364.916C220.616 363.495 219.921 362.101 219.234 360.719C217.914 360.304 216.672 359.909 215.658 359.533C210.247 357.525 205.138 354.943 200.469 351.859C182.811 340.19 165.996 318.901 168.24 297.644C168.342 296.679 168.453 295.693 168.565 294.691C169.451 286.773 170.456 277.798 168.088 270.87C166.02 264.82 162.74 261.082 158.826 257.687C158.829 257.699 158.832 257.712 158.834 257.724C159.3 260.124 159.515 262.504 159.569 264.883C162.414 268.853 165.499 274.308 166.192 280.019C166.434 282.026 167.475 292.183 164.055 295.044L163.377 295.612L162.761 294.977C161.425 293.598 160.75 291.313 160.097 289.104C159.73 287.862 159.384 286.691 158.949 285.757C158.478 284.749 157.985 283.745 157.486 282.749C157.113 284.046 156.678 285.323 156.213 286.59C155.897 289.976 155.671 293.242 155.97 296.613C156.619 303.926 158.799 307.374 163.277 312.99C167.717 318.562 169.218 323.963 170.311 331.407C171.402 338.839 171.932 347.387 167.594 354.445C166.358 356.457 162.937 361.141 157.878 361.193C157.851 361.193 157.824 361.193 157.797 361.193C155.002 361.193 153.486 359.714 152.147 358.407C151.859 358.127 151.583 357.86 151.303 357.613C151.275 357.662 151.249 357.713 151.221 357.762C142.809 357.742 132.712 353.427 126.745 351.126C113.91 346.173 104.42 357.732 97.7 367.665C94.1709 372.88 90.5695 377.099 86.0941 380.596C88.9511 380.392 91.7947 379.77 94.7326 378.439C97.441 377.213 99.7192 375.411 102.062 373.466C104.541 370.092 106.885 366.669 110.116 363.827C116.77 357.973 125.773 362.156 131.788 369.406C130.148 368.679 128.51 367.798 126.748 367.366C123.192 366.493 121.397 367.41 117.964 368.203C111.511 369.694 106.327 373.527 100.921 376.824C99.2527 378.101 97.4877 379.283 95.518 380.175C91.53 381.98 87.6744 382.575 83.8246 382.575C83.162 382.575 82.4984 382.541 81.8358 382.509C74.5054 382.891 64.7312 383.807 63.7393 390.963C71.8113 386.535 79.513 389.471 87.8153 388.574C95.6674 387.726 101.973 383.021 110.196 382.844C107.173 384.091 104.064 386.335 102.825 389.322ZM177.263 348.073L177.352 347.905L177.498 347.784C178.556 346.909 179.587 346.599 180.562 346.856C182.427 347.354 183.306 349.708 184.012 351.599C184.192 352.08 184.361 352.534 184.507 352.832C184.732 353.292 185.043 353.845 185.389 354.464C187.311 357.899 190.214 363.092 186.978 366.161C186.177 366.921 185.271 367.305 184.278 367.305C184.167 367.305 184.057 367.3 183.944 367.29C181.31 367.069 178.915 364.257 177.342 362.162C174.288 358.093 175.101 352.154 177.263 348.073Z" fill="#82844A"/>
</svg>
