<svg width="1440" height="1303" viewBox="0 0 1440 1303" fill="none" xmlns="http://www.w3.org/2000/svg">
<g clip-path="url(#clip0_219_43)">
<path d="M594.391 46.1489C597.493 43.0972 601.935 38.5366 600.562 33.6369C598.155 25.126 587.643 31.3989 581.421 36.6716C579.251 30.1783 572.198 25.4311 566.552 32.2127C558.889 41.4357 575.792 67.6297 576.877 66.765C576.877 66.765 588.881 51.5912 594.374 46.1489H594.391Z" fill="#C37E61" fill-opacity="0.2"/>
<path d="M75.5969 694.928C78.6994 691.876 83.1414 687.315 81.7681 682.416C79.3606 673.905 68.8492 680.178 62.627 685.45C60.4569 678.957 53.4041 674.21 47.7584 680.992C40.0952 690.215 56.9983 716.408 58.0834 715.544C58.0834 715.544 70.0868 700.37 75.5799 694.928H75.5969Z" fill="#C37E61" fill-opacity="0.2"/>
<path d="M42.3853 261.804C37.2482 253.75 28.1439 261.99 23.8715 268.585C20.6672 265.008 16.5304 262.482 11.5968 261.617C7.05314 260.837 0.695394 260.803 0.0850495 266.517C-1.61035 282.471 19.9721 292.372 28.2117 302.697C29.3646 304.138 31.0092 303.612 31.8569 302.408C32.1451 302.137 32.3994 301.781 32.552 301.323C35.2307 293.253 37.9433 285.183 40.6051 277.079C42.0123 272.79 45.1996 266.195 42.3853 261.804Z" fill="#C37E61" fill-opacity="0.2"/>
<path d="M275.198 237.108C276.224 227.612 263.967 228.35 256.51 230.826C256.245 226.03 254.596 221.472 251.287 217.713C248.228 214.263 243.287 210.262 239.239 214.339C227.941 225.73 238.594 246.951 238.569 260.161C238.568 262.007 240.18 262.625 241.594 262.215C241.989 262.184 242.41 262.065 242.815 261.803C249.951 257.18 257.114 252.578 264.258 247.917C268.038 245.449 274.649 242.295 275.198 237.108Z" fill="#C37E61" fill-opacity="0.2"/>
<path d="M286.169 597.371C283.901 594.252 280.434 597.797 278.874 600.56C277.494 599.197 275.765 598.28 273.755 598.053C271.905 597.851 269.341 597.993 269.236 600.311C268.945 606.783 277.887 610.243 281.462 614.202C281.962 614.754 282.612 614.502 282.924 613.996C283.033 613.88 283.127 613.73 283.177 613.542C284.059 610.223 284.954 606.904 285.827 603.572C286.289 601.809 287.411 599.072 286.169 597.371Z" fill="#C37E61" fill-opacity="0.2"/>
<path d="M317.169 472.371C314.901 469.252 311.434 472.797 309.874 475.56C308.494 474.197 306.765 473.28 304.755 473.053C302.905 472.851 300.341 472.993 300.236 475.311C299.945 481.783 308.887 485.243 312.462 489.202C312.962 489.754 313.612 489.502 313.924 488.996C314.033 488.88 314.127 488.73 314.177 488.542C315.059 485.223 315.954 481.904 316.827 478.572C317.289 476.809 318.411 474.072 317.169 472.371Z" fill="#C37E61" fill-opacity="0.2"/>
<path d="M230.436 337.393C226.806 336.089 225.933 340.97 226.198 344.132C224.29 343.781 222.345 343.996 220.555 344.938C218.911 345.811 216.872 347.371 218.088 349.347C221.488 354.862 230.827 352.693 236.01 353.956C236.734 354.132 237.13 353.558 237.103 352.964C237.128 352.806 237.121 352.63 237.057 352.446C235.919 349.206 234.792 345.958 233.641 342.712C233.031 340.994 232.42 338.1 230.436 337.393Z" fill="#C37E61" fill-opacity="0.2"/>
<path d="M113.366 121.343C109.736 120.039 108.863 124.92 109.127 128.082C107.22 127.731 105.274 127.946 103.485 128.888C101.841 129.761 99.8016 131.321 101.018 133.297C104.417 138.812 113.757 136.643 118.939 137.906C119.663 138.082 120.059 137.508 120.032 136.914C120.057 136.756 120.051 136.58 119.986 136.396C118.849 133.156 117.722 129.908 116.57 126.662C115.96 124.944 115.35 122.05 113.366 121.343Z" fill="#C37E61" fill-opacity="0.2"/>
<path d="M400.366 85.3427C396.736 84.0391 395.863 88.92 396.127 92.082C394.22 91.7308 392.274 91.9456 390.485 92.8881C388.841 93.7613 386.802 95.3209 388.018 97.2967C391.417 102.812 400.757 100.643 405.939 101.906C406.663 102.082 407.059 101.508 407.032 100.914C407.057 100.756 407.051 100.58 406.986 100.396C405.849 97.1561 404.722 93.9081 403.57 90.6619C402.96 88.9442 402.35 86.0502 400.366 85.3427Z" fill="#C37E61" fill-opacity="0.2"/>
<path d="M501.704 473.678C498.228 468.236 492.057 473.796 489.175 478.255C487.004 475.831 484.207 474.119 480.867 473.542C477.798 473.017 473.492 473 473.068 476.865C471.915 487.665 486.53 494.362 492.091 501.347C492.871 502.33 493.99 501.957 494.566 501.16C494.769 500.974 494.939 500.736 495.041 500.414C496.855 494.955 498.686 489.479 500.483 484.02C501.432 481.121 503.585 476.662 501.687 473.678H501.704Z" fill="#C37E61" fill-opacity="0.2"/>
<path d="M162.03 31.1792C163.963 25.3301 165.912 19.4979 167.845 13.6488C168.506 11.6651 171.66 5.54474 171.032 3.54416C168.032 -6.00094 160.691 6.35853 159.758 9.17289C159.08 11.2752 156.299 11.6651 155.113 9.78324C152.57 5.76514 144.432 -1.54204 140.329 3.6798C137.091 7.79962 142.787 13.6488 145.907 16.8022C151.01 21.9562 157.012 25.9743 162.03 31.1622V31.1792Z" fill="#C37E61" fill-opacity="0.2"/>
<path d="M143.72 466.54C142.482 462.031 139.498 458.369 134.497 456.809C128.783 455.029 122.29 456.894 120.103 462.76C115.78 474.305 124.748 488.869 135.158 493.802C135.819 494.837 171.338 480.171 167.574 466.761C164.506 455.809 151.247 461.064 143.737 466.54H143.72Z" fill="#C37E61" fill-opacity="0.2"/>
<path d="M510.57 706.473C510.061 703.795 508.841 701.607 506.789 700.675C504.45 699.624 501.788 700.726 500.889 704.218C499.126 711.085 502.788 719.765 507.044 722.698C507.315 723.325 521.845 714.577 520.319 706.609C519.064 700.082 513.639 703.218 510.553 706.473H510.57Z" fill="#C37E61" fill-opacity="0.2"/>
<path d="M35.9083 35.095C35.3997 32.4163 34.179 30.2292 32.1275 29.2968C29.7879 28.2456 27.1261 29.3476 26.2276 32.8402C24.4643 39.7065 28.1264 48.387 32.3819 51.32C32.6531 51.9473 47.1827 43.1991 45.6568 35.2307C44.4022 28.7034 38.977 31.8399 35.8913 35.095H35.9083Z" fill="#C37E61" fill-opacity="0.2"/>
<path d="M696.759 241.544C696.25 238.866 695.03 236.678 692.978 235.746C690.639 234.695 687.977 235.797 687.078 239.289C685.315 246.156 688.977 254.836 693.233 257.769C693.504 258.397 708.033 249.648 706.507 241.68C705.253 235.153 699.828 238.289 696.742 241.544H696.759Z" fill="#C37E61" fill-opacity="0.2"/>
<path d="M20.6496 492.853C20.141 490.174 18.9203 487.987 16.8689 487.055C14.5292 486.004 11.8675 487.106 10.9689 490.598C9.20568 497.465 12.8677 506.145 17.1232 509.078C17.3945 509.705 31.924 500.957 30.3982 492.989C29.1436 486.461 23.7183 489.598 20.6327 492.853H20.6496Z" fill="#C37E61" fill-opacity="0.2"/>
<path d="M648.915 436.99C641.268 432.039 629.994 429.971 626.179 440.787C624.484 445.602 626.857 449.841 630.35 453.028C637.115 459.216 645.151 464.353 652.458 469.88C653.441 470.626 674.142 440.77 664.461 428.411C658.731 421.087 651.169 429.699 648.915 436.99Z" fill="#C37E61" fill-opacity="0.2"/>
<path d="M487.275 290.337C481.29 281.538 476.255 304.697 474.169 298.323C471.152 289.049 464.438 290.083 459.369 293.643C450.908 299.594 460.114 305.138 463.302 307.579C468.574 311.598 473.864 315.582 479.154 319.566C482.29 313.835 485.969 307.952 487.495 301.595C488.089 299.136 488.987 292.863 487.258 290.337H487.275Z" fill="#C37E61" fill-opacity="0.2"/>
</g>
<g clip-path="url(#clip1_219_43)">
<path d="M1328.39 46.1489C1331.49 43.0972 1335.94 38.5366 1334.56 33.6369C1332.15 25.126 1321.64 31.3989 1315.42 36.6716C1313.25 30.1783 1306.2 25.4311 1300.55 32.2127C1292.89 41.4357 1309.79 67.6297 1310.88 66.765C1310.88 66.765 1322.88 51.5912 1328.37 46.1489H1328.39Z" fill="#C37E61" fill-opacity="0.2"/>
<path d="M809.597 694.928C812.699 691.876 817.141 687.315 815.768 682.416C813.361 673.905 802.849 680.178 796.627 685.45C794.457 678.957 787.404 674.21 781.758 680.992C774.095 690.215 790.998 716.408 792.083 715.544C792.083 715.544 804.087 700.37 809.58 694.928H809.597Z" fill="#C37E61" fill-opacity="0.2"/>
<path d="M776.385 261.804C771.248 253.75 762.144 261.99 757.872 268.585C754.667 265.008 750.53 262.482 745.597 261.617C741.053 260.837 734.695 260.803 734.085 266.517C732.39 282.471 753.972 292.372 762.212 302.697C763.365 304.138 765.009 303.612 765.857 302.408C766.145 302.137 766.399 301.781 766.552 301.323C769.231 293.253 771.943 285.183 774.605 277.079C776.012 272.79 779.2 266.195 776.385 261.804Z" fill="#C37E61" fill-opacity="0.2"/>
<path d="M1009.2 237.108C1010.22 227.612 997.967 228.35 990.51 230.826C990.245 226.03 988.596 221.472 985.287 217.713C982.228 214.263 977.287 210.262 973.239 214.339C961.941 225.73 972.594 246.951 972.569 260.161C972.568 262.007 974.18 262.625 975.594 262.215C975.989 262.184 976.41 262.065 976.815 261.803C983.951 257.18 991.114 252.578 998.258 247.917C1002.04 245.449 1008.65 242.295 1009.2 237.108Z" fill="#C37E61" fill-opacity="0.2"/>
<path d="M1020.17 597.371C1017.9 594.252 1014.43 597.797 1012.87 600.56C1011.49 599.197 1009.76 598.28 1007.76 598.053C1005.9 597.851 1003.34 597.993 1003.24 600.311C1002.94 606.783 1011.89 610.243 1015.46 614.202C1015.96 614.754 1016.61 614.502 1016.92 613.996C1017.03 613.88 1017.13 613.73 1017.18 613.542C1018.06 610.223 1018.95 606.904 1019.83 603.572C1020.29 601.809 1021.41 599.072 1020.17 597.371Z" fill="#C37E61" fill-opacity="0.2"/>
<path d="M1051.17 472.371C1048.9 469.252 1045.43 472.797 1043.87 475.56C1042.49 474.197 1040.76 473.28 1038.76 473.053C1036.9 472.851 1034.34 472.993 1034.24 475.311C1033.94 481.783 1042.89 485.243 1046.46 489.202C1046.96 489.754 1047.61 489.502 1047.92 488.996C1048.03 488.88 1048.13 488.73 1048.18 488.542C1049.06 485.223 1049.95 481.904 1050.83 478.572C1051.29 476.809 1052.41 474.072 1051.17 472.371Z" fill="#C37E61" fill-opacity="0.2"/>
<path d="M964.436 337.393C960.806 336.089 959.933 340.97 960.198 344.132C958.29 343.781 956.345 343.996 954.555 344.938C952.911 345.811 950.872 347.371 952.088 349.347C955.488 354.862 964.827 352.693 970.01 353.956C970.734 354.132 971.13 353.558 971.103 352.964C971.128 352.806 971.121 352.63 971.057 352.446C969.919 349.206 968.792 345.958 967.641 342.712C967.031 340.994 966.42 338.1 964.436 337.393Z" fill="#C37E61" fill-opacity="0.2"/>
<path d="M847.366 121.343C843.736 120.039 842.863 124.92 843.127 128.082C841.22 127.731 839.274 127.946 837.485 128.888C835.841 129.761 833.802 131.321 835.018 133.297C838.417 138.812 847.757 136.643 852.939 137.906C853.663 138.082 854.059 137.508 854.032 136.914C854.057 136.756 854.051 136.58 853.986 136.396C852.849 133.156 851.722 129.908 850.57 126.662C849.96 124.944 849.35 122.05 847.366 121.343Z" fill="#C37E61" fill-opacity="0.2"/>
<path d="M1134.37 85.3427C1130.74 84.0391 1129.86 88.92 1130.13 92.082C1128.22 91.7308 1126.27 91.9456 1124.48 92.8881C1122.84 93.7613 1120.8 95.3209 1122.02 97.2967C1125.42 102.812 1134.76 100.643 1139.94 101.906C1140.66 102.082 1141.06 101.508 1141.03 100.914C1141.06 100.756 1141.05 100.58 1140.99 100.396C1139.85 97.1561 1138.72 93.9081 1137.57 90.6619C1136.96 88.9442 1136.35 86.0502 1134.37 85.3427Z" fill="#C37E61" fill-opacity="0.2"/>
<path d="M1235.7 473.678C1232.23 468.236 1226.06 473.796 1223.17 478.255C1221 475.831 1218.21 474.119 1214.87 473.542C1211.8 473.017 1207.49 473 1207.07 476.865C1205.92 487.665 1220.53 494.362 1226.09 501.347C1226.87 502.33 1227.99 501.957 1228.57 501.16C1228.77 500.974 1228.94 500.736 1229.04 500.414C1230.85 494.955 1232.69 489.479 1234.48 484.02C1235.43 481.121 1237.59 476.662 1235.69 473.678H1235.7Z" fill="#C37E61" fill-opacity="0.2"/>
<path d="M896.03 31.1792C897.963 25.3301 899.912 19.4979 901.845 13.6488C902.506 11.6651 905.66 5.54474 905.032 3.54416C902.032 -6.00094 894.691 6.35853 893.758 9.17289C893.08 11.2752 890.299 11.6651 889.113 9.78324C886.57 5.76514 878.432 -1.54204 874.329 3.6798C871.091 7.79962 876.787 13.6488 879.907 16.8022C885.01 21.9562 891.012 25.9743 896.03 31.1622V31.1792Z" fill="#C37E61" fill-opacity="0.2"/>
<path d="M877.72 466.54C876.482 462.031 873.498 458.369 868.497 456.809C862.783 455.029 856.29 456.894 854.103 462.76C849.78 474.305 858.748 488.869 869.158 493.802C869.819 494.837 905.338 480.171 901.574 466.761C898.505 455.809 885.247 461.064 877.737 466.54H877.72Z" fill="#C37E61" fill-opacity="0.2"/>
<path d="M1244.57 706.473C1244.06 703.795 1242.84 701.607 1240.79 700.675C1238.45 699.624 1235.79 700.726 1234.89 704.218C1233.13 711.085 1236.79 719.765 1241.04 722.698C1241.32 723.325 1255.84 714.577 1254.32 706.609C1253.06 700.082 1247.64 703.218 1244.55 706.473H1244.57Z" fill="#C37E61" fill-opacity="0.2"/>
<path d="M769.908 35.095C769.4 32.4163 768.179 30.2292 766.128 29.2968C763.788 28.2456 761.126 29.3476 760.228 32.8402C758.464 39.7065 762.126 48.387 766.382 51.32C766.653 51.9473 781.183 43.1991 779.657 35.2307C778.402 28.7034 772.977 31.8399 769.891 35.095H769.908Z" fill="#C37E61" fill-opacity="0.2"/>
<path d="M1430.76 241.544C1430.25 238.866 1429.03 236.678 1426.98 235.746C1424.64 234.695 1421.98 235.797 1421.08 239.289C1419.31 246.156 1422.98 254.836 1427.23 257.769C1427.5 258.397 1442.03 249.648 1440.51 241.68C1439.25 235.153 1433.83 238.289 1430.74 241.544H1430.76Z" fill="#C37E61" fill-opacity="0.2"/>
<path d="M754.65 492.853C754.141 490.174 752.92 487.987 750.869 487.055C748.529 486.004 745.867 487.106 744.969 490.598C743.206 497.465 746.868 506.145 751.123 509.078C751.394 509.705 765.924 500.957 764.398 492.989C763.144 486.461 757.718 489.598 754.633 492.853H754.65Z" fill="#C37E61" fill-opacity="0.2"/>
<path d="M1382.91 436.99C1375.27 432.039 1363.99 429.971 1360.18 440.787C1358.48 445.602 1360.86 449.841 1364.35 453.028C1371.11 459.216 1379.15 464.353 1386.46 469.88C1387.44 470.626 1408.14 440.77 1398.46 428.411C1392.73 421.087 1385.17 429.699 1382.91 436.99Z" fill="#C37E61" fill-opacity="0.2"/>
<path d="M1221.27 290.337C1215.29 281.538 1210.25 304.697 1208.17 298.323C1205.15 289.049 1198.44 290.083 1193.37 293.643C1184.91 299.594 1194.11 305.138 1197.3 307.579C1202.57 311.598 1207.86 315.582 1213.15 319.566C1216.29 313.835 1219.97 307.952 1221.5 301.595C1222.09 299.136 1222.99 292.863 1221.26 290.337H1221.27Z" fill="#C37E61" fill-opacity="0.2"/>
</g>
<g clip-path="url(#clip2_219_43)">
<path d="M1333.39 769.149C1336.49 766.097 1340.94 761.537 1339.56 756.637C1337.15 748.126 1326.64 754.399 1320.42 759.672C1318.25 753.178 1311.2 748.431 1305.55 755.213C1297.89 764.436 1314.79 790.63 1315.88 789.765C1315.88 789.765 1327.88 774.591 1333.37 769.149H1333.39Z" fill="#C37E61" fill-opacity="0.2"/>
<path d="M781.385 984.804C776.248 976.75 767.144 984.99 762.872 991.585C759.667 988.008 755.53 985.482 750.597 984.617C746.053 983.837 739.695 983.803 739.085 989.517C737.39 1005.47 758.972 1015.37 767.212 1025.7C768.365 1027.14 770.009 1026.61 770.857 1025.41C771.145 1025.14 771.399 1024.78 771.552 1024.32C774.231 1016.25 776.943 1008.18 779.605 1000.08C781.012 995.79 784.2 989.195 781.385 984.804Z" fill="#C37E61" fill-opacity="0.2"/>
<path d="M1014.2 960.108C1015.22 950.612 1002.97 951.35 995.51 953.826C995.245 949.03 993.596 944.472 990.287 940.713C987.228 937.263 982.287 933.262 978.239 937.339C966.941 948.73 977.594 969.951 977.569 983.161C977.568 985.007 979.18 985.625 980.594 985.215C980.989 985.184 981.41 985.065 981.815 984.803C988.951 980.18 996.114 975.578 1003.26 970.917C1007.04 968.449 1013.65 965.295 1014.2 960.108Z" fill="#C37E61" fill-opacity="0.2"/>
<path d="M1056.17 1195.37C1053.9 1192.25 1050.43 1195.8 1048.87 1198.56C1047.49 1197.2 1045.76 1196.28 1043.76 1196.05C1041.9 1195.85 1039.34 1195.99 1039.24 1198.31C1038.94 1204.78 1047.89 1208.24 1051.46 1212.2C1051.96 1212.75 1052.61 1212.5 1052.92 1212C1053.03 1211.88 1053.13 1211.73 1053.18 1211.54C1054.06 1208.22 1054.95 1204.9 1055.83 1201.57C1056.29 1199.81 1057.41 1197.07 1056.17 1195.37Z" fill="#C37E61" fill-opacity="0.2"/>
<path d="M969.436 1060.39C965.806 1059.09 964.933 1063.97 965.198 1067.13C963.29 1066.78 961.345 1067 959.555 1067.94C957.911 1068.81 955.872 1070.37 957.088 1072.35C960.488 1077.86 969.827 1075.69 975.01 1076.96C975.734 1077.13 976.13 1076.56 976.103 1075.96C976.128 1075.81 976.121 1075.63 976.057 1075.45C974.919 1072.21 973.792 1068.96 972.641 1065.71C972.031 1063.99 971.42 1061.1 969.436 1060.39Z" fill="#C37E61" fill-opacity="0.2"/>
<path d="M852.366 844.343C848.736 843.039 847.863 847.92 848.127 851.082C846.22 850.731 844.274 850.946 842.485 851.888C840.841 852.761 838.802 854.321 840.018 856.297C843.417 861.812 852.757 859.643 857.939 860.906C858.663 861.082 859.059 860.508 859.032 859.914C859.057 859.756 859.051 859.58 858.986 859.396C857.849 856.156 856.722 852.908 855.57 849.662C854.96 847.944 854.35 845.05 852.366 844.343Z" fill="#C37E61" fill-opacity="0.2"/>
<path d="M1139.37 808.343C1135.74 807.039 1134.86 811.92 1135.13 815.082C1133.22 814.731 1131.27 814.946 1129.48 815.888C1127.84 816.761 1125.8 818.321 1127.02 820.297C1130.42 825.812 1139.76 823.643 1144.94 824.906C1145.66 825.082 1146.06 824.508 1146.03 823.914C1146.06 823.756 1146.05 823.58 1145.99 823.396C1144.85 820.156 1143.72 816.908 1142.57 813.662C1141.96 811.944 1141.35 809.05 1139.37 808.343Z" fill="#C37E61" fill-opacity="0.2"/>
<path d="M1240.7 1196.68C1237.23 1191.24 1231.06 1196.8 1228.17 1201.26C1226 1198.83 1223.21 1197.12 1219.87 1196.54C1216.8 1196.02 1212.49 1196 1212.07 1199.87C1210.92 1210.66 1225.53 1217.36 1231.09 1224.35C1231.87 1225.33 1232.99 1224.96 1233.57 1224.16C1233.77 1223.97 1233.94 1223.74 1234.04 1223.41C1235.85 1217.96 1237.69 1212.48 1239.48 1207.02C1240.43 1204.12 1242.59 1199.66 1240.69 1196.68H1240.7Z" fill="#C37E61" fill-opacity="0.2"/>
<path d="M901.03 754.179C902.963 748.33 904.912 742.498 906.845 736.649C907.506 734.665 910.66 728.545 910.032 726.544C907.032 716.999 899.691 729.359 898.758 732.173C898.08 734.275 895.299 734.665 894.113 732.783C891.57 728.765 883.432 721.458 879.329 726.68C876.091 730.8 881.787 736.649 884.907 739.802C890.01 744.956 896.012 748.974 901.03 754.162V754.179Z" fill="#C37E61" fill-opacity="0.2"/>
<path d="M882.72 1189.54C881.482 1185.03 878.498 1181.37 873.497 1179.81C867.783 1178.03 861.29 1179.89 859.103 1185.76C854.78 1197.31 863.748 1211.87 874.158 1216.8C874.819 1217.84 910.338 1203.17 906.574 1189.76C903.505 1178.81 890.247 1184.06 882.737 1189.54H882.72Z" fill="#C37E61" fill-opacity="0.2"/>
<path d="M774.908 758.095C774.4 755.416 773.179 753.229 771.128 752.297C768.788 751.246 766.126 752.348 765.228 755.84C763.464 762.707 767.126 771.387 771.382 774.32C771.653 774.947 786.183 766.199 784.657 758.231C783.402 751.703 777.977 754.84 774.891 758.095H774.908Z" fill="#C37E61" fill-opacity="0.2"/>
<path d="M1435.76 964.544C1435.25 961.866 1434.03 959.678 1431.98 958.746C1429.64 957.695 1426.98 958.797 1426.08 962.289C1424.31 969.156 1427.98 977.836 1432.23 980.769C1432.5 981.397 1447.03 972.648 1445.51 964.68C1444.25 958.153 1438.83 961.289 1435.74 964.544H1435.76Z" fill="#C37E61" fill-opacity="0.2"/>
<path d="M759.65 1215.85C759.141 1213.17 757.92 1210.99 755.869 1210.05C753.529 1209 750.867 1210.11 749.969 1213.6C748.206 1220.46 751.868 1229.14 756.123 1232.08C756.394 1232.71 770.924 1223.96 769.398 1215.99C768.144 1209.46 762.718 1212.6 759.633 1215.85H759.65Z" fill="#C37E61" fill-opacity="0.2"/>
<path d="M1387.91 1159.99C1380.27 1155.04 1368.99 1152.97 1365.18 1163.79C1363.48 1168.6 1365.86 1172.84 1369.35 1176.03C1376.11 1182.22 1384.15 1187.35 1391.46 1192.88C1392.44 1193.63 1413.14 1163.77 1403.46 1151.41C1397.73 1144.09 1390.17 1152.7 1387.91 1159.99Z" fill="#C37E61" fill-opacity="0.2"/>
<path d="M1226.27 1013.34C1220.29 1004.54 1215.25 1027.7 1213.17 1021.32C1210.15 1012.05 1203.44 1013.08 1198.37 1016.64C1189.91 1022.59 1199.11 1028.14 1202.3 1030.58C1207.57 1034.6 1212.86 1038.58 1218.15 1042.57C1221.29 1036.84 1224.97 1030.95 1226.5 1024.59C1227.09 1022.14 1227.99 1015.86 1226.26 1013.34H1226.27Z" fill="#C37E61" fill-opacity="0.2"/>
</g>
<g clip-path="url(#clip3_219_43)">
<path d="M594.391 769.149C597.493 766.097 601.935 761.537 600.562 756.637C598.155 748.126 587.643 754.399 581.421 759.672C579.251 753.178 572.198 748.431 566.552 755.213C558.889 764.436 575.792 790.63 576.877 789.765C576.877 789.765 588.881 774.591 594.374 769.149H594.391Z" fill="#C37E61" fill-opacity="0.2"/>
<path d="M42.3853 984.804C37.2482 976.75 28.1439 984.99 23.8715 991.585C20.6672 988.008 16.5304 985.482 11.5968 984.617C7.05314 983.837 0.695394 983.803 0.0850495 989.517C-1.61035 1005.47 19.9721 1015.37 28.2117 1025.7C29.3646 1027.14 31.0092 1026.61 31.8569 1025.41C32.1451 1025.14 32.3994 1024.78 32.552 1024.32C35.2307 1016.25 37.9433 1008.18 40.6051 1000.08C42.0123 995.79 45.1996 989.195 42.3853 984.804Z" fill="#C37E61" fill-opacity="0.2"/>
<path d="M275.198 960.108C276.224 950.612 263.967 951.35 256.51 953.826C256.245 949.03 254.596 944.472 251.287 940.713C248.228 937.263 243.287 933.262 239.239 937.339C227.941 948.73 238.594 969.951 238.569 983.161C238.568 985.007 240.18 985.625 241.594 985.215C241.989 985.184 242.41 985.065 242.815 984.803C249.951 980.18 257.114 975.578 264.258 970.917C268.038 968.449 274.649 965.295 275.198 960.108Z" fill="#C37E61" fill-opacity="0.2"/>
<path d="M317.169 1195.37C314.901 1192.25 311.434 1195.8 309.874 1198.56C308.494 1197.2 306.765 1196.28 304.755 1196.05C302.905 1195.85 300.341 1195.99 300.236 1198.31C299.945 1204.78 308.887 1208.24 312.462 1212.2C312.962 1212.75 313.612 1212.5 313.924 1212C314.033 1211.88 314.127 1211.73 314.177 1211.54C315.059 1208.22 315.954 1204.9 316.827 1201.57C317.289 1199.81 318.411 1197.07 317.169 1195.37Z" fill="#C37E61" fill-opacity="0.2"/>
<path d="M230.436 1060.39C226.806 1059.09 225.933 1063.97 226.198 1067.13C224.29 1066.78 222.345 1067 220.555 1067.94C218.911 1068.81 216.872 1070.37 218.088 1072.35C221.488 1077.86 230.827 1075.69 236.01 1076.96C236.734 1077.13 237.13 1076.56 237.103 1075.96C237.128 1075.81 237.121 1075.63 237.057 1075.45C235.919 1072.21 234.792 1068.96 233.641 1065.71C233.031 1063.99 232.42 1061.1 230.436 1060.39Z" fill="#C37E61" fill-opacity="0.2"/>
<path d="M113.366 844.343C109.736 843.039 108.863 847.92 109.127 851.082C107.22 850.731 105.274 850.946 103.485 851.888C101.841 852.761 99.8016 854.321 101.018 856.297C104.417 861.812 113.757 859.643 118.939 860.906C119.663 861.082 120.059 860.508 120.032 859.914C120.057 859.756 120.051 859.58 119.986 859.396C118.849 856.156 117.722 852.908 116.57 849.662C115.96 847.944 115.35 845.05 113.366 844.343Z" fill="#C37E61" fill-opacity="0.2"/>
<path d="M400.366 808.343C396.736 807.039 395.863 811.92 396.127 815.082C394.22 814.731 392.274 814.946 390.485 815.888C388.841 816.761 386.802 818.321 388.018 820.297C391.417 825.812 400.757 823.643 405.939 824.906C406.663 825.082 407.059 824.508 407.032 823.914C407.057 823.756 407.051 823.58 406.986 823.396C405.849 820.156 404.722 816.908 403.57 813.662C402.96 811.944 402.35 809.05 400.366 808.343Z" fill="#C37E61" fill-opacity="0.2"/>
<path d="M501.704 1196.68C498.228 1191.24 492.057 1196.8 489.175 1201.26C487.004 1198.83 484.207 1197.12 480.867 1196.54C477.798 1196.02 473.492 1196 473.068 1199.87C471.915 1210.66 486.53 1217.36 492.091 1224.35C492.871 1225.33 493.99 1224.96 494.566 1224.16C494.769 1223.97 494.939 1223.74 495.041 1223.41C496.855 1217.96 498.686 1212.48 500.483 1207.02C501.432 1204.12 503.585 1199.66 501.687 1196.68H501.704Z" fill="#C37E61" fill-opacity="0.2"/>
<path d="M162.03 754.179C163.963 748.33 165.912 742.498 167.845 736.649C168.506 734.665 171.66 728.545 171.032 726.544C168.032 716.999 160.691 729.359 159.758 732.173C159.08 734.275 156.299 734.665 155.113 732.783C152.57 728.765 144.432 721.458 140.329 726.68C137.091 730.8 142.787 736.649 145.907 739.802C151.01 744.956 157.012 748.974 162.03 754.162V754.179Z" fill="#C37E61" fill-opacity="0.2"/>
<path d="M143.72 1189.54C142.482 1185.03 139.498 1181.37 134.497 1179.81C128.783 1178.03 122.29 1179.89 120.103 1185.76C115.78 1197.31 124.748 1211.87 135.158 1216.8C135.819 1217.84 171.338 1203.17 167.574 1189.76C164.506 1178.81 151.247 1184.06 143.737 1189.54H143.72Z" fill="#C37E61" fill-opacity="0.2"/>
<path d="M35.9083 758.095C35.3997 755.416 34.179 753.229 32.1275 752.297C29.7879 751.246 27.1261 752.348 26.2276 755.84C24.4643 762.707 28.1264 771.387 32.3819 774.32C32.6531 774.947 47.1827 766.199 45.6568 758.231C44.4022 751.703 38.977 754.84 35.8913 758.095H35.9083Z" fill="#C37E61" fill-opacity="0.2"/>
<path d="M696.759 964.544C696.25 961.866 695.03 959.678 692.978 958.746C690.639 957.695 687.977 958.797 687.078 962.289C685.315 969.156 688.977 977.836 693.233 980.769C693.504 981.397 708.033 972.648 706.507 964.68C705.253 958.153 699.828 961.289 696.742 964.544H696.759Z" fill="#C37E61" fill-opacity="0.2"/>
<path d="M20.6496 1215.85C20.141 1213.17 18.9203 1210.99 16.8689 1210.05C14.5292 1209 11.8675 1210.11 10.9689 1213.6C9.20568 1220.46 12.8677 1229.14 17.1232 1232.08C17.3945 1232.71 31.924 1223.96 30.3982 1215.99C29.1436 1209.46 23.7183 1212.6 20.6327 1215.85H20.6496Z" fill="#C37E61" fill-opacity="0.2"/>
<path d="M648.915 1159.99C641.268 1155.04 629.994 1152.97 626.179 1163.79C624.484 1168.6 626.857 1172.84 630.35 1176.03C637.115 1182.22 645.151 1187.35 652.458 1192.88C653.441 1193.63 674.142 1163.77 664.461 1151.41C658.731 1144.09 651.169 1152.7 648.915 1159.99Z" fill="#C37E61" fill-opacity="0.2"/>
<path d="M487.275 1013.34C481.29 1004.54 476.255 1027.7 474.169 1021.32C471.152 1012.05 464.438 1013.08 459.369 1016.64C450.908 1022.59 460.114 1028.14 463.302 1030.58C468.574 1034.6 473.864 1038.58 479.154 1042.57C482.29 1036.84 485.969 1030.95 487.495 1024.59C488.089 1022.14 488.987 1015.86 487.258 1013.34H487.275Z" fill="#C37E61" fill-opacity="0.2"/>
</g>
<defs>
<clipPath id="clip0_219_43">
<rect width="706.643" height="722.732" fill="white"/>
</clipPath>
<clipPath id="clip1_219_43">
<rect width="706.643" height="722.732" fill="white" transform="translate(734)"/>
</clipPath>
<clipPath id="clip2_219_43">
<rect width="706.643" height="722.732" fill="white" transform="translate(739 723)"/>
</clipPath>
<clipPath id="clip3_219_43">
<rect width="706.643" height="722.732" fill="white" transform="translate(0 723)"/>
</clipPath>
</defs>
</svg>
