<svg width="1261" height="653" viewBox="0 0 1261 653" fill="none" xmlns="http://www.w3.org/2000/svg">
<path d="M80.0342 678C78.5156 678 77.0217 677.323 76.0313 676.041C74.3476 673.853 74.7684 670.734 76.9804 669.061C77.6654 668.547 145.443 616.986 173.81 560.845C189.921 528.982 214.806 511.112 241.151 492.189C264.145 475.674 287.915 458.596 308.821 430.505C322.464 412.17 337.725 388.594 352.482 365.793C397.431 296.362 426.376 254.344 448.982 256.05C467.833 257.487 477.102 280.451 486.923 304.778C494.971 324.706 503.282 345.302 515.926 350.111C549.006 362.691 621.431 463.682 647.47 525.276C659.991 554.902 690.446 569.49 722.676 584.944C757.589 601.671 793.681 618.978 813.44 656.848C814.711 659.289 813.745 662.293 811.278 663.551C808.81 664.808 805.773 663.853 804.502 661.412C786.278 626.48 751.712 609.916 718.294 593.899C684.298 577.605 652.183 562.216 638.185 529.113C611.221 465.339 540.637 370.177 512.311 359.393C495.565 353.025 486.42 330.371 477.572 308.46C469.327 288.043 460.801 266.924 448.206 265.969C429.991 264.597 391.686 323.669 360.95 371.148C346.102 394.08 330.751 417.795 316.918 436.391C295.087 465.731 270.674 483.275 247.06 500.23C221.739 518.419 197.82 535.595 182.807 565.286C153.383 623.516 85.9354 674.808 83.0797 676.963C82.1718 677.649 81.0989 677.984 80.0342 677.984V678Z" fill="#4B4C2D"/>
<path d="M1203.35 661C1202.3 661 1201.25 660.497 1200.38 659.457C1197.55 656.063 1191.71 650.25 1184.32 642.882C1161.28 619.948 1122.71 581.567 1099.45 541.511C1075.41 500.098 1033.73 476.55 1006.16 460.961C999.769 457.349 994.254 454.229 989.804 451.371C976.834 443.03 967.241 422.383 958.782 404.167C951.974 389.519 944.937 374.369 939.551 374.369C939.506 374.369 939.468 374.369 939.422 374.369C933.283 374.642 918.799 399.153 904.787 422.843C889.208 449.193 869.825 481.991 848.799 505.834C806.229 554.133 727.435 592.251 724.103 593.85C721.676 595.021 719.052 593.127 718.238 589.624C717.432 586.132 718.74 582.344 721.167 581.184C721.966 580.801 801.764 542.19 843.055 495.346C863.359 472.324 882.414 440.085 897.727 414.184C918.198 379.547 929.343 361.451 939.133 361.013C949.646 360.466 957.474 377.313 966.488 396.734C974.255 413.45 983.056 432.4 993.585 439.176C997.837 441.913 1003.26 444.978 1009.55 448.525C1038 464.607 1081.01 488.909 1106.57 532.939C1129.02 571.605 1166.94 609.34 1189.6 631.891C1197.49 639.741 1203.18 645.411 1206.33 649.188C1208.3 651.553 1208.56 655.756 1206.93 658.592C1206.01 660.179 1204.69 660.989 1203.36 660.989L1203.35 661Z" fill="#4B4C2D"/>
<path d="M1045.96 660.984C1044.87 660.984 1043.78 660.641 1042.85 659.922C1040.76 658.298 1038.39 656.543 1035.82 654.633C1013.37 637.907 975.784 609.917 967.663 565.838C961.504 532.435 940.081 509.22 917.408 484.642C909.437 476.005 901.2 467.075 893.701 457.688C864.438 421.061 871.706 371.325 872.029 369.227C872.451 366.509 875.009 364.648 877.774 365.056C880.53 365.472 882.418 368.003 882.004 370.721C881.93 371.195 875.117 418.351 901.622 451.533C908.899 460.643 917.019 469.443 924.867 477.948C947.498 502.486 970.908 527.856 977.588 564.066C985.005 604.325 1020.62 630.855 1041.9 646.699C1044.51 648.65 1046.93 650.445 1049.07 652.102C1051.26 653.8 1051.64 656.927 1049.93 659.09C1048.94 660.339 1047.45 661 1045.96 661L1045.96 660.984Z" fill="#4B4C2D"/>
<path d="M276.038 740.984C275.865 740.984 275.7 740.976 275.526 740.959C272.76 740.682 270.745 738.246 271.026 735.517C283.874 610.406 336.127 551.579 364.201 519.982C384.853 496.728 385.489 477.8 386.455 449.152C387.082 430.649 387.793 409.684 394.085 382.308C410.112 312.546 443.48 266.942 444.9 265.036C446.535 262.819 449.689 262.339 451.935 263.96C454.181 265.573 454.668 268.686 453.033 270.902C452.703 271.35 419.451 316.864 403.911 384.516C397.825 410.972 397.14 431.439 396.529 449.495C395.563 478.061 394.803 500.622 371.782 526.541C333.947 569.138 292.611 624.005 281.05 736.535C280.786 739.093 278.598 741 276.047 741L276.038 740.984Z" fill="#4B4C2D"/>
<path d="M844.134 663C842.634 663 841.151 662.374 840.14 661.163C838.363 659.034 838.7 655.921 840.899 654.198C841.092 654.051 859.931 639.023 864.186 616.054C865.525 608.82 866.208 601.944 866.865 595.295C868.474 579.154 869.991 563.898 880.749 549.991C882.443 547.797 885.661 547.35 887.936 548.983C890.211 550.617 890.674 553.722 888.981 555.916C879.941 567.604 878.618 580.877 877.085 596.246C876.402 603.09 875.703 610.169 874.287 617.801C869.342 644.493 848.245 661.204 847.352 661.903C846.4 662.642 845.263 663 844.125 663H844.134Z" fill="#4B4C2D"/>
<path d="M214.916 150C200.902 150 192.359 144.278 185.257 138.095C176.333 130.312 174.479 128.695 154.968 141.142C132.387 155.544 105.061 148.771 83.6384 123.474C76.4947 115.028 69.5745 118.528 54.3434 129.205C44.1948 136.309 33.6985 143.664 22.2586 142.047C11.0256 140.463 2.70628 132.785 0.554052 122.02C-2.07001 108.878 4.79229 95.1142 17.6312 87.7837C35.8424 77.39 34.3193 62.8503 34.2448 62.236C34.2283 62.0905 34.2117 61.8965 34.2034 61.751C33.8723 50.2016 37.0344 42.4508 43.5987 38.725C57.5633 30.7964 80.8157 44.5684 99.4988 55.6329L100.5 56.2309C106.477 59.7709 111.468 60.8701 115.326 59.4881C119.895 57.8555 122.064 53.0142 122.511 51.8827C124.688 40.6809 128.968 33.9242 135.574 31.2409C146.873 26.6422 160.308 35.6215 174.545 45.118C182.732 50.5815 191.209 56.239 198.087 58.2353C208.575 61.2823 218.285 55.1803 227.664 49.2722C237.44 43.1298 248.516 36.163 258.309 44.7462C262.489 48.4155 265.254 51.0826 267.472 53.2244C272.729 58.3 275.369 60.8458 289.624 69.4533C296.502 73.6075 302.371 71.7568 309.788 69.413C320.458 66.0427 333.744 61.8561 348.487 80.243C361.492 96.4477 353.247 115.821 339.315 127.823C326.087 139.218 306.999 145.151 296.113 134.442C283.043 121.575 275.344 128.534 275.27 128.607C274.972 128.889 274.641 129.132 274.285 129.326C247.001 144.682 228.401 150 214.883 150H214.916ZM174.562 122.117C180.39 122.117 185.439 125.026 191.978 130.74C201.266 138.839 215.305 151.075 268.962 120.961C272.066 118.601 285.7 110.155 303.307 127.491C308.754 132.85 321.924 129.673 332.66 120.419C342.279 112.127 350.118 98.2176 340.557 86.3046C330.16 73.3327 322.925 75.6119 312.909 78.772C305.012 81.2694 295.178 84.3648 284.326 77.8183C269.095 68.6289 265.999 65.6386 260.378 60.2155C258.126 58.0414 255.569 55.5682 251.562 52.0605C247.879 48.8357 243.119 51.2604 233.119 57.5402C222.88 63.9817 210.123 71.9911 195.199 67.6591C186.805 65.2183 177.666 59.1244 168.834 53.2325C157.982 45.9909 145.681 37.7794 139.439 40.3172C135.408 41.9579 133.355 48.6903 132.345 54.0569C132.304 54.267 132.254 54.4691 132.188 54.6711C132.047 55.0995 128.662 65.1213 118.91 68.6855C111.998 71.2072 104.035 69.8494 95.2522 64.6445L94.2424 64.0464C80.4764 55.8915 57.431 42.2407 48.6482 47.2274C44.8073 49.4096 44.1368 56.0208 44.2609 61.2661C44.5507 64.1191 45.5441 83.2334 22.689 96.2699C12.1265 102.299 8.91468 112.588 10.4212 120.112C11.7705 126.845 16.5965 131.282 23.6575 132.276C31.0661 133.318 39.8903 127.152 48.4164 121.179C61.3795 112.103 77.5129 100.804 91.3783 117.187C109.25 138.297 131.493 144.318 149.406 132.882C160.738 125.648 168.097 122.108 174.521 122.108L174.562 122.117Z" fill="#4B4C2D"/>
<path d="M662.853 116C651.176 116 635.153 110.808 611.723 95.8453C611.367 95.6196 611.044 95.3535 610.763 95.0471C610.763 95.0471 608.984 93.3299 606.104 93.4428C602.686 93.5476 598.696 96.0468 594.567 100.658C587.217 108.865 573.818 107.986 561.238 98.4734C545.745 86.7595 536.418 65.8954 548.568 48.6994C561.454 30.4554 573.686 34.833 582.624 38.0336C589.46 40.4763 593.573 41.6937 598.688 38.1868C610.713 29.9476 612.94 27.5128 617.376 22.6515C619.263 20.5796 621.621 18.0079 625.18 14.4606C634.118 5.57646 644.356 12.8806 652.583 18.7496C660.329 24.2801 668.349 29.9878 676.658 27.2548C682.336 25.3845 689.469 19.983 696.364 14.767C708.372 5.67321 719.719 -2.9127 729.816 0.948939C736.073 3.35138 740.062 10.0267 742.007 21.3778C742.603 23.1595 744.655 27.4161 748.098 28.6012C751.632 29.8186 756.126 27.5531 759.271 25.4409L760.115 24.8766C775.74 14.3801 795.181 1.30371 807.786 7.94669C814.266 11.3569 817.27 18.8141 816.972 30.7376C816.972 30.8827 816.956 31.0278 816.939 31.1648C816.873 31.8098 815.582 45.8939 830.909 55.8262C842.206 63.1464 848.124 77.174 845.302 89.9278C843.108 99.8681 836.099 106.713 826.548 108.244C816.31 109.881 807.206 102.658 798.417 95.676C792.003 90.5809 785.374 85.3164 780.723 85.8969C780.011 85.9856 777.843 86.2597 775.004 90.073C764.832 103.714 752.36 112.251 739.905 114.105C730.486 115.508 721.184 113.122 713.007 107.204C697.216 95.7727 696.082 96.9014 688.692 104.205C682.501 110.333 675.052 116 662.853 116ZM617.665 87.8802C662.34 116.29 673.869 104.867 681.508 97.3045C693.45 85.4938 700.469 85.8727 719.04 99.3119C725.09 103.689 731.604 105.399 738.398 104.391C748.172 102.932 758.278 95.7969 766.86 84.3007C770.444 79.4958 774.681 76.7628 779.448 76.1582C788.403 75.0215 796.745 81.6564 804.815 88.0656C811.874 93.6767 819.166 99.4812 824.934 98.5541C832.573 97.3287 834.841 90.6777 835.461 87.8721C837.075 80.5842 834.592 70.015 825.34 64.017C805.766 51.3356 806.669 32.9546 806.909 30.3265C807.074 22.8853 805.692 18.0079 803.002 16.5971C795.843 12.8241 776.336 25.9327 765.859 32.9707L765.014 33.5351C757.582 38.5334 750.722 39.9765 744.647 37.832C735.593 34.6476 732.555 24.9169 732.241 23.8205C732.191 23.6431 732.15 23.4578 732.117 23.2804C730.892 15.8877 728.707 11.0827 726.141 10.0991C721.382 8.28522 710.963 16.1778 702.579 22.5306C695.023 28.2545 687.202 34.172 679.911 36.5744C666.627 40.9439 655.546 33.0433 646.64 26.6905C637.355 20.0637 634.698 19.0721 632.405 21.3455C629.012 24.7234 626.844 27.0936 624.924 29.1897C620.124 34.438 617.483 37.3322 604.498 46.2244C594.807 52.8594 586.125 49.7556 579.148 47.2564C570.533 44.1687 565.327 42.3144 556.885 54.2702C547.268 67.8786 557.92 83.5107 567.429 90.7018C573.942 95.6276 582.831 98.8121 586.969 94.1926C593.201 87.2352 599.656 83.6719 606.161 83.6074C606.228 83.6074 606.286 83.6074 606.352 83.6074C612.311 83.6074 616.25 86.5903 617.674 87.8802H617.665Z" fill="#4B4C2D"/>
<path d="M1121.03 263C1111.36 263 1100.31 256.046 1088.73 248.768C1080.4 243.528 1071.78 238.11 1064.86 236.299C1054.3 233.541 1044.78 239.921 1035.57 246.083C1025.98 252.496 1015.14 259.765 1005.11 251.453C1000.81 247.895 997.97 245.291 995.688 243.204C990.297 238.28 987.593 235.805 973.131 227.606C966.136 223.643 960.332 225.657 952.981 228.204C942.422 231.867 929.283 236.428 914.028 218.436C900.575 202.578 908.248 182.977 921.825 170.589C934.699 158.831 953.584 152.378 964.755 162.785C978.183 175.295 985.658 168.114 985.732 168.041C986.022 167.75 986.344 167.5 986.7 167.289C1041.31 134.458 1061.11 144.275 1075.38 156.057C1084.51 163.594 1086.41 165.163 1105.53 152.168C1127.66 137.127 1155.15 143.143 1177.26 167.872C1184.65 176.12 1191.45 172.424 1206.35 161.33C1216.28 153.939 1226.54 146.297 1238.02 147.599C1249.28 148.877 1257.81 156.316 1260.27 167.03C1263.27 180.106 1256.82 194.055 1244.2 201.745C1226.32 212.646 1228.26 227.145 1228.35 227.759C1228.37 227.905 1228.39 228.091 1228.4 228.237C1229.06 239.784 1226.13 247.62 1219.69 251.525C1205.98 259.838 1182.37 246.706 1163.39 236.153L1162.37 235.587C1156.26 232.191 1151.22 231.245 1147.4 232.765C1142.88 234.56 1140.91 239.436 1140.52 240.528C1138.67 251.8 1134.59 258.682 1128.07 261.553C1125.83 262.539 1123.49 262.976 1121.05 262.976L1121.03 263ZM1059.69 225.77C1062.2 225.77 1064.79 226.077 1067.46 226.773C1075.91 228.98 1085.2 234.819 1094.19 240.471C1105.24 247.418 1117.76 255.294 1123.92 252.577C1127.9 250.822 1129.75 244.029 1130.6 238.644C1130.64 238.434 1130.69 238.231 1130.75 238.029C1130.87 237.601 1133.95 227.484 1143.59 223.652C1150.42 220.934 1158.41 222.067 1167.35 227.032L1168.37 227.598C1182.35 235.369 1205.75 248.388 1214.37 243.164C1218.14 240.876 1218.62 234.245 1218.34 229.005C1217.97 226.158 1216.42 207.074 1238.86 193.4C1249.23 187.077 1252.14 176.694 1250.42 169.214C1248.89 162.518 1243.94 158.216 1236.86 157.416C1229.41 156.567 1220.79 162.995 1212.46 169.198C1199.77 178.635 1183.99 190.384 1169.67 174.381C1151.22 153.745 1128.84 148.351 1111.29 160.278C1090.11 174.672 1082.97 175.23 1068.88 163.602C1059.37 155.75 1045.02 143.895 992.297 175.505C989.263 177.955 975.901 186.778 957.81 169.925C952.22 164.718 939.172 168.252 928.713 177.802C919.344 186.357 911.903 200.492 921.8 212.153C932.566 224.84 939.726 222.358 949.624 218.921C957.446 216.212 967.17 212.832 978.2 219.083C993.654 227.84 996.821 230.743 1002.58 236.008C1004.9 238.126 1007.53 240.528 1011.64 243.932C1015.41 247.054 1020.09 244.506 1029.89 237.948C1038.15 232.417 1048.08 225.77 1059.71 225.77H1059.69Z" fill="#4B4C2D"/>
</svg>
